<svg width="224" height="128" viewBox="0 0 224 128" fill="none" xmlns="http://www.w3.org/2000/svg">
<g clip-path="url(#clip0_4200_6745)">
<path d="M0 128H224V0H0V128Z" fill="white"/>
<path d="M23.7041 85.8467H220.771V11.2413H23.7041V85.8467Z" fill="white"/>
<mask id="mask0_4200_6745" style="mask-type:luminance" maskUnits="userSpaceOnUse" x="23" y="11" width="198" height="75">
<path d="M220.771 11.2413H23.7039V85.8467H220.771V11.2413Z" fill="white"/>
</mask>
<g mask="url(#mask0_4200_6745)">
<path d="M46.8052 85.8467V11.2413" stroke="#CCCCCC" stroke-width="0.444491" stroke-linecap="round"/>
</g>
<path d="M14.6274 122.258C14.4375 122.454 14.2291 122.576 14.0023 122.625C13.7755 122.674 13.5465 122.656 13.3152 122.57C13.084 122.483 12.8673 122.336 12.6651 122.128C12.4594 121.916 12.3156 121.689 12.2339 121.449C12.1521 121.207 12.135 120.97 12.1824 120.738C12.2299 120.504 12.3451 120.293 12.528 120.104C12.6704 119.958 12.8251 119.852 12.9922 119.789C13.1592 119.726 13.3267 119.705 13.4946 119.728C13.6625 119.75 13.8186 119.818 13.9627 119.93L13.6515 120.251C13.5355 120.181 13.401 120.151 13.248 120.162C13.095 120.171 12.95 120.246 12.8128 120.387C12.6915 120.512 12.6168 120.655 12.5886 120.814C12.5605 120.972 12.5781 121.136 12.6414 121.306C12.7047 121.475 12.8128 121.638 12.9658 121.796C13.1223 121.957 13.2832 122.072 13.4484 122.141C13.6146 122.209 13.775 122.23 13.9298 122.202C14.0854 122.174 14.2247 122.097 14.3478 121.97C14.4287 121.887 14.488 121.796 14.5259 121.699C14.5637 121.602 14.579 121.503 14.572 121.402C14.565 121.3 14.5342 121.201 14.4797 121.105L14.7909 120.784C14.8929 120.926 14.9571 121.082 14.9835 121.252C15.0098 121.421 14.9944 121.592 14.9373 121.767C14.8802 121.94 14.7769 122.104 14.6274 122.258ZM13.4471 117.819L16.1479 120.603L15.8367 120.924L13.1359 118.14L13.4471 117.819ZM17.3615 119.45C17.2331 119.582 17.0925 119.678 16.9395 119.736C16.7856 119.793 16.6318 119.805 16.4779 119.774C16.3232 119.741 16.1799 119.657 16.048 119.521C15.932 119.401 15.8607 119.281 15.8344 119.159C15.8071 119.037 15.8111 118.915 15.8462 118.793C15.8814 118.672 15.935 118.553 16.0071 118.437C16.0792 118.319 16.1561 118.206 16.2379 118.096C16.3452 117.953 16.4331 117.838 16.5017 117.751C16.5702 117.662 16.612 117.589 16.6269 117.532C16.6428 117.474 16.6256 117.419 16.5755 117.367L16.565 117.356C16.4348 117.222 16.2981 117.155 16.1548 117.154C16.0124 117.152 15.8695 117.225 15.7262 117.373C15.5777 117.526 15.4937 117.679 15.4744 117.833C15.455 117.988 15.4651 118.12 15.5047 118.232L15.1038 118.428C15.0335 118.246 15.008 118.075 15.0273 117.914C15.0466 117.751 15.095 117.601 15.1724 117.465C15.2497 117.327 15.3394 117.206 15.4414 117.101C15.5064 117.034 15.5891 116.965 15.6893 116.894C15.7895 116.821 15.9029 116.769 16.0295 116.736C16.157 116.703 16.2951 116.708 16.4436 116.753C16.5922 116.797 16.7469 116.902 16.9078 117.068L18.2424 118.444L17.9312 118.765L17.6569 118.482L17.641 118.498C17.6639 118.565 17.6758 118.65 17.6767 118.753C17.6775 118.855 17.6547 118.967 17.6081 119.087C17.5615 119.208 17.4793 119.329 17.3615 119.45ZM17.1294 119.113C17.2525 118.986 17.332 118.854 17.3681 118.717C17.405 118.579 17.4068 118.449 17.3733 118.326C17.3408 118.201 17.2824 118.096 17.198 118.009L16.9131 117.715C16.9157 117.745 16.9012 117.79 16.8696 117.85C16.8379 117.908 16.7979 117.972 16.7496 118.042C16.7012 118.109 16.6533 118.175 16.6058 118.239C16.5584 118.3 16.5201 118.351 16.4911 118.39C16.4208 118.484 16.3623 118.579 16.3157 118.676C16.2691 118.772 16.2476 118.865 16.2511 118.958C16.2546 119.049 16.2959 119.135 16.3751 119.216C16.4832 119.328 16.605 119.371 16.7403 119.345C16.8757 119.318 17.0054 119.241 17.1294 119.113ZM19.2588 115.688L18.0614 114.454L18.3726 114.133L20.3982 116.221L20.087 116.542L19.7441 116.189L19.723 116.21C19.7784 116.365 19.792 116.532 19.7639 116.709C19.7349 116.886 19.6439 117.053 19.4909 117.211C19.3643 117.342 19.2241 117.429 19.0702 117.474C18.9155 117.517 18.7537 117.51 18.5849 117.452C18.4153 117.393 18.2443 117.275 18.0719 117.097L16.7849 115.77L17.0961 115.449L18.3621 116.754C18.5098 116.907 18.6689 116.985 18.8395 116.991C19.0109 116.995 19.1612 116.931 19.2905 116.798C19.3678 116.718 19.4267 116.616 19.4672 116.493C19.5085 116.369 19.5155 116.237 19.4883 116.096C19.4619 115.955 19.3854 115.819 19.2588 115.688ZM21.7753 114.888C21.6065 115.062 21.4149 115.172 21.2003 115.217C20.9849 115.262 20.7625 115.241 20.5331 115.155C20.3027 115.068 20.0803 114.914 19.8658 114.693C19.653 114.473 19.5049 114.245 19.4214 114.009C19.3378 113.772 19.3185 113.543 19.3633 113.321C19.4082 113.099 19.5159 112.9 19.6864 112.724C19.8183 112.588 19.9445 112.503 20.0649 112.47C20.1853 112.434 20.2935 112.424 20.3893 112.44C20.4851 112.453 20.5621 112.466 20.6201 112.479L20.6465 112.452L19.6495 111.424L19.9607 111.103L22.6615 113.888L22.3608 114.198L22.0496 113.877L22.0127 113.915C22.0267 113.977 22.0408 114.058 22.0549 114.16C22.0681 114.26 22.0575 114.374 22.0232 114.5C21.9881 114.625 21.9054 114.754 21.7753 114.888ZM21.5379 114.557C21.6628 114.428 21.7357 114.286 21.7568 114.13C21.7771 113.973 21.7516 113.812 21.6804 113.646C21.6083 113.479 21.4957 113.317 21.3428 113.159C21.1915 113.003 21.0373 112.889 20.8799 112.818C20.7216 112.745 20.5678 112.721 20.4183 112.744C20.268 112.767 20.1295 112.844 20.0029 112.974C19.871 113.11 19.795 113.258 19.7748 113.419C19.7546 113.577 19.78 113.739 19.8513 113.903C19.9225 114.065 20.0293 114.219 20.1717 114.366C20.3159 114.515 20.4689 114.627 20.6306 114.704C20.7924 114.778 20.9515 114.806 21.108 114.788C21.2645 114.768 21.4078 114.691 21.5379 114.557ZM24.1662 112.423C23.971 112.625 23.7596 112.754 23.5319 112.811C23.3042 112.866 23.0743 112.853 22.8422 112.771C22.6101 112.688 22.3903 112.539 22.1828 112.325C21.9753 112.112 21.8303 111.884 21.7476 111.643C21.665 111.4 21.6474 111.163 21.6949 110.93C21.7423 110.697 21.8575 110.485 22.0404 110.297C22.1459 110.188 22.2676 110.099 22.4057 110.029C22.5437 109.959 22.6945 109.922 22.858 109.916C23.0206 109.91 23.1916 109.947 23.371 110.029C23.5503 110.111 23.7345 110.249 23.9235 110.444L24.0554 110.58L22.494 112.19L22.225 111.912L23.4699 110.629C23.3556 110.511 23.2308 110.429 23.0954 110.384C22.9609 110.338 22.8259 110.331 22.6905 110.363C22.556 110.395 22.4325 110.469 22.3199 110.585C22.196 110.713 22.1195 110.855 22.0905 111.012C22.0615 111.167 22.0716 111.32 22.1208 111.47C22.1701 111.621 22.2505 111.754 22.3621 111.869L22.5415 112.054C22.6945 112.211 22.8505 112.318 23.0097 112.373C23.1688 112.427 23.3235 112.433 23.4738 112.392C23.6233 112.35 23.7609 112.265 23.8866 112.135C23.9684 112.051 24.0308 111.963 24.0739 111.871C24.117 111.778 24.1394 111.682 24.1411 111.584C24.142 111.486 24.1205 111.386 24.0765 111.287L24.4616 111.064C24.5319 111.202 24.5684 111.349 24.571 111.506C24.5728 111.662 24.5403 111.818 24.4735 111.976C24.4058 112.133 24.3033 112.282 24.1662 112.423ZM25.2937 108.487L25.5838 108.786L24.4022 110.005L24.1121 109.705L25.2937 108.487ZM27.0071 106.166L26.8066 106.536C26.7425 106.506 26.6712 106.486 26.593 106.476C26.5148 106.464 26.4321 106.473 26.3451 106.503C26.258 106.533 26.1692 106.595 26.0787 106.688C25.9547 106.816 25.88 106.952 25.8545 107.096C25.829 107.238 25.8598 107.354 25.9468 107.444C26.0242 107.524 26.1134 107.558 26.2145 107.546C26.3156 107.534 26.4409 107.482 26.5904 107.39L26.9649 107.156C27.19 107.014 27.3922 106.945 27.5715 106.946C27.75 106.947 27.91 107.021 28.0515 107.167C28.1676 107.286 28.2379 107.428 28.2625 107.591C28.288 107.753 28.2678 107.923 28.2019 108.099C28.1359 108.276 28.0243 108.446 27.8669 108.608C27.6603 108.821 27.4445 108.951 27.2194 108.998C26.9943 109.045 26.7776 108.999 26.5693 108.858L26.7908 108.477C26.928 108.561 27.0629 108.59 27.1957 108.566C27.3293 108.54 27.4599 108.462 27.5873 108.33C27.7324 108.181 27.8168 108.03 27.8405 107.879C27.8643 107.726 27.8326 107.604 27.7456 107.515C27.6752 107.442 27.5917 107.407 27.495 107.409C27.3974 107.41 27.2858 107.45 27.1601 107.531L26.7433 107.797C26.5139 107.943 26.3095 108.014 26.1301 108.008C25.9508 108.001 25.7912 107.925 25.6514 107.781C25.5371 107.663 25.4681 107.526 25.4444 107.369C25.4215 107.211 25.4409 107.049 25.5024 106.882C25.5648 106.715 25.6672 106.557 25.8097 106.411C26.0101 106.204 26.2114 106.087 26.4137 106.06C26.6167 106.032 26.8146 106.067 27.0071 106.166ZM29.9495 106.461C29.7667 106.649 29.5627 106.77 29.3376 106.822C29.1134 106.874 28.8844 106.859 28.6506 106.777C28.4176 106.695 28.1965 106.546 27.9872 106.33C27.7762 106.113 27.6303 105.883 27.5494 105.642C27.4694 105.4 27.4545 105.163 27.5046 104.932C27.5556 104.7 27.6725 104.49 27.8554 104.301C28.0382 104.113 28.2418 103.993 28.4659 103.941C28.691 103.889 28.9205 103.904 29.1543 103.987C29.3891 104.07 29.6119 104.22 29.8229 104.437C30.0322 104.653 30.1764 104.882 30.2555 105.123C30.3355 105.363 30.35 105.599 30.299 105.831C30.2489 106.062 30.1324 106.272 29.9495 106.461ZM29.67 106.172C29.8089 106.029 29.8876 105.875 29.906 105.709C29.9245 105.543 29.8972 105.378 29.8243 105.214C29.7513 105.05 29.6471 104.898 29.5117 104.758C29.3763 104.619 29.2286 104.511 29.0686 104.435C28.9086 104.359 28.7477 104.33 28.586 104.348C28.4242 104.366 28.2738 104.446 28.1349 104.59C27.996 104.733 27.9178 104.888 27.9002 105.055C27.8826 105.221 27.9108 105.387 27.9846 105.552C28.0585 105.717 28.1631 105.87 28.2985 106.009C28.4339 106.149 28.5811 106.256 28.7402 106.331C28.8994 106.407 29.0594 106.435 29.2203 106.416C29.3812 106.397 29.5311 106.316 29.67 106.172ZM30.393 103.404L31.6115 104.66L31.3003 104.981L29.2747 102.892L29.5753 102.582L29.8918 102.909L29.9182 102.882C29.8628 102.727 29.8523 102.567 29.8866 102.403C29.92 102.238 30.0132 102.077 30.1661 101.919C30.3033 101.778 30.4514 101.683 30.6106 101.635C30.7688 101.586 30.9332 101.59 31.1038 101.648C31.2734 101.706 31.4444 101.823 31.6168 102.001L32.9038 103.328L32.5926 103.648L31.3266 102.343C31.1675 102.179 31.0022 102.094 30.8308 102.088C30.6585 102.08 30.5002 102.151 30.356 102.3C30.2567 102.402 30.1894 102.516 30.1543 102.641C30.12 102.765 30.1217 102.893 30.1595 103.024C30.1973 103.156 30.2752 103.282 30.393 103.404ZM32.5653 101.164L33.7838 102.42L33.4726 102.741L31.447 100.653L31.7476 100.343L32.0641 100.669L32.0905 100.642C32.0351 100.487 32.0246 100.327 32.0589 100.163C32.0923 99.9983 32.1855 99.837 32.3384 99.6793C32.4756 99.5379 32.6237 99.4431 32.7828 99.3951C32.9411 99.3462 33.1055 99.3507 33.2761 99.4087C33.4457 99.4658 33.6167 99.5832 33.789 99.7608L35.0761 101.088L34.7649 101.409L33.4989 100.103C33.3398 99.9394 33.1745 99.8542 33.0031 99.8479C32.8308 99.8406 32.6725 99.9113 32.5283 100.06C32.429 100.162 32.3617 100.276 32.3266 100.401C32.2923 100.525 32.294 100.653 32.3318 100.785C32.3696 100.916 32.4474 101.043 32.5653 101.164ZM36.5363 99.6694C36.3411 99.8706 36.1297 99.9998 35.902 100.057C35.6743 100.112 35.4444 100.099 35.2123 100.017C34.9802 99.9341 34.7604 99.7854 34.5529 99.5715C34.3454 99.3576 34.2004 99.1301 34.1177 98.889C34.0351 98.646 34.0175 98.4086 34.065 98.1765C34.1125 97.9426 34.2276 97.7314 34.4105 97.5429C34.516 97.4341 34.6378 97.3448 34.7758 97.275C34.9138 97.2053 35.0646 97.1676 35.2281 97.1622C35.3908 97.1558 35.5618 97.1935 35.7411 97.275C35.9205 97.3566 36.1047 97.4949 36.2937 97.6897L36.4255 97.8257L34.8642 99.4356L34.5951 99.1582L35.84 97.8747C35.7257 97.7568 35.6009 97.6752 35.4655 97.6299C35.331 97.5837 35.196 97.5769 35.0606 97.6095C34.9261 97.6412 34.8026 97.7151 34.6901 97.8311C34.5661 97.959 34.4896 98.1013 34.4606 98.2581C34.4316 98.4131 34.4417 98.5658 34.491 98.7163C34.5402 98.8668 34.6206 98.9996 34.7323 99.1147L34.9116 99.2996C35.0646 99.4573 35.2207 99.5638 35.3798 99.6191C35.5389 99.6726 35.6936 99.6789 35.844 99.6381C35.9934 99.5964 36.131 99.5108 36.2567 99.3812C36.3385 99.2969 36.4009 99.2089 36.444 99.1174C36.4871 99.024 36.5095 98.9284 36.5113 98.8305C36.5121 98.7317 36.4906 98.6324 36.4466 98.5327L36.8317 98.3097C36.9021 98.4475 36.9385 98.5948 36.9412 98.7516C36.9429 98.9075 36.9104 99.0644 36.8436 99.2221C36.7759 99.3789 36.6735 99.528 36.5363 99.6694ZM36.6616 95.2763L36.9253 95.5483L35.8756 96.6306L35.6119 96.3586L36.6616 95.2763ZM35.4325 95.5428L35.7438 95.222L37.6744 97.2125C37.7623 97.3031 37.841 97.358 37.9104 97.377C37.9799 97.3942 38.0423 97.3897 38.0977 97.3634C38.1531 97.3353 38.2036 97.2977 38.2494 97.2506C38.2837 97.2152 38.31 97.1844 38.3285 97.1581C38.3461 97.1309 38.3601 97.1092 38.3707 97.0929L38.7136 97.3158C38.7004 97.3458 38.6788 97.3843 38.6489 97.4314C38.6199 97.4795 38.5764 97.5334 38.5184 97.5932C38.4305 97.6839 38.3254 97.7532 38.2032 97.8012C38.0819 97.8484 37.9548 97.8606 37.8221 97.8379C37.6902 97.8144 37.5654 97.7419 37.4476 97.6204L35.4325 95.5428ZM38.9404 94.417L39.2305 94.7162L38.0489 95.9344L37.7588 95.6353L38.9404 94.417ZM40.1685 94.6954L39.8994 94.4181L39.2084 91.2582L39.4036 91.057L39.8203 91.4866L39.6884 91.6226L40.2107 94.0102L40.2318 94.0319L41.8301 92.384L42.1202 92.6831L40.1685 94.6954ZM41.9936 93.9558L41.358 93.3004L41.2327 93.1712L39.2928 91.1712L39.604 90.8503L42.3048 93.6349L41.9936 93.9558ZM42.8386 90.0009L43.1287 90.3L41.9471 91.5182L41.657 91.2191L42.8386 90.0009ZM45.7573 90.1514C45.6026 90.311 45.4324 90.4229 45.2469 90.4873C45.0614 90.5516 44.8777 90.567 44.6957 90.5335C44.5137 90.5 44.3506 90.4161 44.2065 90.282L44.523 89.9556C44.6575 90.0689 44.814 90.1161 44.9924 90.097C45.1709 90.0762 45.3291 89.9946 45.4672 89.8523C45.5779 89.7381 45.6505 89.6098 45.6848 89.4675C45.7199 89.3243 45.7169 89.1806 45.6755 89.0365C45.6342 88.8906 45.556 88.7582 45.4408 88.6395C45.323 88.518 45.192 88.4364 45.0478 88.3948C44.9036 88.3512 44.7599 88.3481 44.6166 88.3852C44.4733 88.4224 44.3436 88.4999 44.2276 88.6177C44.144 88.702 44.0719 88.8027 44.0113 88.9196C43.9497 89.0356 43.9111 89.1435 43.8952 89.2432L43.5524 89.5206L42.3866 87.9814L43.7897 86.5347L44.0799 86.8339L42.951 87.9977L43.6526 88.9169L43.6684 88.9005C43.6798 88.7981 43.7128 88.6889 43.7673 88.5729C43.8218 88.4568 43.8944 88.3521 43.9849 88.2588C44.1502 88.0884 44.337 87.9773 44.5454 87.9257C44.7537 87.8722 44.963 87.8776 45.1731 87.942C45.3841 88.0054 45.5771 88.1274 45.752 88.3077C45.9243 88.4854 46.0395 88.6839 46.0975 88.9033C46.1556 89.1208 46.1564 89.3393 46.1002 89.5586C46.043 89.7771 45.9287 89.9747 45.7573 90.1514Z" fill="#262626"/>
<mask id="mask1_4200_6745" style="mask-type:luminance" maskUnits="userSpaceOnUse" x="23" y="11" width="198" height="75">
<path d="M220.771 11.2413H23.7039V85.8467H220.771V11.2413Z" fill="white"/>
</mask>
<g mask="url(#mask1_4200_6745)">
<path d="M84.521 85.8467V11.2413" stroke="#CCCCCC" stroke-width="0.444491" stroke-linecap="round"/>
</g>
<path d="M61.5914 114.282C61.4411 114.437 61.2925 114.55 61.1457 114.621C60.9998 114.694 60.8595 114.735 60.725 114.745C60.5923 114.755 60.4696 114.746 60.3571 114.717L60.4309 114.282C60.496 114.291 60.5738 114.297 60.6644 114.302C60.7558 114.307 60.8565 114.29 60.9663 114.249C61.078 114.208 61.1949 114.125 61.3171 113.999C61.4807 113.83 61.576 113.65 61.6033 113.459C61.6306 113.268 61.5598 113.085 61.391 112.911L60.9795 112.487L60.9532 112.514C60.9672 112.576 60.9804 112.656 60.9927 112.756C61.005 112.854 60.9932 112.965 60.9571 113.089C60.9211 113.211 60.8371 113.341 60.7052 113.477C60.5417 113.645 60.3562 113.757 60.1487 113.811C59.9421 113.865 59.7272 113.854 59.5039 113.78C59.2814 113.705 59.0647 113.558 58.8537 113.341C58.6462 113.127 58.5021 112.903 58.4212 112.669C58.3394 112.434 58.3214 112.206 58.3671 111.985C58.4119 111.763 58.5196 111.564 58.6902 111.388C58.8221 111.252 58.9487 111.167 59.07 111.133C59.1913 111.096 59.3003 111.085 59.397 111.1C59.4938 111.113 59.5711 111.125 59.6291 111.138L59.6608 111.105L59.339 110.774L59.6397 110.464L61.7233 112.612C61.8974 112.791 61.9994 112.978 62.0293 113.172C62.0609 113.366 62.0358 113.558 61.9541 113.747C61.8741 113.937 61.7532 114.115 61.5914 114.282ZM60.4679 113.145C60.5927 113.016 60.6696 112.878 60.6986 112.73C60.7277 112.582 60.711 112.43 60.6485 112.273C60.5861 112.116 60.4802 111.961 60.3307 111.807C60.1848 111.656 60.034 111.546 59.8784 111.477C59.7228 111.407 59.5702 111.384 59.4208 111.407C59.2713 111.431 59.1333 111.508 59.0067 111.638C58.8748 111.774 58.7983 111.922 58.7772 112.082C58.757 112.24 58.7812 112.4 58.8498 112.562C58.9192 112.722 59.0225 112.873 59.1597 113.014C59.3003 113.159 59.4467 113.265 59.5988 113.331C59.7509 113.395 59.9012 113.414 60.0498 113.388C60.1984 113.36 60.3377 113.279 60.4679 113.145ZM62.9946 112.748L60.2094 109.876L60.5101 109.566L60.8318 109.898L60.8688 109.86C60.8565 109.8 60.8433 109.721 60.8292 109.623C60.8151 109.524 60.8248 109.412 60.8582 109.289C60.8916 109.164 60.9743 109.033 61.1061 108.897C61.2767 108.721 61.4697 108.61 61.6851 108.564C61.9005 108.518 62.1229 108.538 62.3523 108.624C62.5818 108.71 62.8029 108.863 63.0157 109.082C63.2302 109.303 63.3796 109.533 63.464 109.77C63.5476 110.007 63.5678 110.236 63.5247 110.458C63.4807 110.679 63.3744 110.877 63.2056 111.051C63.0755 111.185 62.9497 111.27 62.8284 111.307C62.7062 111.342 62.5963 111.353 62.4987 111.339C62.4003 111.325 62.3211 111.31 62.2614 111.296L62.235 111.323L63.3058 112.427L62.9946 112.748ZM61.5281 110.605C61.6811 110.763 61.8385 110.879 62.0002 110.953C62.1611 111.026 62.3176 111.053 62.4697 111.032C62.6209 111.01 62.759 110.935 62.8838 110.806C63.0139 110.672 63.0882 110.525 63.1067 110.364C63.1251 110.202 63.0979 110.038 63.0249 109.872C62.9519 109.704 62.8434 109.546 62.6992 109.398C62.5568 109.251 62.4064 109.141 62.2482 109.069C62.0899 108.994 61.9334 108.968 61.7787 108.99C61.624 109.01 61.4807 109.088 61.3488 109.224C61.2222 109.354 61.1479 109.497 61.1259 109.652C61.1031 109.806 61.1268 109.965 61.1971 110.128C61.2666 110.29 61.3769 110.449 61.5281 110.605ZM63.3533 106.635L63.617 106.907L62.5673 107.989L62.3036 107.717L63.3533 106.635ZM62.1242 106.901L62.4354 106.58L64.3661 108.571C64.454 108.662 64.5327 108.716 64.6021 108.735C64.6716 108.753 64.734 108.748 64.7894 108.722C64.8448 108.694 64.8953 108.656 64.941 108.609C64.9753 108.574 65.0017 108.543 65.0202 108.517C65.0377 108.489 65.0518 108.468 65.0624 108.451L65.4052 108.674C65.392 108.704 65.3705 108.743 65.3406 108.79C65.3116 108.838 65.2681 108.892 65.2101 108.952C65.1221 109.042 65.0171 109.112 64.8949 109.16C64.7736 109.207 64.6465 109.219 64.5138 109.196C64.3819 109.173 64.257 109.1 64.1392 108.979L62.1242 106.901ZM65.6321 105.775L65.9222 106.075L64.7406 107.293L64.4505 106.994L65.6321 105.775ZM68.3833 105.702C68.2092 105.881 68.0241 106.01 67.8281 106.089C67.6329 106.167 67.4421 106.193 67.2558 106.165C67.0694 106.136 66.9019 106.052 66.7533 105.914L67.0856 105.571C67.1797 105.654 67.2848 105.7 67.4008 105.711C67.516 105.721 67.6334 105.7 67.7529 105.647C67.8725 105.595 67.9841 105.515 68.0879 105.408C68.2039 105.288 68.2866 105.161 68.3358 105.027C68.385 104.893 68.3991 104.763 68.378 104.636C68.3569 104.509 68.2989 104.396 68.2039 104.299C68.1046 104.196 67.9925 104.131 67.8677 104.104C67.7419 104.076 67.6101 104.089 67.472 104.142C67.334 104.196 67.1964 104.293 67.0593 104.434L66.843 104.657L66.5529 104.358L66.7691 104.135C66.8764 104.025 66.9511 103.908 66.9933 103.785C67.0364 103.66 67.0456 103.538 67.021 103.419C66.9973 103.298 66.9379 103.189 66.843 103.091C66.7516 102.997 66.6518 102.936 66.5436 102.908C66.4355 102.879 66.3256 102.884 66.214 102.921C66.1032 102.957 65.9981 103.027 65.8988 103.129C65.8056 103.225 65.7348 103.334 65.6865 103.454C65.6381 103.573 65.6201 103.692 65.6324 103.812C65.6438 103.931 65.6922 104.038 65.7774 104.135L65.461 104.462C65.3247 104.31 65.2434 104.139 65.217 103.946C65.1897 103.753 65.2108 103.559 65.2803 103.364C65.3506 103.169 65.4636 102.991 65.6192 102.83C65.7862 102.658 65.9634 102.545 66.1507 102.492C66.337 102.437 66.5173 102.434 66.6913 102.481C66.8654 102.528 67.0162 102.617 67.1437 102.749C67.2958 102.905 67.3854 103.08 67.4127 103.273C67.4408 103.466 67.4074 103.653 67.3125 103.836L67.3336 103.858C67.5323 103.711 67.738 103.649 67.9507 103.67C68.1626 103.691 68.3543 103.79 68.5257 103.967C68.6725 104.118 68.7644 104.295 68.8013 104.498C68.8383 104.7 68.8215 104.905 68.7512 105.116C68.6809 105.326 68.5582 105.521 68.3833 105.702ZM69.9681 104.035C69.903 104.102 69.8239 104.136 69.7307 104.136C69.6375 104.136 69.5584 104.102 69.4933 104.035C69.4283 103.968 69.3957 103.886 69.3957 103.79C69.3957 103.694 69.4283 103.613 69.4933 103.546C69.5584 103.479 69.6375 103.445 69.7307 103.445C69.8239 103.445 69.903 103.479 69.9681 103.546C70.0112 103.59 70.0397 103.642 70.0538 103.702C70.0687 103.761 70.0692 103.82 70.0551 103.88C70.0411 103.938 70.012 103.99 69.9681 104.035ZM71.5641 102.422C71.4094 102.582 71.2392 102.694 71.0537 102.758C70.8682 102.822 70.6845 102.838 70.5025 102.804C70.3205 102.771 70.1574 102.687 70.0132 102.553L70.3297 102.226C70.4643 102.34 70.6207 102.387 70.7992 102.368C70.9777 102.347 71.1359 102.265 71.274 102.123C71.3847 102.009 71.4573 101.881 71.4916 101.738C71.5267 101.595 71.5236 101.451 71.4823 101.307C71.441 101.161 71.3628 101.029 71.2476 100.91C71.1298 100.789 70.9988 100.707 70.8546 100.666C70.7104 100.622 70.5667 100.619 70.4234 100.656C70.2801 100.693 70.1504 100.771 70.0343 100.888C69.9508 100.973 69.8787 101.073 69.8181 101.19C69.7565 101.306 69.7179 101.414 69.702 101.514L69.3592 101.791L68.1934 100.252L69.5965 98.8055L69.8866 99.1046L68.7578 100.268L69.4594 101.188L69.4752 101.171C69.4866 101.069 69.5196 100.96 69.5741 100.844C69.6286 100.728 69.7011 100.623 69.7917 100.53C69.957 100.359 70.1438 100.248 70.3522 100.196C70.5605 100.143 70.7698 100.148 70.9799 100.213C71.1909 100.276 71.3839 100.398 71.5588 100.578C71.7311 100.756 71.8463 100.955 71.9043 101.174C71.9624 101.392 71.9632 101.61 71.907 101.829C71.8498 102.048 71.7355 102.245 71.5641 102.422ZM72.8054 98.3796L73.0955 98.6787L71.9139 99.897L71.6238 99.5978L72.8054 98.3796ZM73.5112 96.1616L73.775 96.4336L72.7252 97.5159L72.4615 97.2439L73.5112 96.1616ZM72.2821 96.4281L72.5934 96.1072L74.524 98.0978C74.6119 98.1884 74.6906 98.2433 74.7601 98.2623C74.8295 98.2795 74.8919 98.275 74.9473 98.2487C75.0027 98.2206 75.0533 98.183 75.099 98.1359C75.1333 98.1005 75.1596 98.0697 75.1781 98.0434C75.1957 98.0162 75.2098 97.9945 75.2203 97.9781L75.5632 98.2011C75.55 98.231 75.5284 98.2696 75.4986 98.3167C75.4695 98.3647 75.426 98.4187 75.368 98.4785C75.2801 98.5691 75.175 98.6385 75.0528 98.6865C74.9315 98.7337 74.8045 98.7459 74.6717 98.7232C74.5398 98.6997 74.415 98.6271 74.2972 98.5057L72.2821 96.4281ZM76.4533 95.5974L75.2559 94.3628L75.5671 94.0419L77.5927 96.1304L77.2815 96.4512L76.9386 96.0977L76.9175 96.1195C76.9729 96.2745 76.9865 96.4408 76.9584 96.6185C76.9294 96.7952 76.8384 96.9625 76.6854 97.1202C76.5588 97.2507 76.4186 97.3382 76.2647 97.3826C76.11 97.4261 75.9482 97.4189 75.7795 97.3609C75.6098 97.3019 75.4388 97.1836 75.2665 97.006L73.9794 95.6789L74.2906 95.3581L75.5566 96.6633C75.7043 96.8156 75.8634 96.8945 76.034 96.8999C76.2054 96.9045 76.3557 96.8401 76.485 96.7069C76.5623 96.6271 76.6212 96.5256 76.6617 96.4023C76.703 96.2781 76.71 96.1458 76.6828 96.0053C76.6564 95.8639 76.5799 95.7279 76.4533 95.5974ZM78.1627 95.5426L76.1372 93.4542L76.4378 93.1442L76.7438 93.4596L76.7649 93.4379C76.7016 93.2965 76.6871 93.1437 76.7214 92.9797C76.7556 92.8156 76.8335 92.671 76.9548 92.5459C76.9776 92.5224 77.0066 92.4934 77.0418 92.4589C77.077 92.4245 77.1042 92.3991 77.1236 92.3828L77.4401 92.7091C77.4269 92.7173 77.3988 92.7381 77.3557 92.7716C77.3126 92.8034 77.2704 92.8405 77.2291 92.8831C77.1306 92.9847 77.0634 93.0966 77.0273 93.219C76.9913 93.3395 76.9869 93.4601 77.0141 93.5806C77.0414 93.6994 77.1007 93.8059 77.1922 93.9002L78.474 95.2218L78.1627 95.5426ZM79.5867 94.0745L76.8859 91.29L77.1971 90.9691L78.1941 91.997L78.2204 91.9698C78.2081 91.91 78.1949 91.8311 78.1809 91.7332C78.1668 91.6335 78.1765 91.522 78.2099 91.3987C78.2433 91.2736 78.3259 91.1431 78.4578 91.0071C78.6284 90.8313 78.8213 90.7203 79.0367 90.674C79.2521 90.6278 79.4746 90.6477 79.704 90.7339C79.9335 90.82 80.1546 90.9727 80.3674 91.1921C80.5819 91.4132 80.7313 91.6426 80.8157 91.8801C80.8992 92.1166 80.9195 92.346 80.8764 92.568C80.8324 92.7892 80.7261 92.9868 80.5573 93.1609C80.4271 93.295 80.3014 93.3802 80.1801 93.4165C80.0579 93.4518 79.948 93.4627 79.8504 93.4491C79.7519 93.4346 79.6728 93.4201 79.613 93.4056L79.5761 93.4437L79.8873 93.7645L79.5867 94.0745ZM78.8798 92.7149C79.0328 92.8726 79.1902 92.9886 79.3519 93.063C79.5128 93.1364 79.6693 93.1627 79.8214 93.1418C79.9726 93.1201 80.1106 93.0448 80.2355 92.9161C80.3656 92.782 80.4399 92.6347 80.4583 92.4742C80.4768 92.312 80.4496 92.1479 80.3766 91.982C80.3036 91.8143 80.195 91.6562 80.0509 91.5075C79.9084 91.3607 79.7581 91.251 79.5998 91.1785C79.4416 91.1041 79.2851 91.0779 79.1304 91.0996C78.9756 91.1195 78.8323 91.1975 78.7005 91.3335C78.5739 91.464 78.4996 91.6068 78.4776 91.7618C78.4547 91.9159 78.4785 92.0745 78.5488 92.2376C78.6183 92.3999 78.7286 92.559 78.8798 92.7149ZM82.716 90.9351C82.5332 91.1236 82.3292 91.2442 82.1041 91.2968C81.88 91.3484 81.6509 91.3335 81.4171 91.2519C81.1841 91.1694 80.963 91.0203 80.7537 90.8046C80.5427 90.587 80.3968 90.3577 80.3159 90.1166C80.2359 89.8745 80.221 89.638 80.2711 89.4068C80.3221 89.1748 80.439 88.9645 80.6219 88.7759C80.8047 88.5874 81.0083 88.4673 81.2325 88.4156C81.4575 88.3631 81.687 88.3785 81.9208 88.4619C82.1556 88.5443 82.3784 88.6944 82.5894 88.9119C82.7987 89.1276 82.9429 89.3561 83.022 89.5972C83.102 89.8374 83.1165 90.0735 83.0655 90.3056C83.0154 90.5367 82.8989 90.7465 82.716 90.9351ZM82.4365 90.6468C82.5754 90.5036 82.6541 90.3491 82.6725 90.1832C82.691 90.0173 82.6637 89.8523 82.5908 89.6883C82.5178 89.5242 82.4136 89.3724 82.2782 89.2328C82.1428 89.0932 81.9951 88.9853 81.8351 88.9092C81.6751 88.833 81.5142 88.804 81.3525 88.8222C81.1907 88.8403 81.0404 88.921 80.9014 89.0642C80.7625 89.2074 80.6843 89.3624 80.6667 89.5292C80.6491 89.696 80.6773 89.8619 80.7511 90.0268C80.825 90.1918 80.9296 90.3441 81.065 90.4837C81.2004 90.6233 81.3476 90.7307 81.5067 90.8059C81.6659 90.8812 81.8259 90.9093 81.9868 90.8902C82.1477 90.8712 82.2976 90.7901 82.4365 90.6468Z" fill="#262626"/>
<mask id="mask2_4200_6745" style="mask-type:luminance" maskUnits="userSpaceOnUse" x="23" y="11" width="198" height="75">
<path d="M220.771 11.2413H23.7039V85.8467H220.771V11.2413Z" fill="white"/>
</mask>
<g mask="url(#mask2_4200_6745)">
<path d="M122.237 85.8467V11.2413" stroke="#CCCCCC" stroke-width="0.444491" stroke-linecap="round"/>
</g>
<path d="M110.157 103.086C110.007 103.241 109.858 103.355 109.712 103.426C109.566 103.499 109.425 103.54 109.291 103.55C109.158 103.56 109.036 103.55 108.923 103.521L108.997 103.086C109.062 103.095 109.14 103.102 109.23 103.107C109.322 103.112 109.422 103.094 109.532 103.054C109.644 103.013 109.761 102.929 109.883 102.803C110.047 102.635 110.142 102.455 110.169 102.264C110.196 102.072 110.126 101.89 109.957 101.716L109.545 101.292L109.519 101.319C109.533 101.38 109.546 101.461 109.559 101.561C109.571 101.659 109.559 101.77 109.523 101.894C109.487 102.016 109.403 102.145 109.271 102.281C109.108 102.45 108.922 102.561 108.715 102.616C108.508 102.669 108.293 102.659 108.07 102.585C107.847 102.509 107.631 102.363 107.42 102.145C107.212 101.931 107.068 101.708 106.987 101.474C106.905 101.239 106.887 101.011 106.933 100.79C106.978 100.568 107.086 100.369 107.256 100.193C107.388 100.057 107.515 99.9717 107.636 99.9373C107.757 99.901 107.866 99.8901 107.963 99.9046C108.06 99.9173 108.137 99.93 108.195 99.9427L108.227 99.9101L107.905 99.5783L108.206 99.2683L110.289 101.417C110.463 101.596 110.565 101.783 110.595 101.977C110.627 102.171 110.602 102.362 110.52 102.552C110.44 102.741 110.319 102.919 110.157 103.086ZM109.034 101.95C109.159 101.821 109.236 101.683 109.265 101.535C109.294 101.387 109.277 101.235 109.214 101.078C109.152 100.921 109.046 100.766 108.897 100.612C108.751 100.461 108.6 100.351 108.444 100.281C108.289 100.211 108.136 100.188 107.987 100.212C107.837 100.235 107.699 100.313 107.573 100.443C107.441 100.579 107.364 100.727 107.343 100.886C107.323 101.045 107.347 101.205 107.416 101.366C107.485 101.527 107.588 101.678 107.726 101.819C107.866 101.964 108.013 102.07 108.165 102.136C108.317 102.2 108.467 102.219 108.616 102.193C108.764 102.165 108.904 102.084 109.034 101.95ZM111.56 101.553L108.775 98.681L109.076 98.3709L109.398 98.7027L109.435 98.6646C109.422 98.6048 109.409 98.5259 109.395 98.4281C109.381 98.3283 109.391 98.2169 109.424 98.0936C109.458 97.9685 109.54 97.838 109.672 97.702C109.843 97.5261 110.036 97.4151 110.251 97.3689C110.466 97.3226 110.689 97.3426 110.918 97.4287C111.148 97.5148 111.369 97.6675 111.582 97.8869C111.796 98.1081 111.946 98.3374 112.03 98.5749C112.113 98.8115 112.134 99.0408 112.091 99.2629C112.047 99.4841 111.94 99.6817 111.771 99.8557C111.641 99.9899 111.516 100.075 111.394 100.111C111.272 100.147 111.162 100.158 111.065 100.144C110.966 100.129 110.887 100.115 110.827 100.1L110.801 100.128L111.872 101.232L111.56 101.553ZM110.094 99.4097C110.247 99.5674 110.404 99.6835 110.566 99.7578C110.727 99.8312 110.884 99.8575 111.036 99.8367C111.187 99.8149 111.325 99.7397 111.45 99.611C111.58 99.4768 111.654 99.3295 111.673 99.1691C111.691 99.0068 111.664 98.8427 111.591 98.6769C111.518 98.5092 111.409 98.351 111.265 98.2023C111.123 98.0555 110.972 97.9458 110.814 97.8733C110.656 97.799 110.499 97.7727 110.345 97.7945C110.19 97.8144 110.047 97.8923 109.915 98.0283C109.788 98.1588 109.714 98.3016 109.692 98.4566C109.669 98.6107 109.693 98.7693 109.763 98.9325C109.832 99.0947 109.943 99.2538 110.094 99.4097ZM111.919 95.4395L112.183 95.7114L111.133 96.7937L110.869 96.5218L111.919 95.4395ZM110.69 95.706L111.001 95.3851L112.932 97.3757C113.02 97.4663 113.099 97.5212 113.168 97.5402C113.237 97.5574 113.3 97.5529 113.355 97.5266C113.411 97.4985 113.461 97.4609 113.507 97.4137C113.541 97.3784 113.568 97.3476 113.586 97.3213C113.604 97.2941 113.618 97.2723 113.628 97.256L113.971 97.479C113.958 97.5089 113.936 97.5474 113.907 97.5946C113.878 97.6426 113.834 97.6966 113.776 97.7564C113.688 97.847 113.583 97.9164 113.461 97.9644C113.339 98.0115 113.212 98.0238 113.08 98.0011C112.948 97.9776 112.823 97.905 112.705 97.7836L110.69 95.706ZM114.198 94.5802L114.488 94.8793L113.307 96.0976L113.016 95.7985L114.198 94.5802ZM115.426 94.8586L115.157 94.5812L114.466 91.4214L114.661 91.2201L115.078 91.6498L114.946 91.7858L115.468 94.1733L115.489 94.1951L117.088 92.5472L117.378 92.8463L115.426 94.8586ZM117.251 94.1189L116.616 93.4636L116.49 93.3344L114.55 91.3344L114.862 91.0135L117.562 93.7981L117.251 94.1189ZM118.552 92.8211C118.487 92.8882 118.408 92.9218 118.315 92.9218C118.222 92.9218 118.142 92.8882 118.077 92.8211C118.012 92.7541 117.98 92.6725 117.98 92.5764C117.98 92.4803 118.012 92.3987 118.077 92.3317C118.142 92.2646 118.222 92.2311 118.315 92.2311C118.408 92.2311 118.487 92.2646 118.552 92.3317C118.595 92.3761 118.624 92.4282 118.638 92.488C118.653 92.5469 118.653 92.6063 118.639 92.6661C118.625 92.7242 118.596 92.7758 118.552 92.8211ZM117.248 88.5535L119.948 91.3381L119.621 91.6753L117.263 89.2442L117.248 89.2605L117.026 90.3918L116.694 90.0491L116.921 88.8907L117.248 88.5535Z" fill="#262626"/>
<mask id="mask3_4200_6745" style="mask-type:luminance" maskUnits="userSpaceOnUse" x="23" y="11" width="198" height="75">
<path d="M220.771 11.2413H23.7039V85.8467H220.771V11.2413Z" fill="white"/>
</mask>
<g mask="url(#mask3_4200_6745)">
<path d="M159.954 85.8467V11.2413" stroke="#CCCCCC" stroke-width="0.444491" stroke-linecap="round"/>
</g>
<path d="M148.984 101.942C148.833 102.097 148.685 102.21 148.538 102.282C148.392 102.354 148.252 102.395 148.117 102.405C147.984 102.415 147.862 102.406 147.749 102.377L147.823 101.942C147.888 101.951 147.966 101.958 148.056 101.962C148.148 101.968 148.249 101.95 148.358 101.909C148.47 101.868 148.587 101.785 148.709 101.659C148.873 101.49 148.968 101.31 148.995 101.119C149.023 100.928 148.952 100.745 148.783 100.571L148.372 100.147L148.345 100.174C148.359 100.236 148.373 100.316 148.385 100.416C148.397 100.514 148.385 100.625 148.349 100.749C148.313 100.872 148.229 101.001 148.097 101.137C147.934 101.305 147.748 101.417 147.541 101.471C147.334 101.525 147.119 101.514 146.896 101.44C146.674 101.365 146.457 101.218 146.246 101.001C146.038 100.787 145.894 100.563 145.813 100.329C145.732 100.094 145.713 99.8664 145.759 99.6453C145.804 99.4232 145.912 99.2242 146.082 99.0484C146.214 98.9124 146.341 98.8272 146.462 98.7927C146.583 98.7565 146.692 98.7456 146.789 98.7601C146.886 98.7728 146.963 98.7855 147.021 98.7982L147.053 98.7656L146.731 98.4338L147.032 98.1238L149.115 100.272C149.289 100.452 149.391 100.638 149.421 100.832C149.453 101.026 149.428 101.218 149.346 101.407C149.266 101.597 149.145 101.775 148.984 101.942ZM147.86 100.805C147.985 100.676 148.062 100.538 148.091 100.39C148.12 100.243 148.103 100.09 148.041 99.9335C147.978 99.7767 147.872 99.6212 147.723 99.4671C147.577 99.3167 147.426 99.2065 147.27 99.1367C147.115 99.0669 146.962 99.0438 146.813 99.0674C146.663 99.091 146.525 99.168 146.399 99.2985C146.267 99.4345 146.19 99.5823 146.169 99.7418C146.149 99.9004 146.173 100.06 146.242 100.222C146.311 100.382 146.415 100.533 146.552 100.675C146.692 100.82 146.839 100.925 146.991 100.991C147.143 101.056 147.293 101.075 147.442 101.048C147.59 101.02 147.73 100.939 147.86 100.805ZM150.387 100.408L147.601 97.5364L147.902 97.2264L148.224 97.5582L148.261 97.5201C148.249 97.4603 148.235 97.3814 148.221 97.2835C148.207 97.1838 148.217 97.0723 148.25 96.949C148.284 96.824 148.366 96.6934 148.498 96.5575C148.669 96.3816 148.862 96.2706 149.077 96.2243C149.293 96.1781 149.515 96.1981 149.744 96.2842C149.974 96.3703 150.195 96.523 150.408 96.7424C150.622 96.9635 150.772 97.1929 150.856 97.4304C150.94 97.6669 150.96 97.8963 150.917 98.1184C150.873 98.3395 150.766 98.5371 150.598 98.7112C150.468 98.8453 150.342 98.9305 150.221 98.9668C150.098 99.0021 149.988 99.013 149.891 98.9994C149.792 98.9849 149.713 98.9704 149.653 98.9559L149.627 98.9831L150.698 100.087L150.387 100.408ZM148.92 98.2652C149.073 98.4229 149.231 98.5389 149.392 98.6133C149.553 98.6867 149.71 98.713 149.862 98.6921C150.013 98.6704 150.151 98.5951 150.276 98.4664C150.406 98.3323 150.48 98.185 150.499 98.0245C150.517 97.8623 150.49 97.6982 150.417 97.5323C150.344 97.3646 150.235 97.2065 150.091 97.0578C149.949 96.911 149.799 96.8013 149.64 96.7288C149.482 96.6545 149.326 96.6282 149.171 96.6499C149.016 96.6699 148.873 96.7478 148.741 96.8838C148.614 97.0143 148.54 97.1571 148.518 97.3121C148.495 97.4662 148.519 97.6248 148.589 97.788C148.659 97.9502 148.769 98.1093 148.92 98.2652ZM150.745 94.295L151.009 94.5669L149.959 95.6492L149.696 95.3773L150.745 94.295ZM149.516 94.5615L149.828 94.2406L151.758 96.2311C151.846 96.3218 151.925 96.3766 151.994 96.3957C152.064 96.4129 152.126 96.4084 152.181 96.3821C152.237 96.354 152.287 96.3163 152.333 96.2692C152.367 96.2339 152.394 96.203 152.412 96.1768C152.43 96.1496 152.444 96.1278 152.454 96.1115L152.797 96.3345C152.784 96.3644 152.763 96.4029 152.733 96.45C152.704 96.4981 152.66 96.552 152.602 96.6118C152.514 96.7025 152.409 96.7718 152.287 96.8199C152.166 96.867 152.039 96.8792 151.906 96.8566C151.774 96.833 151.649 96.7605 151.531 96.639L149.516 94.5615ZM153.024 93.4357L153.314 93.7348L152.133 94.9531L151.843 94.6539L153.024 93.4357ZM154.252 93.7141L153.983 93.4367L153.292 90.2768L153.487 90.0756L153.904 90.5053L153.772 90.6412L154.294 93.0288L154.316 93.0506L155.914 91.4026L156.204 91.7018L154.252 93.7141ZM156.077 92.9744L155.442 92.3191L155.316 92.1899L153.377 90.1898L153.688 89.8689L156.389 92.6535L156.077 92.9744ZM158.122 90.9529C157.94 91.1415 157.736 91.262 157.511 91.3146C157.286 91.3663 157.057 91.3513 156.823 91.2697C156.59 91.1872 156.369 91.0381 156.16 90.8224C155.949 90.6049 155.803 90.3755 155.722 90.1344C155.642 89.8924 155.627 89.6558 155.677 89.4247C155.728 89.1926 155.845 88.9823 156.028 88.7938C156.211 88.6053 156.415 88.4851 156.639 88.4335C156.864 88.3809 157.093 88.3963 157.327 88.4797C157.562 88.5622 157.785 88.7122 157.996 88.9298C158.205 89.1455 158.349 89.3739 158.428 89.615C158.508 89.8552 158.523 90.0914 158.472 90.3234C158.422 90.5546 158.305 90.7644 158.122 90.9529ZM157.843 90.6647C157.982 90.5215 158.06 90.3669 158.079 90.201C158.097 90.0352 158.07 89.8702 157.997 89.7061C157.924 89.5421 157.82 89.3902 157.685 89.2506C157.549 89.111 157.401 89.0032 157.241 88.927C157.081 88.8509 156.921 88.8219 156.759 88.84C156.597 88.8581 156.447 88.9388 156.308 89.082C156.169 89.2253 156.091 89.3803 156.073 89.547C156.055 89.7138 156.084 89.8797 156.157 90.0447C156.231 90.2097 156.336 90.3619 156.471 90.5015C156.607 90.6411 156.754 90.7485 156.913 90.8238C157.072 90.899 157.232 90.9271 157.393 90.9081C157.554 90.889 157.704 90.8079 157.843 90.6647Z" fill="#262626"/>
<mask id="mask4_4200_6745" style="mask-type:luminance" maskUnits="userSpaceOnUse" x="23" y="11" width="198" height="75">
<path d="M220.771 11.2413H23.7039V85.8467H220.771V11.2413Z" fill="white"/>
</mask>
<g mask="url(#mask4_4200_6745)">
<path d="M197.669 85.8467V11.2413" stroke="#CCCCCC" stroke-width="0.444491" stroke-linecap="round"/>
</g>
<path d="M177.081 111.868C176.931 112.023 176.782 112.136 176.635 112.208C176.489 112.28 176.349 112.321 176.215 112.331C176.082 112.341 175.959 112.332 175.847 112.303L175.92 111.868C175.985 111.877 176.063 111.884 176.154 111.888C176.245 111.894 176.346 111.876 176.456 111.835C176.568 111.794 176.684 111.711 176.807 111.585C176.97 111.416 177.066 111.236 177.093 111.045C177.12 110.854 177.049 110.671 176.88 110.497L176.469 110.073L176.443 110.1C176.457 110.162 176.47 110.242 176.482 110.342C176.495 110.44 176.483 110.551 176.447 110.675C176.411 110.798 176.327 110.927 176.195 111.063C176.031 111.231 175.846 111.343 175.638 111.397C175.432 111.451 175.217 111.44 174.993 111.366C174.771 111.291 174.554 111.144 174.343 110.927C174.136 110.713 173.992 110.489 173.911 110.255C173.829 110.02 173.811 109.792 173.857 109.571C173.901 109.349 174.009 109.15 174.18 108.974C174.312 108.838 174.438 108.753 174.559 108.719C174.681 108.682 174.79 108.672 174.887 108.686C174.983 108.699 175.061 108.711 175.119 108.724L175.15 108.692L174.829 108.36L175.129 108.05L177.213 110.198C177.387 110.377 177.489 110.564 177.519 110.758C177.55 110.952 177.525 111.144 177.444 111.333C177.364 111.523 177.243 111.701 177.081 111.868ZM175.957 110.731C176.082 110.602 176.159 110.464 176.188 110.316C176.217 110.169 176.2 110.016 176.138 109.859C176.076 109.703 175.97 109.547 175.82 109.393C175.674 109.243 175.523 109.133 175.368 109.063C175.212 108.993 175.06 108.97 174.91 108.993C174.761 109.017 174.623 109.094 174.496 109.225C174.364 109.36 174.288 109.508 174.267 109.668C174.247 109.826 174.271 109.986 174.339 110.148C174.409 110.308 174.512 110.459 174.649 110.6C174.79 110.746 174.936 110.851 175.088 110.917C175.24 110.982 175.391 111.001 175.539 110.974C175.688 110.946 175.827 110.865 175.957 110.731ZM178.484 110.334L175.699 107.462L176 107.152L176.321 107.484L176.358 107.446C176.346 107.386 176.333 107.307 176.319 107.209C176.305 107.11 176.314 106.998 176.348 106.875C176.381 106.75 176.464 106.619 176.596 106.483C176.766 106.308 176.959 106.197 177.175 106.15C177.39 106.104 177.612 106.124 177.842 106.21C178.071 106.296 178.292 106.449 178.505 106.668C178.72 106.89 178.869 107.119 178.954 107.356C179.037 107.593 179.057 107.822 179.014 108.044C178.97 108.265 178.864 108.463 178.695 108.637C178.565 108.771 178.439 108.856 178.318 108.893C178.196 108.928 178.086 108.939 177.988 108.925C177.89 108.911 177.811 108.896 177.751 108.882L177.724 108.909L178.795 110.013L178.484 110.334ZM177.018 108.191C177.171 108.349 177.328 108.465 177.49 108.539C177.651 108.613 177.807 108.639 177.959 108.618C178.11 108.596 178.248 108.521 178.373 108.392C178.503 108.258 178.578 108.111 178.596 107.951C178.615 107.788 178.587 107.624 178.514 107.458C178.441 107.291 178.333 107.132 178.189 106.984C178.046 106.837 177.896 106.727 177.738 106.655C177.579 106.58 177.423 106.554 177.268 106.576C177.113 106.596 176.97 106.674 176.838 106.81C176.712 106.94 176.637 107.083 176.615 107.238C176.593 107.392 176.616 107.551 176.687 107.714C176.756 107.876 176.866 108.035 177.018 108.191ZM178.843 104.221L179.107 104.493L178.057 105.575L177.793 105.303L178.843 104.221ZM177.614 104.487L177.925 104.167L179.856 106.157C179.943 106.248 180.022 106.303 180.092 106.322C180.161 106.339 180.223 106.334 180.279 106.308C180.334 106.28 180.385 106.242 180.431 106.195C180.465 106.16 180.491 106.129 180.51 106.103C180.527 106.076 180.541 106.054 180.552 106.037L180.895 106.26C180.882 106.29 180.86 106.329 180.83 106.376C180.801 106.424 180.758 106.478 180.7 106.538C180.612 106.628 180.507 106.698 180.384 106.746C180.263 106.793 180.136 106.805 180.003 106.783C179.871 106.759 179.747 106.686 179.629 106.565L177.614 104.487ZM181.122 103.362L181.412 103.661L180.23 104.879L179.94 104.58L181.122 103.362ZM182.35 103.64L182.081 103.363L181.39 100.203L181.585 100.002L182.001 100.431L181.87 100.567L182.392 102.955L182.413 102.977L184.011 101.329L184.301 101.628L182.35 103.64ZM184.175 102.9L183.539 102.245L183.414 102.116L181.474 100.116L181.785 99.7949L184.486 102.579L184.175 102.9ZM186.22 100.879C186.037 101.067 185.833 101.188 185.608 101.241C185.384 101.292 185.155 101.277 184.921 101.196C184.688 101.113 184.467 100.964 184.258 100.748C184.047 100.531 183.901 100.301 183.82 100.06C183.74 99.8184 183.725 99.5818 183.775 99.3506C183.826 99.1186 183.943 98.9083 184.126 98.7198C184.309 98.5312 184.512 98.4111 184.736 98.3594C184.961 98.3069 185.191 98.3223 185.425 98.4057C185.659 98.4882 185.882 98.6382 186.093 98.8557C186.302 99.0715 186.447 99.2999 186.526 99.541C186.606 99.7812 186.62 100.017 186.569 100.249C186.519 100.481 186.403 100.69 186.22 100.879ZM185.94 100.591C186.079 100.447 186.158 100.293 186.176 100.127C186.195 99.9611 186.168 99.7962 186.095 99.6321C186.022 99.468 185.917 99.3162 185.782 99.1766C185.647 99.037 185.499 98.9291 185.339 98.853C185.179 98.7769 185.018 98.7479 184.856 98.766C184.694 98.7841 184.544 98.8648 184.405 99.008C184.266 99.1512 184.188 99.3062 184.17 99.473C184.153 99.6398 184.181 99.8057 184.255 99.9706C184.329 100.136 184.433 100.288 184.569 100.427C184.704 100.567 184.851 100.674 185.011 100.75C185.17 100.825 185.33 100.853 185.491 100.834C185.651 100.815 185.801 100.734 185.94 100.591ZM187.428 96.8594L187.718 97.1585L186.537 98.3768L186.247 98.0777L187.428 96.8594ZM189.279 97.6381L187.253 95.5497L187.554 95.2397L187.87 95.566L187.897 95.5388C187.831 95.3838 187.815 95.227 187.849 95.0684C187.883 94.9088 187.965 94.7611 188.097 94.6251C188.231 94.4874 188.372 94.404 188.522 94.375C188.671 94.3441 188.825 94.3586 188.983 94.4185L189.004 94.3967C188.952 94.2354 188.946 94.0695 188.989 93.8991C189.03 93.7278 189.123 93.5673 189.268 93.4178C189.449 93.231 189.654 93.1368 189.883 93.1349C190.11 93.1322 190.343 93.2537 190.582 93.4993L191.937 94.8971L191.626 95.2179L190.27 93.8202C190.121 93.6661 189.973 93.5981 189.827 93.6163C189.681 93.6344 189.553 93.7006 189.442 93.8148C189.3 93.9616 189.232 94.1198 189.24 94.2893C189.247 94.4579 189.316 94.6097 189.447 94.7448L190.766 96.1044L190.45 96.4308L189.062 95.0004C188.947 94.8817 188.817 94.8245 188.672 94.8291C188.526 94.8327 188.394 94.8953 188.276 95.0167C188.196 95.1001 188.141 95.2003 188.114 95.3172C188.088 95.4332 188.091 95.5529 188.125 95.6762C188.158 95.7976 188.225 95.9096 188.324 96.012L189.59 97.3173L189.279 97.6381ZM192.506 94.3104L190.481 92.2219L190.792 91.901L192.817 93.9895L192.506 94.3104ZM190.301 91.7107C190.241 91.7732 190.168 91.8059 190.082 91.8086C189.998 91.8104 189.927 91.7814 189.869 91.7216C189.811 91.6617 189.783 91.5883 189.784 91.5013C189.787 91.4134 189.819 91.3381 189.879 91.2756C189.94 91.2131 190.013 91.1809 190.097 91.1791C190.182 91.1763 190.254 91.2049 190.312 91.2647C190.37 91.3246 190.398 91.3984 190.395 91.4864C190.393 91.5734 190.362 91.6482 190.301 91.7107ZM192.48 91.8246L193.699 93.0809L193.388 93.4018L191.362 91.3133L191.663 91.0033L191.979 91.3297L192.005 91.3025C191.95 91.1475 191.94 90.9879 191.974 90.8239C192.007 90.6589 192.1 90.4975 192.253 90.3398C192.391 90.1984 192.539 90.1037 192.698 90.0556C192.856 90.0067 193.02 90.0112 193.191 90.0692C193.361 90.1263 193.532 90.2437 193.704 90.4214L194.991 91.7484L194.68 92.0693L193.414 90.764C193.255 90.6 193.089 90.5148 192.918 90.5084C192.746 90.5012 192.587 90.5719 192.443 90.7205C192.344 90.8229 192.277 90.9367 192.242 91.0618C192.207 91.186 192.209 91.3138 192.247 91.4452C192.285 91.5767 192.362 91.7031 192.48 91.8246ZM195.56 91.1621L193.534 89.0736L193.845 88.7528L195.871 90.8412L195.56 91.1621ZM193.355 88.5624C193.294 88.6249 193.221 88.6576 193.136 88.6603C193.052 88.6621 192.98 88.6331 192.922 88.5733C192.864 88.5134 192.836 88.44 192.838 88.353C192.841 88.2651 192.872 88.1899 192.933 88.1273C192.994 88.0648 193.066 88.0326 193.15 88.0308C193.236 88.0281 193.307 88.0566 193.365 88.1164C193.423 88.1763 193.451 88.2501 193.449 88.3381C193.447 88.4251 193.416 88.4999 193.355 88.5624Z" fill="#262626"/>
<mask id="mask5_4200_6745" style="mask-type:luminance" maskUnits="userSpaceOnUse" x="23" y="11" width="198" height="75">
<path d="M220.771 11.2413H23.7041V85.8467H220.771V11.2413Z" fill="white"/>
</mask>
<g mask="url(#mask5_4200_6745)">
<path d="M23.7041 85.8467H220.771" stroke="#CCCCCC" stroke-width="0.444491" stroke-linecap="round"/>
</g>
<path d="M13.0495 87.5984C12.7641 87.5984 12.521 87.5208 12.3202 87.3655C12.1195 87.2089 11.966 86.9822 11.86 86.6855C11.7539 86.3875 11.7009 86.0276 11.7009 85.6058C11.7009 85.1866 11.7539 84.8286 11.86 84.5318C11.9673 84.2338 12.1214 84.0065 12.3221 83.8499C12.5242 83.6921 12.7666 83.6132 13.0495 83.6132C13.3323 83.6132 13.5742 83.6921 13.7749 83.8499C13.977 84.0065 14.131 84.2338 14.2371 84.5318C14.3444 84.8286 14.3981 85.1866 14.3981 85.6058C14.3981 86.0276 14.3451 86.3875 14.239 86.6855C14.1329 86.9822 13.9795 87.2089 13.7787 87.3655C13.578 87.5208 13.3349 87.5984 13.0495 87.5984ZM13.0495 87.1817C13.3323 87.1817 13.5521 87.0454 13.7086 86.7726C13.8652 86.4998 13.9435 86.1109 13.9435 85.6058C13.9435 85.2699 13.9075 84.9839 13.8356 84.7478C13.7648 84.5116 13.6626 84.3317 13.5287 84.2079C13.3961 84.0842 13.2364 84.0223 13.0495 84.0223C12.7692 84.0223 12.5501 84.1606 12.3922 84.4371C12.2344 84.7124 12.1555 85.102 12.1555 85.6058C12.1555 85.9417 12.1908 86.2271 12.2615 86.462C12.3322 86.6968 12.4339 86.8755 12.5665 86.998C12.7003 87.1205 12.8613 87.1817 13.0495 87.1817ZM15.3158 87.5757C15.2224 87.5757 15.1422 87.5423 15.0753 87.4753C15.0083 87.4084 14.9749 87.3282 14.9749 87.2348C14.9749 87.1413 15.0083 87.0611 15.0753 86.9942C15.1422 86.9273 15.2224 86.8938 15.3158 86.8938C15.4093 86.8938 15.4895 86.9273 15.5564 86.9942C15.6233 87.0611 15.6568 87.1413 15.6568 87.2348C15.6568 87.2966 15.641 87.3535 15.6094 87.4052C15.5791 87.457 15.5381 87.4987 15.4863 87.5303C15.4358 87.5606 15.379 87.5757 15.3158 87.5757ZM17.5812 87.5984C17.2958 87.5984 17.0527 87.5208 16.852 87.3655C16.6512 87.2089 16.4978 86.9822 16.3917 86.6855C16.2856 86.3875 16.2326 86.0276 16.2326 85.6058C16.2326 85.1866 16.2856 84.8286 16.3917 84.5318C16.499 84.2338 16.6531 84.0065 16.8539 83.8499C17.0559 83.6921 17.2984 83.6132 17.5812 83.6132C17.8641 83.6132 18.1059 83.6921 18.3067 83.8499C18.5087 84.0065 18.6628 84.2338 18.7688 84.5318C18.8762 84.8286 18.9298 85.1866 18.9298 85.6058C18.9298 86.0276 18.8768 86.3875 18.7707 86.6855C18.6647 86.9822 18.5112 87.2089 18.3105 87.3655C18.1097 87.5208 17.8666 87.5984 17.5812 87.5984ZM17.5812 87.1817C17.8641 87.1817 18.0838 87.0454 18.2404 86.7726C18.397 86.4998 18.4752 86.1109 18.4752 85.6058C18.4752 85.2699 18.4393 84.9839 18.3673 84.7478C18.2966 84.5116 18.1943 84.3317 18.0604 84.2079C17.9278 84.0842 17.7681 84.0223 17.5812 84.0223C17.3009 84.0223 17.0818 84.1606 16.9239 84.4371C16.7661 84.7124 16.6872 85.102 16.6872 85.6058C16.6872 85.9417 16.7225 86.2271 16.7933 86.462C16.864 86.6968 16.9656 86.8755 17.0982 86.998C17.2321 87.1205 17.3931 87.1817 17.5812 87.1817ZM20.9149 87.5984C20.6295 87.5984 20.3864 87.5208 20.1857 87.3655C19.9849 87.2089 19.8315 86.9822 19.7254 86.6855C19.6193 86.3875 19.5663 86.0276 19.5663 85.6058C19.5663 85.1866 19.6193 84.8286 19.7254 84.5318C19.8327 84.2338 19.9868 84.0065 20.1875 83.8499C20.3896 83.6921 20.632 83.6132 20.9149 83.6132C21.1978 83.6132 21.4396 83.6921 21.6404 83.8499C21.8424 84.0065 21.9965 84.2338 22.1025 84.5318C22.2099 84.8286 22.2635 85.1866 22.2635 85.6058C22.2635 86.0276 22.2105 86.3875 22.1044 86.6855C21.9983 86.9822 21.8449 87.2089 21.6441 87.3655C21.4434 87.5208 21.2003 87.5984 20.9149 87.5984ZM20.9149 87.1817C21.1978 87.1817 21.4175 87.0454 21.5741 86.7726C21.7306 86.4998 21.8089 86.1109 21.8089 85.6058C21.8089 85.2699 21.7729 84.9839 21.701 84.7478C21.6303 84.5116 21.528 84.3317 21.3941 84.2079C21.2615 84.0842 21.1018 84.0223 20.9149 84.0223C20.6346 84.0223 20.4155 84.1606 20.2576 84.4371C20.0998 84.7124 20.0209 85.102 20.0209 85.6058C20.0209 85.9417 20.0562 86.2271 20.1269 86.462C20.1977 86.6968 20.2993 86.8755 20.4319 86.998C20.5657 87.1205 20.7267 87.1817 20.9149 87.1817Z" fill="#262626"/>
<mask id="mask6_4200_6745" style="mask-type:luminance" maskUnits="userSpaceOnUse" x="23" y="11" width="198" height="75">
<path d="M220.771 11.2413H23.7041V85.8467H220.771V11.2413Z" fill="white"/>
</mask>
<g mask="url(#mask6_4200_6745)">
<path d="M23.7041 68.0834H220.771" stroke="#CCCCCC" stroke-width="0.444491" stroke-linecap="round"/>
</g>
<path d="M13.1068 69.8351C12.8214 69.8351 12.5783 69.7575 12.3775 69.6022C12.1768 69.4456 12.0233 69.2189 11.9173 68.9222C11.8112 68.6242 11.7582 68.2643 11.7582 67.8425C11.7582 67.4233 11.8112 67.0653 11.9173 66.7685C12.0246 66.4705 12.1787 66.2432 12.3794 66.0866C12.5815 65.9288 12.8239 65.8499 13.1068 65.8499C13.3896 65.8499 13.6315 65.9288 13.8322 66.0866C14.0343 66.2432 14.1883 66.4705 14.2944 66.7685C14.4017 67.0653 14.4554 67.4233 14.4554 67.8425C14.4554 68.2643 14.4024 68.6242 14.2963 68.9222C14.1902 69.2189 14.0368 69.4456 13.836 69.6022C13.6352 69.7575 13.3922 69.8351 13.1068 69.8351ZM13.1068 69.4184C13.3896 69.4184 13.6094 69.2821 13.7659 69.0093C13.9225 68.7365 14.0008 68.3476 14.0008 67.8425C14.0008 67.5066 13.9648 67.2206 13.8929 66.9845C13.8221 66.7483 13.7199 66.5684 13.586 66.4446C13.4534 66.3209 13.2937 66.259 13.1068 66.259C12.8265 66.259 12.6074 66.3973 12.4495 66.6738C12.2917 66.9491 12.2128 67.3387 12.2128 67.8425C12.2128 68.1784 12.2481 68.4638 12.3188 68.6987C12.3895 68.9335 12.4912 69.1122 12.6238 69.2347C12.7576 69.3572 12.9186 69.4184 13.1068 69.4184ZM15.3731 69.8124C15.2797 69.8124 15.1995 69.7789 15.1326 69.712C15.0656 69.6451 15.0322 69.5649 15.0322 69.4715C15.0322 69.378 15.0656 69.2978 15.1326 69.2309C15.1995 69.164 15.2797 69.1305 15.3731 69.1305C15.4666 69.1305 15.5468 69.164 15.6137 69.2309C15.6806 69.2978 15.7141 69.378 15.7141 69.4715C15.7141 69.5333 15.6983 69.5902 15.6667 69.6419C15.6364 69.6937 15.5954 69.7354 15.5436 69.767C15.4931 69.7973 15.4363 69.8124 15.3731 69.8124ZM16.5087 69.7821V69.4412L17.7891 68.0395C17.9394 67.8753 18.0631 67.7326 18.1603 67.6114C18.2576 67.4889 18.3296 67.374 18.3763 67.2667C18.4243 67.1581 18.4483 67.0444 18.4483 66.9257C18.4483 66.7894 18.4154 66.6713 18.3498 66.5715C18.2854 66.4718 18.197 66.3948 18.0846 66.3405C17.9722 66.2862 17.8459 66.259 17.7058 66.259C17.5567 66.259 17.4267 66.2899 17.3156 66.3518C17.2057 66.4124 17.1205 66.4977 17.0599 66.6075C17.0005 66.7174 16.9708 66.8462 16.9708 66.9939H16.5238C16.5238 66.7666 16.5762 66.5671 16.681 66.3954C16.7858 66.2236 16.9285 66.0898 17.1091 65.9938C17.2909 65.8979 17.4949 65.8499 17.7209 65.8499C17.9482 65.8499 18.1496 65.8979 18.3251 65.9938C18.5007 66.0898 18.6383 66.2192 18.7381 66.3821C18.8378 66.545 18.8877 66.7262 18.8877 66.9257C18.8877 67.0684 18.8618 67.208 18.81 67.3443C18.7595 67.4795 18.6711 67.6304 18.5449 67.797C18.4198 67.9625 18.2462 68.1645 18.024 68.4032L17.1527 69.3351V69.3654H18.9559V69.7821H16.5087ZM20.9504 69.8351C20.7282 69.8351 20.528 69.7909 20.35 69.7026C20.1719 69.6142 20.0292 69.4929 19.9219 69.3389C19.8146 69.1848 19.7558 69.0093 19.7457 68.8123H20.2003C20.218 68.9878 20.2976 69.133 20.439 69.248C20.5817 69.3616 20.7522 69.4184 20.9504 69.4184C21.1095 69.4184 21.251 69.3812 21.3747 69.3067C21.4997 69.2322 21.5976 69.1299 21.6683 68.9998C21.7403 68.8685 21.7763 68.7201 21.7763 68.5547C21.7763 68.3855 21.739 68.2346 21.6645 68.102C21.5913 67.9682 21.4902 67.8627 21.3614 67.7857C21.2326 67.7087 21.0855 67.6695 20.9201 67.6682C20.8014 67.667 20.6796 67.6853 20.5545 67.7232C20.4295 67.7598 20.3266 67.8071 20.2458 67.8652L19.8064 67.8122L20.0412 65.9029H22.0566V66.3196H20.4352L20.2988 67.4637H20.3216C20.4011 67.4005 20.5009 67.3481 20.6208 67.3065C20.7408 67.2648 20.8658 67.244 20.9959 67.244C21.2333 67.244 21.4448 67.3008 21.6304 67.4144C21.8173 67.5268 21.9638 67.6809 22.0698 67.8766C22.1772 68.0723 22.2309 68.2958 22.2309 68.5471C22.2309 68.7946 22.1753 69.0156 22.0642 69.2101C21.9543 69.4033 21.8028 69.5561 21.6096 69.6685C21.4164 69.7796 21.1967 69.8351 20.9504 69.8351Z" fill="#262626"/>
<mask id="mask7_4200_6745" style="mask-type:luminance" maskUnits="userSpaceOnUse" x="23" y="11" width="198" height="75">
<path d="M220.771 11.2413H23.7041V85.8467H220.771V11.2413Z" fill="white"/>
</mask>
<g mask="url(#mask7_4200_6745)">
<path d="M23.7041 50.3203H220.771" stroke="#CCCCCC" stroke-width="0.444491" stroke-linecap="round"/>
</g>
<path d="M13.0807 52.072C12.7954 52.072 12.5523 51.9944 12.3515 51.839C12.1507 51.6825 11.9973 51.4558 11.8912 51.159C11.7851 50.861 11.7321 50.5011 11.7321 50.0794C11.7321 49.6601 11.7851 49.3022 11.8912 49.0054C11.9986 48.7074 12.1526 48.4801 12.3534 48.3235C12.5554 48.1657 12.7979 48.0867 13.0807 48.0867C13.3636 48.0867 13.6054 48.1657 13.8062 48.3235C14.0082 48.4801 14.1623 48.7074 14.2684 49.0054C14.3757 49.3022 14.4294 49.6601 14.4294 50.0794C14.4294 50.5011 14.3763 50.861 14.2703 51.159C14.1642 51.4558 14.0108 51.6825 13.81 51.839C13.6092 51.9944 13.3661 52.072 13.0807 52.072ZM13.0807 51.6553C13.3636 51.6553 13.5833 51.5189 13.7399 51.2462C13.8965 50.9734 13.9748 50.5845 13.9748 50.0794C13.9748 49.7435 13.9388 49.4575 13.8668 49.2213C13.7961 48.9852 13.6938 48.8053 13.56 48.6815C13.4274 48.5578 13.2676 48.4959 13.0807 48.4959C12.8004 48.4959 12.5813 48.6342 12.4235 48.9107C12.2656 49.186 12.1867 49.5755 12.1867 50.0794C12.1867 50.4153 12.2221 50.7007 12.2928 50.9355C12.3635 51.1704 12.4651 51.3491 12.5977 51.4716C12.7316 51.5941 12.8926 51.6553 13.0807 51.6553ZM15.3471 52.0493C15.2536 52.0493 15.1734 52.0158 15.1065 51.9489C15.0396 51.882 15.0061 51.8018 15.0061 51.7083C15.0061 51.6149 15.0396 51.5347 15.1065 51.4678C15.1734 51.4009 15.2536 51.3674 15.3471 51.3674C15.4405 51.3674 15.5207 51.4009 15.5876 51.4678C15.6546 51.5347 15.688 51.6149 15.688 51.7083C15.688 51.7702 15.6722 51.827 15.6407 51.8788C15.6104 51.9306 15.5693 51.9723 15.5175 52.0038C15.467 52.0341 15.4102 52.0493 15.3471 52.0493ZM17.6167 52.072C17.3945 52.072 17.1943 52.0278 17.0163 51.9394C16.8382 51.851 16.6955 51.7298 16.5882 51.5758C16.4809 51.4217 16.4222 51.2462 16.4121 51.0492H16.8666C16.8843 51.2247 16.9639 51.3699 17.1053 51.4848C17.248 51.5985 17.4185 51.6553 17.6167 51.6553C17.7758 51.6553 17.9173 51.6181 18.041 51.5436C18.166 51.4691 18.2639 51.3668 18.3346 51.2367C18.4066 51.1054 18.4426 50.957 18.4426 50.7916C18.4426 50.6224 18.4053 50.4715 18.3308 50.3389C18.2576 50.205 18.1566 50.0996 18.0278 50.0226C17.899 49.9455 17.7518 49.9064 17.5864 49.9051C17.4677 49.9039 17.3459 49.9222 17.2209 49.9601C17.0958 49.9967 16.9929 50.044 16.9121 50.1021L16.4727 50.0491L16.7075 48.1398H18.7229V48.5565H17.1015L16.9651 49.7006H16.9879C17.0674 49.6374 17.1672 49.585 17.2871 49.5433C17.4071 49.5017 17.5321 49.4808 17.6622 49.4808C17.8996 49.4808 18.1111 49.5377 18.2967 49.6513C18.4836 49.7637 18.6301 49.9178 18.7362 50.1135C18.8435 50.3092 18.8972 50.5327 18.8972 50.784C18.8972 51.0315 18.8416 51.2525 18.7305 51.447C18.6206 51.6402 18.4691 51.7929 18.2759 51.9053C18.0827 52.0165 17.863 52.072 17.6167 52.072ZM20.9149 52.072C20.6295 52.072 20.3864 51.9944 20.1857 51.839C19.9849 51.6825 19.8315 51.4558 19.7254 51.159C19.6193 50.861 19.5663 50.5011 19.5663 50.0794C19.5663 49.6601 19.6193 49.3022 19.7254 49.0054C19.8327 48.7074 19.9868 48.4801 20.1875 48.3235C20.3896 48.1657 20.632 48.0867 20.9149 48.0867C21.1978 48.0867 21.4396 48.1657 21.6404 48.3235C21.8424 48.4801 21.9965 48.7074 22.1025 49.0054C22.2099 49.3022 22.2635 49.6601 22.2635 50.0794C22.2635 50.5011 22.2105 50.861 22.1044 51.159C21.9983 51.4558 21.8449 51.6825 21.6441 51.839C21.4434 51.9944 21.2003 52.072 20.9149 52.072ZM20.9149 51.6553C21.1978 51.6553 21.4175 51.5189 21.5741 51.2462C21.7306 50.9734 21.8089 50.5845 21.8089 50.0794C21.8089 49.7435 21.7729 49.4575 21.701 49.2213C21.6303 48.9852 21.528 48.8053 21.3941 48.6815C21.2615 48.5578 21.1018 48.4959 20.9149 48.4959C20.6346 48.4959 20.4155 48.6342 20.2576 48.9107C20.0998 49.186 20.0209 49.5755 20.0209 50.0794C20.0209 50.4153 20.0562 50.7007 20.1269 50.9355C20.1977 51.1704 20.2993 51.3491 20.4319 51.4716C20.5657 51.5941 20.7267 51.6553 20.9149 51.6553Z" fill="#262626"/>
<mask id="mask8_4200_6745" style="mask-type:luminance" maskUnits="userSpaceOnUse" x="23" y="11" width="198" height="75">
<path d="M220.771 11.2413H23.7041V85.8467H220.771V11.2413Z" fill="white"/>
</mask>
<g mask="url(#mask8_4200_6745)">
<path d="M23.7041 32.5572H220.771" stroke="#CCCCCC" stroke-width="0.444491" stroke-linecap="round"/>
</g>
<path d="M12.8588 34.3088C12.5734 34.3088 12.3303 34.2312 12.1296 34.0759C11.9288 33.9193 11.7753 33.6926 11.6693 33.3959C11.5632 33.0978 11.5102 32.738 11.5102 32.3162C11.5102 31.897 11.5632 31.539 11.6693 31.2422C11.7766 30.9442 11.9307 30.7169 12.1314 30.5603C12.3335 30.4025 12.5759 30.3236 12.8588 30.3236C13.1417 30.3236 13.3835 30.4025 13.5842 30.5603C13.7863 30.7169 13.9403 30.9442 14.0464 31.2422C14.1538 31.539 14.2074 31.897 14.2074 32.3162C14.2074 32.738 14.1544 33.0978 14.0483 33.3959C13.9422 33.6926 13.7888 33.9193 13.588 34.0759C13.3873 34.2312 13.1442 34.3088 12.8588 34.3088ZM12.8588 33.8921C13.1417 33.8921 13.3614 33.7557 13.518 33.483C13.6745 33.2102 13.7528 32.8213 13.7528 32.3162C13.7528 31.9803 13.7168 31.6943 13.6449 31.4582C13.5741 31.222 13.4719 31.0421 13.338 30.9183C13.2054 30.7946 13.0457 30.7327 12.8588 30.7327C12.5785 30.7327 12.3594 30.871 12.2015 31.1475C12.0437 31.4228 11.9648 31.8124 11.9648 32.3162C11.9648 32.6521 12.0001 32.9375 12.0708 33.1724C12.1415 33.4072 12.2432 33.5859 12.3758 33.7084C12.5096 33.8309 12.6706 33.8921 12.8588 33.8921ZM15.1251 34.2861C15.0317 34.2861 14.9515 34.2526 14.8846 34.1857C14.8176 34.1188 14.7842 34.0386 14.7842 33.9452C14.7842 33.8517 14.8176 33.7715 14.8846 33.7046C14.9515 33.6377 15.0317 33.6042 15.1251 33.6042C15.2186 33.6042 15.2988 33.6377 15.3657 33.7046C15.4326 33.7715 15.4661 33.8517 15.4661 33.9452C15.4661 34.007 15.4503 34.0639 15.4187 34.1156C15.3884 34.1674 15.3474 34.2091 15.2956 34.2406C15.2451 34.271 15.1883 34.2861 15.1251 34.2861ZM16.3038 34.2558L18.0388 30.8236V30.7933H16.0386V30.3766H18.5237V30.816L16.7962 34.2558H16.3038ZM20.3899 34.3088C20.1676 34.3088 19.9675 34.2646 19.7894 34.1762C19.6114 34.0879 19.4687 33.9666 19.3614 33.8126C19.254 33.6585 19.1953 33.483 19.1852 33.286H19.6398C19.6575 33.4615 19.737 33.6067 19.8785 33.7217C20.0212 33.8353 20.1916 33.8921 20.3899 33.8921C20.549 33.8921 20.6904 33.8549 20.8142 33.7804C20.9392 33.7059 21.0371 33.6036 21.1078 33.4735C21.1797 33.3422 21.2157 33.1938 21.2157 33.0284C21.2157 32.8592 21.1785 32.7083 21.104 32.5757C21.0307 32.4418 20.9297 32.3364 20.8009 32.2594C20.6721 32.1823 20.525 32.1432 20.3596 32.1419C20.2409 32.1407 20.119 32.159 19.994 32.1969C19.869 32.2335 19.7661 32.2808 19.6853 32.3389L19.2458 32.2859L19.4807 30.3766H21.4961V30.7933H19.8747L19.7383 31.9374H19.761C19.8406 31.8742 19.9403 31.8218 20.0603 31.7802C20.1803 31.7385 20.3053 31.7177 20.4354 31.7177C20.6727 31.7177 20.8843 31.7745 21.0699 31.8881C21.2568 32.0005 21.4033 32.1546 21.5093 32.3503C21.6167 32.546 21.6703 32.7695 21.6703 33.0208C21.6703 33.2683 21.6148 33.4893 21.5036 33.6838C21.3938 33.877 21.2423 34.0298 21.0491 34.1421C20.8558 34.2533 20.6361 34.3088 20.3899 34.3088Z" fill="#262626"/>
<mask id="mask9_4200_6745" style="mask-type:luminance" maskUnits="userSpaceOnUse" x="23" y="11" width="198" height="75">
<path d="M220.771 11.2413H23.7041V85.8467H220.771V11.2413Z" fill="white"/>
</mask>
<g mask="url(#mask9_4200_6745)">
<path d="M23.7041 14.7939H220.771" stroke="#CCCCCC" stroke-width="0.444491" stroke-linecap="round"/>
</g>
<path d="M14.3204 12.6134V16.4926H13.8506V13.1059H13.8279L12.8808 13.7347V13.2574L13.8506 12.6134H14.3204ZM15.5402 16.5229C15.4468 16.5229 15.3666 16.4895 15.2997 16.4225C15.2327 16.3556 15.1993 16.2754 15.1993 16.182C15.1993 16.0885 15.2327 16.0083 15.2997 15.9414C15.3666 15.8745 15.4468 15.841 15.5402 15.841C15.6337 15.841 15.7138 15.8745 15.7808 15.9414C15.8477 16.0083 15.8812 16.0885 15.8812 16.182C15.8812 16.2439 15.8654 16.3007 15.8338 16.3524C15.8035 16.4042 15.7625 16.4459 15.7107 16.4775C15.6602 16.5078 15.6034 16.5229 15.5402 16.5229ZM17.8056 16.5457C17.5202 16.5457 17.2771 16.468 17.0764 16.3127C16.8756 16.1561 16.7222 15.9294 16.6161 15.6327C16.51 15.3347 16.457 14.9748 16.457 14.553C16.457 14.1338 16.51 13.7758 16.6161 13.479C16.7234 13.181 16.8775 12.9537 17.0783 12.7971C17.2803 12.6393 17.5227 12.5604 17.8056 12.5604C18.0885 12.5604 18.3303 12.6393 18.5311 12.7971C18.7331 12.9537 18.8872 13.181 18.9932 13.479C19.1006 13.7758 19.1542 14.1338 19.1542 14.553C19.1542 14.9748 19.1012 15.3347 18.9951 15.6327C18.8891 15.9294 18.7356 16.1561 18.5348 16.3127C18.3341 16.468 18.091 16.5457 17.8056 16.5457ZM17.8056 16.1289C18.0885 16.1289 18.3082 15.9926 18.4648 15.7198C18.6213 15.447 18.6996 15.0581 18.6996 14.553C18.6996 14.2171 18.6636 13.9311 18.5917 13.695C18.521 13.4588 18.4187 13.2789 18.2848 13.1551C18.1522 13.0314 17.9925 12.9695 17.8056 12.9695C17.5253 12.9695 17.3062 13.1078 17.1483 13.3843C16.9905 13.6596 16.9116 14.0492 16.9116 14.553C16.9116 14.8889 16.9469 15.1743 17.0176 15.4092C17.0884 15.644 17.19 15.8227 17.3226 15.9452C17.4564 16.0677 17.6175 16.1289 17.8056 16.1289ZM21.1393 16.5457C20.8539 16.5457 20.6108 16.468 20.41 16.3127C20.2093 16.1561 20.0558 15.9294 19.9498 15.6327C19.8437 15.3347 19.7907 14.9748 19.7907 14.553C19.7907 14.1338 19.8437 13.7758 19.9498 13.479C20.0571 13.181 20.2112 12.9537 20.4119 12.7971C20.614 12.6393 20.8564 12.5604 21.1393 12.5604C21.4221 12.5604 21.664 12.6393 21.8647 12.7971C22.0668 12.9537 22.2208 13.181 22.3269 13.479C22.4342 13.7758 22.4879 14.1338 22.4879 14.553C22.4879 14.9748 22.4349 15.3347 22.3288 15.6327C22.2227 15.9294 22.0693 16.1561 21.8685 16.3127C21.6678 16.468 21.4247 16.5457 21.1393 16.5457ZM21.1393 16.1289C21.4221 16.1289 21.6419 15.9926 21.7984 15.7198C21.955 15.447 22.0333 15.0581 22.0333 14.553C22.0333 14.2171 21.9973 13.9311 21.9254 13.695C21.8546 13.4588 21.7524 13.2789 21.6185 13.1551C21.4859 13.0314 21.3262 12.9695 21.1393 12.9695C20.859 12.9695 20.6399 13.1078 20.482 13.3843C20.3242 13.6596 20.2453 14.0492 20.2453 14.553C20.2453 14.8889 20.2806 15.1743 20.3513 15.4092C20.422 15.644 20.5237 15.8227 20.6563 15.9452C20.7901 16.0677 20.9511 16.1289 21.1393 16.1289Z" fill="#262626"/>
<path d="M8.62516 58.1819H4.56761V57.7438H5.03638V57.69C4.98515 57.6567 4.91983 57.6106 4.84042 57.5517C4.75973 57.4915 4.688 57.4057 4.62524 57.2943C4.5612 57.1816 4.52919 57.0291 4.52919 56.837C4.52919 56.5886 4.5913 56.3695 4.71554 56.18C4.83978 55.9904 5.01589 55.8425 5.24387 55.7362C5.47185 55.6299 5.74081 55.5767 6.05077 55.5767C6.36328 55.5767 6.63417 55.6299 6.86343 55.7362C7.09141 55.8425 7.26816 55.9898 7.39368 56.1781C7.51791 56.3663 7.58003 56.5834 7.58003 56.8293C7.58003 57.0189 7.54865 57.1707 7.48589 57.2847C7.42185 57.3987 7.34949 57.4864 7.2688 57.5479C7.18683 57.6093 7.11895 57.6567 7.06515 57.69V57.7285H8.62516V58.1819ZM6.04308 57.7361C6.26594 57.7361 6.46254 57.7035 6.63289 57.6382C6.80195 57.5728 6.93451 57.4774 7.03057 57.3519C7.12535 57.2264 7.17274 57.0727 7.17274 56.8908C7.17274 56.7013 7.12279 56.5431 7.02289 56.4163C6.92171 56.2882 6.78594 56.1922 6.6156 56.1281C6.44397 56.0628 6.25313 56.0301 6.04308 56.0301C5.83559 56.0301 5.6486 56.0622 5.48209 56.1262C5.31431 56.1889 5.18175 56.2844 5.08441 56.4124C4.98579 56.5392 4.93648 56.6987 4.93648 56.8908C4.93648 57.0753 4.98323 57.2302 5.07672 57.3558C5.16894 57.4813 5.2983 57.576 5.4648 57.6401C5.63003 57.7041 5.82279 57.7361 6.04308 57.7361ZM7.58772 54.0167C7.58772 54.2037 7.5525 54.3734 7.48205 54.5258C7.41033 54.6783 7.30722 54.7993 7.17274 54.8889C7.03698 54.9786 6.87304 55.0234 6.68092 55.0234C6.51185 55.0234 6.37481 54.9901 6.26978 54.9235C6.16348 54.8569 6.08022 54.7679 6.02003 54.6565C5.95983 54.5451 5.915 54.4221 5.88554 54.2876C5.85481 54.1518 5.83047 54.0154 5.81254 53.8784C5.78948 53.6991 5.77219 53.5537 5.76067 53.4423C5.74786 53.3296 5.72673 53.2476 5.69727 53.1964C5.66781 53.1439 5.61658 53.1176 5.54357 53.1176H5.5282C5.33865 53.1176 5.19135 53.1695 5.08633 53.2732C4.9813 53.3757 4.92879 53.5313 4.92879 53.7401C4.92879 53.9565 4.97618 54.1262 5.07096 54.2492C5.16574 54.3721 5.26692 54.4586 5.37451 54.5086L5.22081 54.9389C5.0415 54.862 4.9019 54.7596 4.80199 54.6315C4.70081 54.5021 4.63037 54.3613 4.59066 54.2088C4.54968 54.0551 4.52919 53.904 4.52919 53.7554C4.52919 53.6607 4.54071 53.5518 4.56377 53.4288C4.58554 53.3046 4.63101 53.1849 4.70017 53.0696C4.76933 52.953 4.87372 52.8563 5.01332 52.7795C5.15293 52.7026 5.33993 52.6642 5.57431 52.6642H7.51855V53.1176H7.11895V53.1407C7.18299 53.1714 7.25151 53.2226 7.32451 53.2944C7.39752 53.3661 7.45964 53.4615 7.51087 53.5806C7.5621 53.6997 7.58772 53.8451 7.58772 54.0167ZM7.18043 53.9476C7.18043 53.7683 7.1452 53.6171 7.07476 53.4942C7.00432 53.3699 6.91338 53.2764 6.80195 53.2137C6.69052 53.1496 6.57333 53.1176 6.45037 53.1176H6.0354C6.05845 53.1368 6.07958 53.1791 6.0988 53.2444C6.11673 53.3084 6.13274 53.3827 6.14683 53.4673C6.15963 53.5505 6.17116 53.6318 6.18141 53.7113C6.19037 53.7894 6.19806 53.8528 6.20446 53.9015C6.21983 54.0193 6.24481 54.1294 6.27939 54.2319C6.31269 54.3331 6.36328 54.4151 6.43116 54.4778C6.49776 54.5393 6.5887 54.57 6.70397 54.57C6.86151 54.57 6.98062 54.5118 7.06131 54.3952C7.14072 54.2774 7.18043 54.1282 7.18043 53.9476ZM5.2285 49.7464L5.34377 50.1537C5.27589 50.1793 5.20993 50.2171 5.14589 50.267C5.08057 50.3157 5.02677 50.3823 4.98451 50.4668C4.94224 50.5514 4.92111 50.6596 4.92111 50.7915C4.92111 50.9721 4.96273 51.1226 5.04598 51.243C5.12796 51.3621 5.23234 51.4217 5.35914 51.4217C5.47185 51.4217 5.56086 51.3807 5.62618 51.2987C5.6915 51.2168 5.74594 51.0887 5.78948 50.9145L5.89707 50.4765C5.96111 50.2126 6.05909 50.016 6.19101 49.8867C6.32165 49.7573 6.49008 49.6926 6.69629 49.6926C6.86535 49.6926 7.01648 49.7413 7.14969 49.8386C7.28289 49.9347 7.38791 50.0692 7.46476 50.2421C7.54161 50.415 7.58003 50.6161 7.58003 50.8453C7.58003 51.1463 7.51471 51.3954 7.38407 51.5927C7.25343 51.7899 7.06259 51.9148 6.81156 51.9673L6.70397 51.537C6.86279 51.496 6.9819 51.4185 7.06131 51.3045C7.14072 51.1892 7.18043 51.0387 7.18043 50.853C7.18043 50.6417 7.1356 50.4739 7.04594 50.3497C6.95501 50.2241 6.84614 50.1614 6.71934 50.1614C6.61688 50.1614 6.53106 50.1972 6.4619 50.269C6.39146 50.3407 6.33894 50.4508 6.30436 50.5994L6.18909 51.0912C6.12505 51.3615 6.02579 51.56 5.89131 51.6868C5.75554 51.8123 5.58584 51.8751 5.38219 51.8751C5.21569 51.8751 5.0684 51.8283 4.94032 51.7348C4.81224 51.6401 4.7117 51.5113 4.63869 51.3487C4.56569 51.1847 4.52919 50.999 4.52919 50.7915C4.52919 50.4995 4.59322 50.2702 4.7213 50.1037C4.84938 49.936 5.01845 49.8168 5.2285 49.7464ZM5.2285 46.9199L5.34377 47.3271C5.27589 47.3528 5.20993 47.3905 5.14589 47.4405C5.08057 47.4892 5.02677 47.5558 4.98451 47.6403C4.94224 47.7248 4.92111 47.8331 4.92111 47.965C4.92111 48.1456 4.96273 48.2961 5.04598 48.4165C5.12796 48.5356 5.23234 48.5951 5.35914 48.5951C5.47185 48.5951 5.56086 48.5541 5.62618 48.4722C5.6915 48.3902 5.74594 48.2621 5.78948 48.0879L5.89707 47.6499C5.96111 47.3861 6.05909 47.1895 6.19101 47.0601C6.32165 46.9307 6.49008 46.8661 6.69629 46.8661C6.86535 46.8661 7.01648 46.9147 7.14969 47.0121C7.28289 47.1081 7.38791 47.2426 7.46476 47.4155C7.54161 47.5884 7.58003 47.7895 7.58003 48.0188C7.58003 48.3198 7.51471 48.5689 7.38407 48.7661C7.25343 48.9634 7.06259 49.0882 6.81156 49.1407L6.70397 48.7104C6.86279 48.6694 6.9819 48.5919 7.06131 48.4779C7.14072 48.3627 7.18043 48.2122 7.18043 48.0265C7.18043 47.8151 7.1356 47.6473 7.04594 47.5231C6.95501 47.3976 6.84614 47.3348 6.71934 47.3348C6.61688 47.3348 6.53106 47.3707 6.4619 47.4424C6.39146 47.5141 6.33894 47.6243 6.30436 47.7729L6.18909 48.2647C6.12505 48.5349 6.02579 48.7335 5.89131 48.8603C5.75554 48.9858 5.58584 49.0485 5.38219 49.0485C5.21569 49.0485 5.0684 49.0018 4.94032 48.9083C4.81224 48.8135 4.7117 48.6848 4.63869 48.5221C4.56569 48.3582 4.52919 48.1725 4.52919 47.965C4.52919 47.673 4.59322 47.4437 4.7213 47.2772C4.84938 47.1094 5.01845 46.9903 5.2285 46.9199ZM8.1026 43.7456C8.1026 44.1541 8.04688 44.5179 7.93545 44.8368C7.8253 45.1557 7.66392 45.4253 7.45131 45.6456C7.23742 45.8659 6.97678 46.0337 6.66939 46.149C6.362 46.2642 6.01234 46.3219 5.62042 46.3219C5.23362 46.3219 4.88268 46.2642 4.56761 46.149C4.25253 46.0324 3.98229 45.8627 3.75687 45.6399C3.53017 45.417 3.35598 45.1448 3.2343 44.8234C3.11263 44.5006 3.05179 44.133 3.05179 43.7206C3.05179 43.3389 3.10751 42.9982 3.21893 42.6985C3.33036 42.3975 3.48918 42.1427 3.69539 41.9339C3.90032 41.7238 4.14431 41.5644 4.42736 41.4555C4.70914 41.3454 5.02101 41.2909 5.36298 41.2922C5.59865 41.2909 5.8151 41.3114 6.01234 41.3537C6.20958 41.396 6.38185 41.4626 6.52914 41.5535C6.67515 41.6431 6.79106 41.761 6.87688 41.907C6.96141 42.053 7.00944 42.2298 7.02097 42.4372C7.03249 42.5858 7.02161 42.7062 6.98831 42.7984C6.95501 42.8906 6.9057 42.9611 6.84037 43.0098C6.77377 43.0571 6.69629 43.0879 6.60791 43.102V43.125C6.68476 43.1558 6.75456 43.216 6.81732 43.3056C6.8788 43.3953 6.92683 43.5048 6.96141 43.6341C6.99471 43.7622 7.00688 43.8986 6.99791 44.0434C6.98895 44.1945 6.95373 44.3379 6.89225 44.4737C6.83077 44.6082 6.74175 44.7279 6.6252 44.833C6.50865 44.9367 6.36456 45.0187 6.19293 45.0789C6.02131 45.1378 5.82279 45.1679 5.59737 45.1692C5.37451 45.1679 5.18047 45.1365 5.01525 45.075C4.85002 45.0123 4.71106 44.9297 4.59835 44.8272C4.48564 44.7235 4.39726 44.6082 4.33322 44.4814C4.26918 44.3546 4.2282 44.2271 4.21027 44.0991C4.18849 43.9543 4.18849 43.8173 4.21027 43.6879C4.23204 43.5586 4.26726 43.4497 4.31593 43.3613C4.3646 43.2717 4.41712 43.216 4.47347 43.1942V43.1673H4.2583V42.566H6.13338C6.22175 42.5647 6.29027 42.5448 6.33894 42.5064C6.38761 42.468 6.41195 42.4161 6.41195 42.3508C6.41195 42.2624 6.37289 42.1888 6.29476 42.1299C6.21663 42.0697 6.09687 42.0248 5.9355 41.9954C5.77412 41.9646 5.56855 41.9493 5.31879 41.9493C5.078 41.9493 4.86667 41.9813 4.6848 42.0453C4.50165 42.1081 4.34603 42.1965 4.21795 42.3104C4.08859 42.4232 3.98357 42.5544 3.90288 42.7043C3.82219 42.8541 3.76327 43.0168 3.72613 43.1923C3.68899 43.3665 3.67041 43.5458 3.67041 43.7302C3.67041 44.0491 3.71908 44.3277 3.81642 44.5659C3.91248 44.8041 4.04761 45.0027 4.22179 45.1615C4.39598 45.3203 4.60027 45.4394 4.83465 45.5188C5.06776 45.597 5.322 45.6367 5.59737 45.6379C5.90091 45.6367 6.16988 45.5944 6.40427 45.5111C6.63737 45.4266 6.83333 45.3024 6.99215 45.1384C7.15097 44.9745 7.27136 44.7721 7.35333 44.5313C7.4353 44.2905 7.47629 44.0139 7.47629 43.7014C7.47629 43.5541 7.46604 43.41 7.44555 43.2691C7.42378 43.1282 7.39816 43.0008 7.3687 42.8868C7.33796 42.7728 7.3085 42.6812 7.28033 42.6121L7.83747 42.4219C7.88358 42.5026 7.92649 42.6121 7.96619 42.7504C8.00718 42.8874 8.03984 43.0424 8.06417 43.2153C8.08979 43.3869 8.1026 43.5637 8.1026 43.7456ZM6.36584 43.8339C6.36584 43.6777 6.33574 43.5535 6.27555 43.4612C6.21535 43.3677 6.12633 43.3011 6.0085 43.2614C5.88939 43.2204 5.74274 43.2012 5.56855 43.2038C5.41485 43.2051 5.28485 43.2249 5.17855 43.2634C5.07096 43.3005 4.98963 43.3652 4.93456 43.4574C4.8782 43.5483 4.85002 43.6751 4.85002 43.8378C4.85002 43.98 4.88012 44.101 4.94032 44.2009C5.00052 44.2995 5.08505 44.3751 5.19392 44.4276C5.3015 44.4788 5.4283 44.5051 5.57431 44.5064C5.71008 44.5051 5.8388 44.4833 5.96047 44.441C6.08087 44.3988 6.17885 44.329 6.25441 44.2316C6.3287 44.1343 6.36584 44.0017 6.36584 43.8339ZM3.58396 38.994H7.51855V39.8259H4.37357V39.8489L4.9384 40.75H4.20066L3.58396 39.7759V38.994Z" fill="#262626"/>
<mask id="mask10_4200_6745" style="mask-type:luminance" maskUnits="userSpaceOnUse" x="23" y="11" width="198" height="75">
<path d="M220.771 11.2413H23.7041V85.8467H220.771V11.2413Z" fill="white"/>
</mask>
<g mask="url(#mask10_4200_6745)">
<path d="M32.6619 85.8467H42.0909V14.7939H32.6619V85.8467Z" fill="#2A2EEC" stroke="white" stroke-width="0.444491"/>
</g>
<mask id="mask11_4200_6745" style="mask-type:luminance" maskUnits="userSpaceOnUse" x="23" y="11" width="198" height="75">
<path d="M220.771 11.2413H23.7041V85.8467H220.771V11.2413Z" fill="white"/>
</mask>
<g mask="url(#mask11_4200_6745)">
<path d="M70.3777 85.8466H79.8067V25.4518H70.3777V85.8466Z" fill="#2A2EEC" stroke="white" stroke-width="0.444491"/>
</g>
<mask id="mask12_4200_6745" style="mask-type:luminance" maskUnits="userSpaceOnUse" x="23" y="11" width="198" height="75">
<path d="M220.771 11.2413H23.7041V85.8467H220.771V11.2413Z" fill="white"/>
</mask>
<g mask="url(#mask12_4200_6745)">
<path d="M108.094 85.8467H117.523V18.3466H108.094V85.8467Z" fill="#2A2EEC" stroke="white" stroke-width="0.444491"/>
</g>
<mask id="mask13_4200_6745" style="mask-type:luminance" maskUnits="userSpaceOnUse" x="23" y="11" width="198" height="75">
<path d="M220.771 11.2413H23.7041V85.8467H220.771V11.2413Z" fill="white"/>
</mask>
<g mask="url(#mask13_4200_6745)">
<path d="M145.81 85.8467H155.239V18.3466H145.81V85.8467Z" fill="#2A2EEC" stroke="white" stroke-width="0.444491"/>
</g>
<mask id="mask14_4200_6745" style="mask-type:luminance" maskUnits="userSpaceOnUse" x="23" y="11" width="198" height="75">
<path d="M220.771 11.2413H23.7041V85.8467H220.771V11.2413Z" fill="white"/>
</mask>
<g mask="url(#mask14_4200_6745)">
<path d="M183.526 85.8468H192.955V32.5572H183.526V85.8468Z" fill="#2A2EEC" stroke="white" stroke-width="0.444491"/>
</g>
<mask id="mask15_4200_6745" style="mask-type:luminance" maskUnits="userSpaceOnUse" x="23" y="11" width="198" height="75">
<path d="M220.771 11.2413H23.7041V85.8467H220.771V11.2413Z" fill="white"/>
</mask>
<g mask="url(#mask15_4200_6745)">
<path d="M42.0908 85.8466H51.5199V68.0834H42.0908V85.8466Z" fill="#FA7C17" stroke="white" stroke-width="0.444491"/>
</g>
<mask id="mask16_4200_6745" style="mask-type:luminance" maskUnits="userSpaceOnUse" x="23" y="11" width="198" height="75">
<path d="M220.771 11.2413H23.7041V85.8467H220.771V11.2413Z" fill="white"/>
</mask>
<g mask="url(#mask16_4200_6745)">
<path d="M79.8069 85.8466H89.2359V75.1887H79.8069V85.8466Z" fill="#FA7C17" stroke="white" stroke-width="0.444491"/>
</g>
<mask id="mask17_4200_6745" style="mask-type:luminance" maskUnits="userSpaceOnUse" x="23" y="11" width="198" height="75">
<path d="M220.771 11.2413H23.7041V85.8467H220.771V11.2413Z" fill="white"/>
</mask>
<g mask="url(#mask17_4200_6745)">
<path d="M117.523 85.8466H126.952V57.4255H117.523V85.8466Z" fill="#FA7C17" stroke="white" stroke-width="0.444491"/>
</g>
<mask id="mask18_4200_6745" style="mask-type:luminance" maskUnits="userSpaceOnUse" x="23" y="11" width="198" height="75">
<path d="M220.771 11.2413H23.7041V85.8467H220.771V11.2413Z" fill="white"/>
</mask>
<g mask="url(#mask18_4200_6745)">
<path d="M155.239 85.8466H164.668V57.4255H155.239V85.8466Z" fill="#FA7C17" stroke="white" stroke-width="0.444491"/>
</g>
<mask id="mask19_4200_6745" style="mask-type:luminance" maskUnits="userSpaceOnUse" x="23" y="11" width="198" height="75">
<path d="M220.771 11.2413H23.7041V85.8467H220.771V11.2413Z" fill="white"/>
</mask>
<g mask="url(#mask19_4200_6745)">
<path d="M192.955 85.8467H202.384V71.6361H192.955V85.8467Z" fill="#FA7C17" stroke="white" stroke-width="0.444491"/>
</g>
<mask id="mask20_4200_6745" style="mask-type:luminance" maskUnits="userSpaceOnUse" x="23" y="11" width="198" height="75">
<path d="M220.771 11.2413H23.7041V85.8467H220.771V11.2413Z" fill="white"/>
</mask>
<g mask="url(#mask20_4200_6745)">
<path d="M51.5198 85.8467H60.9488V50.3203H51.5198V85.8467Z" fill="#328C06" stroke="white" stroke-width="0.444491"/>
</g>
<mask id="mask21_4200_6745" style="mask-type:luminance" maskUnits="userSpaceOnUse" x="23" y="11" width="198" height="75">
<path d="M220.771 11.2413H23.7041V85.8467H220.771V11.2413Z" fill="white"/>
</mask>
<g mask="url(#mask21_4200_6745)">
<path d="M89.2358 85.8466H98.6649V68.0834H89.2358V85.8466Z" fill="#328C06" stroke="white" stroke-width="0.444491"/>
</g>
<mask id="mask22_4200_6745" style="mask-type:luminance" maskUnits="userSpaceOnUse" x="23" y="11" width="198" height="75">
<path d="M220.771 11.2413H23.7041V85.8467H220.771V11.2413Z" fill="white"/>
</mask>
<g mask="url(#mask22_4200_6745)">
<path d="M126.952 85.8467H136.381V50.3203H126.952V85.8467Z" fill="#328C06" stroke="white" stroke-width="0.444491"/>
</g>
<mask id="mask23_4200_6745" style="mask-type:luminance" maskUnits="userSpaceOnUse" x="23" y="11" width="198" height="75">
<path d="M220.771 11.2413H23.7041V85.8467H220.771V11.2413Z" fill="white"/>
</mask>
<g mask="url(#mask23_4200_6745)">
<path d="M164.668 85.8468H174.097V46.7678H164.668V85.8468Z" fill="#328C06" stroke="white" stroke-width="0.444491"/>
</g>
<mask id="mask24_4200_6745" style="mask-type:luminance" maskUnits="userSpaceOnUse" x="23" y="11" width="198" height="75">
<path d="M220.771 11.2413H23.7041V85.8467H220.771V11.2413Z" fill="white"/>
</mask>
<g mask="url(#mask24_4200_6745)">
<path d="M202.384 85.8466H211.813V57.4255H202.384V85.8466Z" fill="#328C06" stroke="white" stroke-width="0.444491"/>
</g>
<path d="M23.7041 85.8467V11.2413" stroke="#CCCCCC" stroke-width="0.444491" stroke-linecap="square"/>
<path d="M220.771 85.8467V11.2413" stroke="#CCCCCC" stroke-width="0.444491" stroke-linecap="square"/>
<path d="M23.7041 85.8467H220.771" stroke="#CCCCCC" stroke-width="0.444491" stroke-linecap="square"/>
<path d="M23.7041 11.2413H220.771" stroke="#CCCCCC" stroke-width="0.444491" stroke-linecap="square"/>
<path d="M99.8265 4.45536V4.03865H102.736V4.45536H101.516V7.91785H101.046V4.45536H99.8265ZM104.198 7.97846C103.918 7.97846 103.676 7.91658 103.473 7.79283C103.271 7.66782 103.115 7.49356 103.005 7.27005C102.896 7.04528 102.842 6.78389 102.842 6.48588C102.842 6.18787 102.896 5.92521 103.005 5.69792C103.115 5.46936 103.268 5.29131 103.463 5.16377C103.66 5.03497 103.89 4.97057 104.153 4.97057C104.304 4.97057 104.454 4.99582 104.602 5.04633C104.749 5.09684 104.884 5.17892 105.005 5.29257C105.126 5.40496 105.223 5.55396 105.295 5.73959C105.367 5.92521 105.403 6.15377 105.403 6.42526V6.61468H103.16V6.22827H104.948C104.948 6.06412 104.915 5.91764 104.85 5.78883C104.785 5.66003 104.693 5.55838 104.573 5.48388C104.455 5.40938 104.314 5.37212 104.153 5.37212C103.975 5.37212 103.821 5.41632 103.691 5.50471C103.562 5.59184 103.463 5.70549 103.393 5.84566C103.324 5.98582 103.289 6.13609 103.289 6.29646V6.55407C103.289 6.77379 103.327 6.96004 103.403 7.11284C103.48 7.26437 103.586 7.37991 103.723 7.45947C103.859 7.53776 104.018 7.5769 104.198 7.5769C104.316 7.5769 104.422 7.56049 104.516 7.52765C104.612 7.49356 104.695 7.44305 104.765 7.37612C104.834 7.30793 104.888 7.22333 104.926 7.12231L105.357 7.24353C105.312 7.39001 105.236 7.51881 105.128 7.62994C105.021 7.7398 104.888 7.82567 104.73 7.88754C104.573 7.94815 104.395 7.97846 104.198 7.97846ZM106.083 7.91785V5.00845H106.515V5.46304H106.553C106.613 5.30772 106.711 5.18713 106.846 5.10126C106.981 5.01413 107.144 4.97057 107.333 4.97057C107.525 4.97057 107.685 5.01413 107.812 5.10126C107.941 5.18713 108.041 5.30772 108.113 5.46304H108.144C108.218 5.31277 108.33 5.19344 108.479 5.10505C108.628 5.01539 108.807 4.97057 109.015 4.97057C109.275 4.97057 109.488 5.05201 109.653 5.21491C109.819 5.37654 109.901 5.62846 109.901 5.97067V7.91785H109.454V5.97067C109.454 5.756 109.396 5.60258 109.278 5.5104C109.161 5.41821 109.023 5.37212 108.863 5.37212C108.659 5.37212 108.5 5.434 108.388 5.55775C108.276 5.68024 108.219 5.83556 108.219 6.02371V7.91785H107.765V5.92521C107.765 5.75979 107.711 5.62657 107.604 5.52555C107.497 5.42327 107.358 5.37212 107.189 5.37212C107.073 5.37212 106.964 5.40306 106.863 5.46494C106.763 5.52681 106.683 5.61268 106.621 5.72254C106.56 5.83114 106.53 5.95678 106.53 6.09947V7.91785H106.083ZM110.719 9.00887V5.00845H111.151V5.47062H111.204C111.236 5.42011 111.282 5.35571 111.34 5.27742C111.399 5.19786 111.484 5.12715 111.594 5.06527C111.705 5.00214 111.855 4.97057 112.045 4.97057C112.29 4.97057 112.506 5.03181 112.692 5.1543C112.879 5.27679 113.025 5.45041 113.13 5.67519C113.235 5.89996 113.287 6.16514 113.287 6.47072C113.287 6.77884 113.235 7.04591 113.13 7.27195C113.025 7.49672 112.88 7.67098 112.694 7.79473C112.509 7.91722 112.295 7.97846 112.052 7.97846C111.865 7.97846 111.716 7.94752 111.603 7.88565C111.491 7.82251 111.404 7.75116 111.344 7.67161C111.283 7.59079 111.236 7.52387 111.204 7.47083H111.166V9.00887H110.719ZM111.158 6.46315C111.158 6.68287 111.19 6.8767 111.255 7.04465C111.319 7.21133 111.413 7.34203 111.537 7.43674C111.661 7.53018 111.812 7.5769 111.992 7.5769C112.179 7.5769 112.334 7.52765 112.459 7.42916C112.586 7.3294 112.68 7.19555 112.744 7.0276C112.808 6.85839 112.84 6.67024 112.84 6.46315C112.84 6.25858 112.809 6.07422 112.745 5.91006C112.684 5.74464 112.59 5.61394 112.463 5.51797C112.338 5.42074 112.181 5.37212 111.992 5.37212C111.81 5.37212 111.657 5.41821 111.533 5.5104C111.409 5.60131 111.316 5.72885 111.253 5.89301C111.19 6.05591 111.158 6.24595 111.158 6.46315ZM115.189 7.97846C114.909 7.97846 114.667 7.91658 114.463 7.79283C114.261 7.66782 114.105 7.49356 113.996 7.27005C113.887 7.04528 113.833 6.78389 113.833 6.48588C113.833 6.18787 113.887 5.92521 113.996 5.69792C114.105 5.46936 114.258 5.29131 114.454 5.16377C114.651 5.03497 114.881 4.97057 115.143 4.97057C115.295 4.97057 115.445 4.99582 115.592 5.04633C115.74 5.09684 115.875 5.17892 115.996 5.29257C116.117 5.40496 116.214 5.55396 116.286 5.73959C116.358 5.92521 116.394 6.15377 116.394 6.42526V6.61468H114.151V6.22827H115.939C115.939 6.06412 115.906 5.91764 115.841 5.78883C115.776 5.66003 115.684 5.55838 115.564 5.48388C115.445 5.40938 115.305 5.37212 115.143 5.37212C114.965 5.37212 114.811 5.41632 114.681 5.50471C114.552 5.59184 114.453 5.70549 114.384 5.84566C114.314 5.98582 114.28 6.13609 114.28 6.29646V6.55407C114.28 6.77379 114.318 6.96004 114.393 7.11284C114.47 7.26437 114.577 7.37991 114.713 7.45947C114.85 7.53776 115.008 7.5769 115.189 7.5769C115.306 7.5769 115.412 7.56049 115.507 7.52765C115.603 7.49356 115.686 7.44305 115.755 7.37612C115.825 7.30793 115.878 7.22333 115.916 7.12231L116.348 7.24353C116.303 7.39001 116.226 7.51881 116.119 7.62994C116.012 7.7398 115.879 7.82567 115.721 7.88754C115.563 7.94815 115.386 7.97846 115.189 7.97846ZM117.074 7.91785V5.00845H117.505V5.44789H117.536C117.589 5.30393 117.685 5.18713 117.824 5.09747C117.963 5.00782 118.119 4.96299 118.293 4.96299C118.326 4.96299 118.367 4.96362 118.417 4.96488C118.466 4.96615 118.503 4.96804 118.528 4.97057V5.42516C118.513 5.42137 118.478 5.41569 118.424 5.40811C118.371 5.39927 118.315 5.39485 118.256 5.39485C118.114 5.39485 117.988 5.42453 117.877 5.48388C117.767 5.54196 117.68 5.62278 117.615 5.72633C117.552 5.82861 117.521 5.94542 117.521 6.07674V7.91785H117.074ZM119.914 7.98604C119.73 7.98604 119.563 7.95131 119.412 7.88186C119.262 7.81114 119.143 7.70949 119.054 7.5769C118.966 7.44305 118.922 7.28142 118.922 7.092C118.922 6.92532 118.955 6.7902 119.02 6.68666C119.086 6.58185 119.174 6.49977 119.284 6.44042C119.393 6.38107 119.515 6.33687 119.647 6.30783C119.781 6.27752 119.916 6.25353 120.051 6.23585C120.227 6.21312 120.371 6.19607 120.481 6.18471C120.592 6.17208 120.673 6.15125 120.723 6.1222C120.775 6.09316 120.801 6.04265 120.801 5.97067V5.95552C120.801 5.76863 120.75 5.62341 120.647 5.51987C120.546 5.41632 120.393 5.36455 120.187 5.36455C119.974 5.36455 119.806 5.41127 119.685 5.50471C119.564 5.59816 119.479 5.69792 119.429 5.80399L119.005 5.65246C119.081 5.47567 119.182 5.33803 119.308 5.23953C119.436 5.13978 119.575 5.07032 119.725 5.03118C119.876 4.99077 120.025 4.97057 120.172 4.97057C120.265 4.97057 120.373 4.98193 120.494 5.00466C120.616 5.02613 120.734 5.07096 120.848 5.13914C120.963 5.20733 121.058 5.31025 121.134 5.44789C121.21 5.58553 121.248 5.76989 121.248 6.00098V7.91785H120.801V7.52387H120.778C120.748 7.587 120.697 7.65456 120.627 7.72654C120.556 7.79852 120.462 7.85976 120.344 7.91027C120.227 7.96078 120.084 7.98604 119.914 7.98604ZM119.983 7.58448C120.159 7.58448 120.308 7.54975 120.43 7.4803C120.552 7.41085 120.644 7.32119 120.706 7.21133C120.769 7.10147 120.801 6.98593 120.801 6.86471V6.45557C120.782 6.4783 120.74 6.49914 120.676 6.51808C120.613 6.53576 120.539 6.55154 120.456 6.56543C120.374 6.57806 120.294 6.58942 120.215 6.59953C120.138 6.60837 120.076 6.61594 120.028 6.62226C119.912 6.63741 119.803 6.66203 119.702 6.69613C119.602 6.72896 119.522 6.77884 119.46 6.84576C119.399 6.91143 119.369 7.00108 119.369 7.11473C119.369 7.27005 119.426 7.38749 119.541 7.46704C119.657 7.54533 119.804 7.58448 119.983 7.58448ZM123.329 5.00845V5.38728H121.821V5.00845H123.329ZM122.261 4.31141H122.708V7.08443C122.708 7.2107 122.726 7.30541 122.763 7.36855C122.801 7.43042 122.849 7.47209 122.907 7.49356C122.966 7.51376 123.028 7.52387 123.094 7.52387C123.143 7.52387 123.184 7.52134 123.215 7.51629C123.247 7.50998 123.272 7.50492 123.291 7.50114L123.382 7.90269C123.352 7.91406 123.309 7.92542 123.255 7.93679C123.201 7.94942 123.132 7.95573 123.049 7.95573C122.922 7.95573 122.799 7.92858 122.677 7.87428C122.557 7.81998 122.458 7.73727 122.378 7.62615C122.3 7.51503 122.261 7.37486 122.261 7.20565V4.31141ZM125.835 6.72833V5.00845H126.282V7.91785H125.835V7.42537H125.805C125.736 7.57311 125.63 7.69876 125.486 7.8023C125.342 7.90459 125.161 7.95573 124.941 7.95573C124.759 7.95573 124.597 7.91595 124.456 7.8364C124.315 7.75558 124.203 7.63436 124.123 7.47272C124.042 7.30983 124.001 7.10463 124.001 6.85713V5.00845H124.448V6.82682C124.448 7.03897 124.508 7.20818 124.626 7.33445C124.746 7.46073 124.899 7.52387 125.085 7.52387C125.196 7.52387 125.309 7.49545 125.424 7.43863C125.54 7.38181 125.637 7.29467 125.716 7.17724C125.795 7.0598 125.835 6.91016 125.835 6.72833ZM127.101 7.91785V5.00845H127.533V5.44789H127.563C127.616 5.30393 127.712 5.18713 127.851 5.09747C127.99 5.00782 128.146 4.96299 128.321 4.96299C128.353 4.96299 128.394 4.96362 128.444 4.96488C128.493 4.96615 128.53 4.96804 128.555 4.97057V5.42516C128.54 5.42137 128.506 5.41569 128.451 5.40811C128.398 5.39927 128.342 5.39485 128.283 5.39485C128.141 5.39485 128.015 5.42453 127.904 5.48388C127.794 5.54196 127.707 5.62278 127.642 5.72633C127.579 5.82861 127.548 5.94542 127.548 6.07674V7.91785H127.101ZM130.217 7.97846C129.936 7.97846 129.694 7.91658 129.491 7.79283C129.289 7.66782 129.133 7.49356 129.023 7.27005C128.915 7.04528 128.86 6.78389 128.86 6.48588C128.86 6.18787 128.915 5.92521 129.023 5.69792C129.133 5.46936 129.286 5.29131 129.482 5.16377C129.679 5.03497 129.908 4.97057 130.171 4.97057C130.323 4.97057 130.472 4.99582 130.62 5.04633C130.768 5.09684 130.902 5.17892 131.023 5.29257C131.145 5.40496 131.241 5.55396 131.313 5.73959C131.385 5.92521 131.421 6.15377 131.421 6.42526V6.61468H129.179V6.22827H130.967C130.967 6.06412 130.934 5.91764 130.868 5.78883C130.804 5.66003 130.712 5.55838 130.592 5.48388C130.473 5.40938 130.333 5.37212 130.171 5.37212C129.993 5.37212 129.839 5.41632 129.709 5.50471C129.58 5.59184 129.481 5.70549 129.412 5.84566C129.342 5.98582 129.307 6.13609 129.307 6.29646V6.55407C129.307 6.77379 129.345 6.96004 129.421 7.11284C129.498 7.26437 129.605 7.37991 129.741 7.45947C129.877 7.53776 130.036 7.5769 130.217 7.5769C130.334 7.5769 130.44 7.56049 130.535 7.52765C130.631 7.49356 130.713 7.44305 130.783 7.37612C130.852 7.30793 130.906 7.22333 130.944 7.12231L131.376 7.24353C131.33 7.39001 131.254 7.51881 131.147 7.62994C131.039 7.7398 130.907 7.82567 130.749 7.88754C130.591 7.94815 130.414 7.97846 130.217 7.97846ZM133.783 5.62215V5.21302H136.117V5.62215H133.783ZM133.783 6.74348V6.33435H136.117V6.74348H133.783ZM139.974 4.03865V7.91785H139.504V4.53113H139.481L138.534 5.15998V4.68266L139.504 4.03865H139.974ZM141.194 7.94815C141.1 7.94815 141.02 7.91469 140.953 7.84776C140.886 7.78084 140.853 7.70065 140.853 7.60721C140.853 7.51376 140.886 7.43358 140.953 7.36665C141.02 7.29973 141.1 7.26626 141.194 7.26626C141.287 7.26626 141.367 7.29973 141.434 7.36665C141.501 7.43358 141.535 7.51376 141.535 7.60721C141.535 7.66908 141.519 7.72591 141.487 7.77768C141.457 7.82945 141.416 7.87112 141.364 7.90269C141.314 7.933 141.257 7.94815 141.194 7.94815ZM143.459 7.97088C143.174 7.97088 142.93 7.89322 142.73 7.7379C142.529 7.58132 142.375 7.35466 142.269 7.05791C142.163 6.7599 142.11 6.40001 142.11 5.97825C142.11 5.55901 142.163 5.20102 142.269 4.90427C142.377 4.60626 142.531 4.37896 142.732 4.22238C142.934 4.06454 143.176 3.98561 143.459 3.98561C143.742 3.98561 143.984 4.06454 144.184 4.22238C144.386 4.37896 144.54 4.60626 144.647 4.90427C144.754 5.20102 144.808 5.55901 144.808 5.97825C144.808 6.40001 144.755 6.7599 144.648 7.05791C144.542 7.35466 144.389 7.58132 144.188 7.7379C143.987 7.89322 143.744 7.97088 143.459 7.97088ZM143.459 7.55417C143.742 7.55417 143.962 7.41779 144.118 7.14504C144.275 6.87228 144.353 6.48335 144.353 5.97825C144.353 5.64235 144.317 5.35634 144.245 5.1202C144.174 4.88407 144.072 4.70412 143.938 4.58037C143.806 4.45662 143.646 4.39475 143.459 4.39475C143.179 4.39475 142.96 4.53302 142.802 4.80956C142.644 5.08485 142.565 5.47441 142.565 5.97825C142.565 6.31414 142.6 6.59953 142.671 6.8344C142.742 7.06927 142.843 7.24795 142.976 7.37044C143.11 7.49293 143.271 7.55417 143.459 7.55417Z" fill="#262626"/>
</g>
<defs>
<clipPath id="clip0_4200_6745">
<rect width="224" height="128" fill="white"/>
</clipPath>
</defs>
</svg>
