<svg width="233" height="125" viewBox="0 0 233 125" fill="none" xmlns="http://www.w3.org/2000/svg">
<path d="M22.5095 84.6433H231.893V8.49554H22.5095V84.6433Z" fill="white"/>
<mask id="mask0_4200_5693" style="mask-type:luminance" maskUnits="userSpaceOnUse" x="22" y="8" width="210" height="77">
<path d="M231.893 8.49554H22.5098V84.6433H231.893V8.49554Z" fill="white"/>
</mask>
<g mask="url(#mask0_4200_5693)">
<path d="M47.0544 84.6433V8.49554" stroke="#CCCCCC" stroke-width="0.471972" stroke-linecap="round"/>
</g>
<path d="M13.4546 122.344C13.2488 122.548 13.023 122.675 12.7773 122.726C12.5315 122.777 12.2833 122.758 12.0328 122.668C11.7822 122.579 11.5474 122.425 11.3283 122.208C11.1054 121.988 10.9496 121.752 10.861 121.502C10.7724 121.25 10.7538 121.003 10.8053 120.762C10.8567 120.518 10.9815 120.299 11.1797 120.102C11.334 119.949 11.5017 119.84 11.6827 119.774C11.8637 119.708 12.0451 119.687 12.2271 119.71C12.4091 119.734 12.5782 119.804 12.7344 119.921L12.3971 120.255C12.2714 120.182 12.1256 120.15 11.9599 120.162C11.7941 120.171 11.6369 120.25 11.4883 120.397C11.3569 120.527 11.2759 120.675 11.2454 120.841C11.2149 121.005 11.234 121.176 11.3026 121.353C11.3711 121.529 11.4883 121.699 11.6541 121.863C11.8237 122.031 11.998 122.151 12.1771 122.222C12.3571 122.293 12.531 122.314 12.6987 122.286C12.8673 122.257 13.0183 122.176 13.1516 122.044C13.2393 121.957 13.3036 121.863 13.3446 121.763C13.3855 121.662 13.4022 121.558 13.3946 121.453C13.387 121.347 13.3536 121.244 13.2945 121.144L13.6318 120.81C13.7423 120.957 13.8118 121.119 13.8404 121.297C13.869 121.472 13.8523 121.651 13.7904 121.833C13.7285 122.013 13.6165 122.184 13.4546 122.344ZM12.1757 117.723L15.1022 120.622L14.765 120.956L11.8384 118.057L12.1757 117.723ZM16.4172 119.421C16.2781 119.559 16.1257 119.658 15.9599 119.718C15.7932 119.778 15.6265 119.791 15.4598 119.758C15.2921 119.724 15.1369 119.636 14.994 119.495C14.8682 119.37 14.791 119.245 14.7625 119.118C14.7329 118.991 14.7372 118.864 14.7753 118.738C14.8134 118.611 14.8715 118.488 14.9497 118.367C15.0278 118.244 15.1111 118.126 15.1997 118.012C15.316 117.862 15.4112 117.743 15.4855 117.652C15.5598 117.56 15.6051 117.484 15.6213 117.424C15.6384 117.364 15.6198 117.307 15.5655 117.253L15.5541 117.242C15.4131 117.102 15.265 117.032 15.1097 117.031C14.9554 117.029 14.8006 117.105 14.6453 117.259C14.4843 117.418 14.3933 117.578 14.3724 117.738C14.3514 117.899 14.3623 118.037 14.4052 118.153L13.9708 118.357C13.8946 118.168 13.867 117.99 13.8879 117.822C13.9089 117.652 13.9613 117.496 14.0451 117.355C14.1289 117.211 14.2261 117.085 14.3366 116.976C14.4071 116.906 14.4967 116.834 14.6053 116.76C14.7139 116.685 14.8368 116.63 14.9739 116.596C15.1121 116.561 15.2617 116.567 15.4226 116.613C15.5836 116.659 15.7513 116.769 15.9256 116.942L17.3718 118.374L17.0345 118.708L16.7373 118.414L16.7202 118.43C16.7449 118.5 16.7578 118.589 16.7587 118.695C16.7597 118.802 16.7349 118.918 16.6844 119.043C16.6339 119.169 16.5449 119.295 16.4172 119.421ZM16.1657 119.07C16.2991 118.938 16.3853 118.801 16.4244 118.658C16.4644 118.515 16.4663 118.379 16.4301 118.251C16.3948 118.121 16.3315 118.012 16.24 117.921L15.9314 117.615C15.9342 117.646 15.9185 117.693 15.8842 117.755C15.8499 117.816 15.8066 117.882 15.7542 117.955C15.7018 118.026 15.6499 118.094 15.5984 118.16C15.547 118.224 15.5055 118.277 15.4741 118.317C15.3979 118.415 15.3345 118.515 15.284 118.616C15.2335 118.715 15.2102 118.813 15.214 118.909C15.2178 119.003 15.2626 119.093 15.3483 119.178C15.4655 119.294 15.5975 119.339 15.7442 119.312C15.8909 119.284 16.0314 119.203 16.1657 119.07ZM18.4732 115.505L17.1756 114.22L17.5129 113.886L19.7078 116.06L19.3706 116.394L18.999 116.026L18.9762 116.049C19.0362 116.21 19.0509 116.383 19.0205 116.568C18.989 116.752 18.8904 116.926 18.7247 117.091C18.5875 117.226 18.4355 117.317 18.2688 117.364C18.1011 117.409 17.9259 117.401 17.743 117.341C17.5591 117.28 17.3738 117.157 17.1871 116.972L15.7924 115.59L16.1296 115.256L17.5015 116.615C17.6615 116.774 17.8339 116.856 18.0187 116.861C18.2045 116.866 18.3674 116.799 18.5075 116.66C18.5913 116.577 18.6551 116.472 18.6989 116.343C18.7437 116.214 18.7513 116.076 18.7218 115.93C18.6932 115.783 18.6103 115.641 18.4732 115.505ZM21.2 114.673C21.0171 114.854 20.8094 114.968 20.577 115.015C20.3436 115.062 20.1025 115.04 19.8539 114.95C19.6043 114.86 19.3633 114.699 19.1308 114.469C18.9003 114.241 18.7398 114.003 18.6493 113.757C18.5588 113.511 18.5378 113.272 18.5864 113.041C18.635 112.81 18.7517 112.603 18.9365 112.42C19.0794 112.278 19.2161 112.19 19.3466 112.155C19.4771 112.118 19.5943 112.108 19.6981 112.124C19.802 112.138 19.8853 112.152 19.9482 112.165L19.9768 112.137L18.8965 111.067L19.2337 110.733L22.1603 113.631L21.8345 113.954L21.4972 113.62L21.4572 113.659C21.4725 113.724 21.4877 113.809 21.5029 113.914C21.5172 114.019 21.5058 114.137 21.4687 114.268C21.4305 114.398 21.341 114.533 21.2 114.673ZM20.9428 114.327C21.0781 114.194 21.1571 114.045 21.18 113.883C21.2019 113.72 21.1743 113.552 21.0971 113.379C21.019 113.206 20.8971 113.037 20.7313 112.873C20.5674 112.71 20.4003 112.592 20.2297 112.517C20.0583 112.442 19.8915 112.416 19.7296 112.441C19.5667 112.464 19.4166 112.544 19.2795 112.68C19.1366 112.822 19.0542 112.976 19.0322 113.143C19.0103 113.308 19.038 113.476 19.1151 113.647C19.1923 113.816 19.308 113.976 19.4624 114.129C19.6186 114.284 19.7844 114.401 19.9597 114.48C20.1349 114.558 20.3074 114.587 20.4769 114.568C20.6465 114.547 20.8018 114.467 20.9428 114.327ZM23.7907 112.107C23.5793 112.316 23.3501 112.451 23.1034 112.51C22.8567 112.568 22.6075 112.554 22.356 112.469C22.1045 112.382 21.8664 112.228 21.6416 112.005C21.4167 111.782 21.2595 111.545 21.17 111.294C21.0804 111.042 21.0614 110.794 21.1128 110.553C21.1643 110.309 21.2891 110.09 21.4872 109.893C21.6015 109.78 21.7335 109.687 21.8831 109.614C22.0326 109.542 22.196 109.503 22.3732 109.497C22.5494 109.49 22.7347 109.53 22.9291 109.614C23.1234 109.699 23.323 109.843 23.5278 110.046L23.6707 110.188L21.9788 111.863L21.6873 111.575L23.0362 110.239C22.9124 110.116 22.7771 110.031 22.6304 109.984C22.4847 109.936 22.3384 109.929 22.1917 109.963C22.046 109.996 21.9121 110.073 21.7902 110.193C21.6558 110.326 21.573 110.475 21.5415 110.638C21.5101 110.799 21.521 110.958 21.5744 111.115C21.6277 111.271 21.7149 111.41 21.8359 111.529L22.0302 111.722C22.196 111.886 22.3651 111.997 22.5375 112.054C22.71 112.11 22.8776 112.117 23.0405 112.074C23.2025 112.031 23.3516 111.942 23.4878 111.807C23.5764 111.719 23.644 111.628 23.6907 111.532C23.7374 111.435 23.7617 111.336 23.7636 111.234C23.7645 111.131 23.7412 111.027 23.6936 110.924L24.1108 110.692C24.187 110.835 24.2266 110.988 24.2294 111.152C24.2313 111.314 24.1961 111.477 24.1237 111.641C24.0503 111.804 23.9394 111.96 23.7907 112.107ZM25.0125 108.01L25.3269 108.321L24.0465 109.589L23.7322 109.278L25.0125 108.01ZM26.8691 105.593L26.6519 105.978C26.5824 105.947 26.5052 105.926 26.4204 105.916C26.3356 105.904 26.2461 105.913 26.1518 105.944C26.0575 105.975 25.9612 106.04 25.8631 106.137C25.7288 106.27 25.6478 106.411 25.6202 106.561C25.5926 106.709 25.6259 106.83 25.7202 106.924C25.804 107.007 25.9007 107.042 26.0103 107.03C26.1199 107.017 26.2556 106.963 26.4176 106.867L26.8234 106.624C27.0673 106.476 27.2864 106.404 27.4807 106.406C27.6741 106.407 27.8475 106.483 28.0009 106.635C28.1266 106.759 28.2028 106.907 28.2295 107.076C28.2571 107.245 28.2352 107.422 28.1638 107.606C28.0923 107.79 27.9713 107.966 27.8008 108.135C27.5769 108.357 27.3431 108.492 27.0992 108.541C26.8553 108.59 26.6205 108.542 26.3947 108.396L26.6348 107.999C26.7834 108.086 26.9296 108.117 27.0735 108.091C27.2183 108.065 27.3597 107.983 27.4979 107.846C27.655 107.691 27.7465 107.534 27.7722 107.377C27.7979 107.217 27.7637 107.091 27.6693 106.997C27.5931 106.922 27.5026 106.885 27.3978 106.887C27.2921 106.888 27.1711 106.93 27.0349 107.014L26.5833 107.292C26.3347 107.443 26.1132 107.517 25.9188 107.511C25.7245 107.503 25.5516 107.425 25.4001 107.275C25.2763 107.152 25.2015 107.009 25.1758 106.846C25.151 106.682 25.172 106.513 25.2386 106.339C25.3063 106.165 25.4173 106.001 25.5716 105.848C25.7888 105.633 26.007 105.511 26.2261 105.483C26.4461 105.454 26.6605 105.49 26.8691 105.593ZM30.0575 105.9C29.8594 106.096 29.6383 106.222 29.3945 106.276C29.1515 106.33 28.9034 106.315 28.65 106.23C28.3975 106.144 28.1579 105.989 27.9312 105.764C27.7026 105.538 27.5444 105.299 27.4568 105.048C27.3701 104.796 27.3539 104.55 27.4082 104.309C27.4634 104.068 27.5901 103.849 27.7883 103.652C27.9865 103.456 28.207 103.331 28.4499 103.277C28.6938 103.223 28.9424 103.239 29.1958 103.326C29.4502 103.411 29.6917 103.568 29.9203 103.794C30.1471 104.019 30.3033 104.256 30.389 104.507C30.4757 104.757 30.4914 105.003 30.4362 105.245C30.3819 105.485 30.2557 105.704 30.0575 105.9ZM29.7546 105.6C29.9051 105.451 29.9904 105.29 30.0104 105.117C30.0304 104.945 30.0008 104.773 29.9218 104.602C29.8427 104.431 29.7298 104.273 29.5831 104.128C29.4364 103.983 29.2763 103.87 29.103 103.791C28.9296 103.712 28.7552 103.682 28.58 103.701C28.4047 103.719 28.2418 103.803 28.0912 103.952C27.9407 104.102 27.8559 104.263 27.8369 104.437C27.8178 104.61 27.8483 104.783 27.9283 104.955C28.0084 105.126 28.1217 105.285 28.2684 105.43C28.4151 105.575 28.5747 105.687 28.7471 105.766C28.9196 105.844 29.093 105.873 29.2673 105.853C29.4416 105.833 29.6041 105.749 29.7546 105.6ZM30.538 102.718L31.8584 104.026L31.5211 104.36L29.3262 102.186L29.652 101.863L29.995 102.203L30.0236 102.175C29.9636 102.013 29.9521 101.847 29.9893 101.676C30.0255 101.505 30.1265 101.337 30.2922 101.172C30.4408 101.025 30.6014 100.927 30.7738 100.877C30.9453 100.826 31.1234 100.83 31.3082 100.891C31.4921 100.95 31.6774 101.072 31.8641 101.257L33.2588 102.639L32.9215 102.973L31.5497 101.614C31.3773 101.443 31.1982 101.355 31.0124 101.348C30.8257 101.34 30.6542 101.414 30.498 101.569C30.3903 101.675 30.3175 101.794 30.2794 101.924C30.2422 102.053 30.2441 102.186 30.2851 102.323C30.326 102.46 30.4104 102.592 30.538 102.718ZM32.8919 100.387L34.2123 101.694L33.875 102.028L31.6801 99.8544L32.0059 99.5317L32.3489 99.8714L32.3775 99.8431C32.3174 99.6818 32.306 99.5157 32.3432 99.3449C32.3794 99.1732 32.4803 99.0053 32.6461 98.8411C32.7947 98.6939 32.9552 98.5953 33.1277 98.5453C33.2992 98.4943 33.4773 98.499 33.6621 98.5594C33.846 98.6189 34.0313 98.7411 34.218 98.926L35.6127 100.307L35.2754 100.641L33.9036 99.2827C33.7312 99.1119 33.5521 99.0232 33.3663 99.0166C33.1796 99.009 33.0081 99.0826 32.8519 99.2374C32.7442 99.344 32.6714 99.4624 32.6332 99.5926C32.5961 99.7219 32.598 99.8549 32.639 99.9917C32.6799 100.129 32.7642 100.26 32.8919 100.387ZM37.1949 98.8308C36.9834 99.0403 36.7543 99.1747 36.5076 99.2342C36.2608 99.2917 36.0117 99.2781 35.7602 99.1931C35.5087 99.1063 35.2705 98.9516 35.0457 98.7289C34.8209 98.5062 34.6637 98.2694 34.5742 98.0184C34.4846 97.7656 34.4656 97.5183 34.517 97.2768C34.5684 97.0334 34.6932 96.8135 34.8914 96.6173C35.0057 96.504 35.1376 96.4111 35.2872 96.3384C35.4368 96.2658 35.6002 96.2266 35.7774 96.221C35.9536 96.2144 36.1389 96.2535 36.3332 96.3384C36.5276 96.4234 36.7271 96.5672 36.932 96.7701L37.0749 96.9116L35.383 98.5874L35.0914 98.2987L36.4404 96.9626C36.3166 96.8399 36.1813 96.755 36.0346 96.7078C35.8888 96.6597 35.7426 96.6526 35.5959 96.6866C35.4501 96.7196 35.3163 96.7965 35.1943 96.9173C35.06 97.0503 34.9771 97.1985 34.9457 97.3617C34.9143 97.5231 34.9252 97.682 34.9786 97.8387C35.0319 97.9953 35.1191 98.1335 35.2401 98.2534L35.4344 98.4458C35.6002 98.61 35.7693 98.7209 35.9417 98.7784C36.1141 98.8341 36.2818 98.8407 36.4447 98.7983C36.6066 98.7549 36.7557 98.6657 36.892 98.5308C36.9806 98.443 37.0482 98.3515 37.0949 98.2562C37.1416 98.159 37.1658 98.0595 37.1677 97.9576C37.1687 97.8547 37.1454 97.7514 37.0977 97.6476L37.515 97.4155C37.5912 97.5589 37.6307 97.7122 37.6336 97.8755C37.6355 98.0378 37.6003 98.201 37.5279 98.3652C37.4545 98.5284 37.3435 98.6836 37.1949 98.8308ZM37.3307 94.2579L37.6164 94.541L36.479 95.6676L36.1932 95.3845L37.3307 94.2579ZM35.9988 94.5353L36.3361 94.2013L38.4281 96.2733C38.5234 96.3677 38.6086 96.4248 38.6839 96.4446C38.7592 96.4625 38.8268 96.4578 38.8868 96.4304C38.9468 96.4012 39.0016 96.362 39.0511 96.313C39.0883 96.2762 39.1169 96.2441 39.1369 96.2167C39.1559 96.1884 39.1712 96.1658 39.1826 96.1488L39.5541 96.3809C39.5399 96.412 39.5165 96.4521 39.4841 96.5012C39.4527 96.5512 39.4055 96.6073 39.3427 96.6696C39.2474 96.764 39.1335 96.8362 39.0011 96.8862C38.8697 96.9352 38.732 96.948 38.5882 96.9244C38.4453 96.8998 38.31 96.8244 38.1823 96.6979L35.9988 94.5353ZM39.7999 93.3634L40.1143 93.6748L38.8339 94.9429L38.5196 94.6316L39.7999 93.3634ZM41.1307 93.6532L40.8392 93.3645L40.0904 90.0753L40.3019 89.8658L40.7534 90.3131L40.6105 90.4546L41.1764 92.9399L41.1993 92.9625L42.9312 91.2472L43.2455 91.5586L41.1307 93.6532ZM43.1084 92.8833L42.4196 92.2011L42.2838 92.0667L40.1818 89.9847L40.5191 89.6507L43.4456 92.5493L43.1084 92.8833ZM44.024 88.7665L44.3384 89.0779L43.058 90.346L42.7436 90.0346L44.024 88.7665ZM47.1867 88.9232C47.019 89.0893 46.8347 89.2058 46.6337 89.2728C46.4326 89.3398 46.2335 89.3558 46.0363 89.3209C45.8391 89.286 45.6624 89.1987 45.5062 89.0591L45.8491 88.7194C45.9949 88.8374 46.1645 88.8864 46.3579 88.8666C46.5512 88.8449 46.7227 88.76 46.8723 88.6119C46.9923 88.493 47.0709 88.3595 47.1081 88.2113C47.1462 88.0622 47.1428 87.9127 47.0981 87.7627C47.0533 87.6108 46.9685 87.473 46.8437 87.3494C46.7161 87.223 46.5741 87.138 46.4179 87.0946C46.2616 87.0493 46.1059 87.046 45.9506 87.0847C45.7953 87.1234 45.6548 87.2041 45.5291 87.3268C45.4385 87.4145 45.3604 87.5192 45.2947 87.641C45.228 87.7617 45.1861 87.874 45.1689 87.9778L44.7974 88.2665L43.5342 86.6644L45.0546 85.1585L45.369 85.4699L44.1458 86.6814L44.906 87.6381L44.9232 87.6211C44.9355 87.5145 44.9713 87.4008 45.0303 87.28C45.0894 87.1593 45.168 87.0503 45.2661 86.9531C45.4452 86.7757 45.6477 86.6601 45.8734 86.6064C46.0992 86.5507 46.3259 86.5563 46.5536 86.6233C46.7823 86.6894 46.9914 86.8163 47.1809 87.0041C47.3677 87.189 47.4925 87.3956 47.5553 87.624C47.6182 87.8504 47.6192 88.0778 47.5582 88.3062C47.4963 88.5335 47.3724 88.7392 47.1867 88.9232Z" fill="#262626"/>
<mask id="mask1_4200_5693" style="mask-type:luminance" maskUnits="userSpaceOnUse" x="22" y="8" width="210" height="77">
<path d="M231.893 8.49554H22.5098V84.6433H231.893V8.49554Z" fill="white"/>
</mask>
<g mask="url(#mask1_4200_5693)">
<path d="M87.1282 84.6433V8.49554" stroke="#CCCCCC" stroke-width="0.471972" stroke-linecap="round"/>
</g>
<path d="M63.3694 114.218C63.2065 114.38 63.0455 114.498 62.8864 114.572C62.7282 114.648 62.5763 114.691 62.4305 114.701C62.2867 114.711 62.1538 114.701 62.0319 114.671L62.1119 114.218C62.1824 114.228 62.2667 114.235 62.3648 114.24C62.4639 114.245 62.573 114.227 62.692 114.184C62.813 114.142 62.9397 114.055 63.0721 113.924C63.2493 113.748 63.3527 113.561 63.3822 113.362C63.4118 113.163 63.3351 112.973 63.1522 112.792L62.7063 112.35L62.6778 112.378C62.693 112.443 62.7073 112.527 62.7206 112.63C62.734 112.732 62.7211 112.848 62.682 112.977C62.643 113.105 62.552 113.239 62.4091 113.381C62.2319 113.556 62.0309 113.672 61.8061 113.729C61.5822 113.784 61.3493 113.773 61.1073 113.696C60.8663 113.618 60.6315 113.465 60.4028 113.239C60.178 113.016 60.0218 112.783 59.9341 112.54C59.8455 112.295 59.826 112.058 59.8755 111.828C59.9241 111.597 60.0408 111.39 60.2256 111.207C60.3685 111.065 60.5057 110.976 60.6372 110.94C60.7686 110.903 60.8868 110.891 60.9916 110.907C61.0964 110.92 61.1802 110.933 61.2431 110.946L61.2774 110.912L60.9287 110.567L61.2545 110.244L63.5123 112.48C63.7009 112.667 63.8114 112.862 63.8438 113.063C63.8781 113.265 63.8509 113.465 63.7623 113.662C63.6757 113.859 63.5447 114.045 63.3694 114.218ZM62.1519 113.035C62.2872 112.901 62.3705 112.757 62.402 112.603C62.4334 112.45 62.4153 112.291 62.3477 112.128C62.28 111.965 62.1652 111.803 62.0033 111.642C61.8451 111.486 61.6818 111.371 61.5131 111.299C61.3445 111.226 61.1792 111.202 61.0173 111.226C60.8553 111.251 60.7058 111.331 60.5686 111.467C60.4257 111.609 60.3428 111.762 60.3199 111.928C60.298 112.094 60.3242 112.26 60.3985 112.428C60.4738 112.595 60.5857 112.752 60.7343 112.899C60.8868 113.05 61.0454 113.16 61.2102 113.229C61.375 113.296 61.5379 113.316 61.6989 113.289C61.8599 113.259 62.0109 113.175 62.1519 113.035ZM64.8898 112.622L61.8718 109.633L62.1976 109.31L62.5463 109.655L62.5863 109.616C62.573 109.553 62.5587 109.471 62.5434 109.369C62.5282 109.266 62.5387 109.15 62.5749 109.021C62.6111 108.891 62.7006 108.755 62.8435 108.614C63.0283 108.431 63.2374 108.315 63.4708 108.267C63.7042 108.219 63.9453 108.24 64.1939 108.329C64.4425 108.419 64.6821 108.578 64.9127 108.806C65.1451 109.036 65.3071 109.275 65.3985 109.522C65.489 109.769 65.5109 110.007 65.4643 110.238C65.4166 110.469 65.3014 110.674 65.1184 110.856C64.9775 110.995 64.8412 111.084 64.7098 111.122C64.5773 111.158 64.4583 111.17 64.3525 111.156C64.2458 111.141 64.1601 111.125 64.0953 111.11L64.0667 111.139L65.227 112.288L64.8898 112.622ZM63.3008 110.391C63.4665 110.556 63.6371 110.676 63.8124 110.754C63.9867 110.83 64.1563 110.857 64.3211 110.836C64.4849 110.813 64.6345 110.735 64.7698 110.601C64.9108 110.461 64.9913 110.308 65.0113 110.141C65.0313 109.972 65.0017 109.801 64.9227 109.628C64.8436 109.454 64.726 109.289 64.5697 109.135C64.4154 108.982 64.2525 108.868 64.081 108.792C63.9095 108.715 63.74 108.687 63.5723 108.71C63.4046 108.731 63.2493 108.812 63.1064 108.953C62.9693 109.089 62.8888 109.238 62.8649 109.399C62.8402 109.56 62.8659 109.725 62.9421 109.895C63.0174 110.063 63.1369 110.229 63.3008 110.391ZM65.2785 106.259L65.5643 106.542L64.4268 107.668L64.141 107.385L65.2785 106.259ZM63.9467 106.536L64.2839 106.202L66.3759 108.274C66.4712 108.368 66.5565 108.425 66.6317 108.445C66.707 108.463 66.7746 108.458 66.8346 108.431C66.8947 108.402 66.9494 108.363 66.999 108.314C67.0361 108.277 67.0647 108.245 67.0847 108.217C67.1038 108.189 67.119 108.166 67.1304 108.149L67.502 108.382C67.4877 108.413 67.4643 108.453 67.432 108.502C67.4005 108.552 67.3534 108.608 67.2905 108.67C67.1952 108.765 67.0814 108.837 66.949 108.887C66.8175 108.936 66.6798 108.949 66.536 108.925C66.3931 108.901 66.2578 108.825 66.1302 108.699L63.9467 106.536ZM67.7478 105.364L68.0621 105.676L66.7818 106.944L66.4674 106.632L67.7478 105.364ZM70.729 105.287C70.5403 105.474 70.3398 105.609 70.1274 105.691C69.9159 105.772 69.7092 105.798 69.5072 105.77C69.3052 105.74 69.1237 105.653 68.9628 105.508L69.3229 105.151C69.4248 105.237 69.5386 105.286 69.6644 105.297C69.7892 105.308 69.9164 105.285 70.0459 105.231C70.1755 105.176 70.2965 105.093 70.4089 104.982C70.5346 104.857 70.6242 104.725 70.6775 104.585C70.7309 104.446 70.7461 104.31 70.7232 104.178C70.7004 104.046 70.6375 103.929 70.5346 103.827C70.427 103.72 70.3055 103.653 70.1702 103.624C70.034 103.595 69.8911 103.608 69.7415 103.664C69.592 103.72 69.4429 103.821 69.2943 103.968L69.0599 104.2L68.7455 103.889L68.9799 103.657C69.0961 103.542 69.1771 103.42 69.2228 103.292C69.2695 103.162 69.2795 103.036 69.2528 102.911C69.2271 102.786 69.1628 102.672 69.0599 102.57C68.9608 102.472 68.8527 102.408 68.7355 102.379C68.6184 102.35 68.4993 102.354 68.3783 102.393C68.2583 102.431 68.1444 102.503 68.0368 102.61C67.9358 102.71 67.8591 102.822 67.8067 102.948C67.7543 103.071 67.7348 103.196 67.7481 103.32C67.7605 103.444 67.8129 103.556 67.9053 103.657L67.5624 103.997C67.4147 103.839 67.3266 103.66 67.298 103.46C67.2685 103.259 67.2913 103.057 67.3666 102.854C67.4428 102.651 67.5652 102.465 67.7338 102.298C67.9148 102.119 68.1068 102.001 68.3097 101.946C68.5117 101.889 68.707 101.885 68.8956 101.934C69.0842 101.984 69.2476 102.076 69.3857 102.213C69.5505 102.377 69.6477 102.559 69.6772 102.76C69.7077 102.96 69.6715 103.155 69.5686 103.346L69.5915 103.368C69.8068 103.215 70.0297 103.15 70.2603 103.173C70.4899 103.195 70.6975 103.297 70.8833 103.481C71.0424 103.639 71.1419 103.823 71.182 104.035C71.222 104.244 71.2039 104.458 71.1277 104.677C71.0514 104.896 70.9185 105.1 70.729 105.287ZM72.4462 103.553C72.3757 103.622 72.29 103.657 72.189 103.657C72.088 103.657 72.0023 103.622 71.9318 103.553C71.8613 103.483 71.8261 103.398 71.8261 103.298C71.8261 103.198 71.8613 103.113 71.9318 103.043C72.0023 102.973 72.088 102.938 72.189 102.938C72.29 102.938 72.3757 102.973 72.4462 103.043C72.4929 103.089 72.5239 103.144 72.5391 103.206C72.5553 103.267 72.5558 103.329 72.5406 103.391C72.5253 103.452 72.4939 103.505 72.4462 103.553ZM74.1757 101.874C74.008 102.04 73.8237 102.156 73.6226 102.223C73.4216 102.29 73.2225 102.306 73.0253 102.271C72.8281 102.236 72.6514 102.149 72.4952 102.009L72.8381 101.67C72.9839 101.788 73.1535 101.837 73.3469 101.817C73.5402 101.795 73.7117 101.71 73.8613 101.562C73.9813 101.443 74.0599 101.31 74.0971 101.162C74.1352 101.013 74.1318 100.863 74.0871 100.713C74.0423 100.561 73.9575 100.423 73.8327 100.3C73.705 100.173 73.5631 100.088 73.4069 100.045C73.2506 99.9997 73.0949 99.9964 72.9396 100.035C72.7843 100.074 72.6438 100.154 72.518 100.277C72.4275 100.365 72.3494 100.47 72.2837 100.591C72.217 100.712 72.1751 100.824 72.1579 100.928L71.7864 101.217L70.5232 99.6148L72.0436 98.1089L72.358 98.4202L71.1348 99.6317L71.895 100.589L71.9122 100.572C71.9245 100.465 71.9603 100.351 72.0193 100.23C72.0784 100.11 72.157 100.001 72.2551 99.9035C72.4342 99.7261 72.6367 99.6105 72.8624 99.5567C73.0882 99.5011 73.3149 99.5067 73.5426 99.5737C73.7713 99.6398 73.9804 99.7667 74.1699 99.9544C74.3567 100.139 74.4815 100.346 74.5443 100.574C74.6072 100.801 74.6082 101.028 74.5472 101.257C74.4853 101.484 74.3614 101.69 74.1757 101.874ZM75.5207 97.6655L75.8351 97.9769L74.5547 99.245L74.2403 98.9336L75.5207 97.6655ZM76.2855 95.3568L76.5713 95.6398L75.4339 96.7664L75.1481 96.4834L76.2855 95.3568ZM74.9537 95.6342L75.291 95.3002L77.383 97.3722C77.4783 97.4665 77.5635 97.5236 77.6388 97.5434C77.714 97.5614 77.7817 97.5567 77.8417 97.5293C77.9017 97.5 77.9565 97.4609 78.006 97.4118C78.0432 97.375 78.0718 97.3429 78.0918 97.3156C78.1108 97.2873 78.1261 97.2646 78.1375 97.2476L78.509 97.4798C78.4947 97.5109 78.4714 97.551 78.439 97.6001C78.4076 97.6501 78.3604 97.7062 78.2975 97.7685C78.2023 97.8628 78.0884 97.935 77.956 97.985C77.8246 98.0341 77.6869 98.0468 77.543 98.0232C77.4001 97.9987 77.2649 97.9232 77.1372 97.7968L74.9537 95.6342ZM79.4736 94.7694L78.1761 93.4843L78.5133 93.1503L80.7082 95.3242L80.371 95.6582L79.9995 95.2903L79.9766 95.3129C80.0366 95.4743 80.0514 95.6474 80.0209 95.8323C79.9895 96.0163 79.8909 96.1904 79.7251 96.3546C79.5879 96.4904 79.436 96.5815 79.2692 96.6277C79.1016 96.673 78.9263 96.6655 78.7434 96.6051C78.5595 96.5438 78.3742 96.4206 78.1875 96.2357L76.7928 94.8543L77.1301 94.5203L78.5019 95.879C78.6619 96.0375 78.8344 96.1196 79.0192 96.1253C79.2049 96.13 79.3678 96.063 79.5079 95.9243C79.5917 95.8413 79.6555 95.7356 79.6994 95.6073C79.7441 95.478 79.7518 95.3403 79.7222 95.194C79.6937 95.0468 79.6108 94.9053 79.4736 94.7694ZM81.3259 94.7125L79.131 92.5385L79.4568 92.2158L79.7883 92.5442L79.8112 92.5215C79.7426 92.3744 79.7269 92.2154 79.764 92.0446C79.8012 91.8738 79.8855 91.7233 80.017 91.5931C80.0417 91.5686 80.0732 91.5384 80.1113 91.5025C80.1494 91.4667 80.1789 91.4402 80.1999 91.4233L80.5428 91.7629C80.5285 91.7714 80.498 91.7931 80.4514 91.828C80.4047 91.8611 80.359 91.8997 80.3142 91.9441C80.2075 92.0498 80.1346 92.1663 80.0956 92.2937C80.0565 92.4192 80.0517 92.5447 80.0813 92.6702C80.1108 92.7938 80.1751 92.9046 80.2742 93.0028L81.6631 94.3784L81.3259 94.7125ZM82.8688 93.1843L79.9423 90.2857L80.2795 89.9517L81.3598 91.0217L81.3884 90.9934C81.3751 90.9311 81.3608 90.849 81.3456 90.7471C81.3303 90.6433 81.3408 90.5272 81.377 90.3989C81.4132 90.2687 81.5027 90.1328 81.6456 89.9913C81.8305 89.8083 82.0396 89.6927 82.273 89.6446C82.5064 89.5964 82.7474 89.6172 82.996 89.7068C83.2447 89.7965 83.4843 89.9555 83.7148 90.1838C83.9472 90.414 84.1092 90.6527 84.2006 90.8999C84.2911 91.1462 84.3131 91.3849 84.2664 91.6161C84.2187 91.8463 84.1035 92.052 83.9206 92.2332C83.7796 92.3728 83.6433 92.4615 83.5119 92.4993C83.3795 92.5361 83.2604 92.5474 83.1546 92.5332C83.0479 92.5181 82.9622 92.503 82.8974 92.4879L82.8574 92.5276L83.1946 92.8616L82.8688 93.1843ZM82.1029 91.7689C82.2687 91.9331 82.4392 92.0539 82.6145 92.1313C82.7888 92.2077 82.9584 92.2351 83.1232 92.2134C83.2871 92.1907 83.4366 92.1124 83.5719 91.9784C83.7129 91.8388 83.7934 91.6854 83.8134 91.5184C83.8334 91.3495 83.8039 91.1788 83.7248 91.0061C83.6457 90.8315 83.5281 90.6669 83.3718 90.5121C83.2175 90.3593 83.0546 90.2451 82.8831 90.1696C82.7117 90.0923 82.5421 90.0649 82.3744 90.0875C82.2067 90.1083 82.0515 90.1895 81.9086 90.331C81.7714 90.4669 81.6909 90.6155 81.6671 90.7768C81.6423 90.9372 81.668 91.1023 81.7442 91.2722C81.8195 91.4411 81.9391 91.6067 82.1029 91.7689ZM86.2598 89.9163C86.0617 90.1126 85.8406 90.238 85.5968 90.2928C85.3538 90.3466 85.1057 90.331 84.8523 90.2461C84.5998 90.1602 84.3602 90.005 84.1335 89.7804C83.9048 89.554 83.7467 89.3153 83.6591 89.0643C83.5724 88.8123 83.5562 88.5661 83.6105 88.3255C83.6657 88.0839 83.7924 87.865 83.9906 87.6688C84.1887 87.4725 84.4093 87.3475 84.6522 87.2937C84.8961 87.239 85.1447 87.255 85.3981 87.3418C85.6525 87.4277 85.894 87.5839 86.1226 87.8103C86.3494 88.0349 86.5056 88.2726 86.5913 88.5236C86.678 88.7737 86.6937 89.0195 86.6385 89.261C86.5842 89.5016 86.458 89.72 86.2598 89.9163ZM85.9569 89.6162C86.1074 89.4672 86.1926 89.3063 86.2126 89.1336C86.2327 88.961 86.2031 88.7892 86.1241 88.6184C86.045 88.4477 85.9321 88.2896 85.7854 88.1443C85.6387 87.999 85.4786 87.8867 85.3052 87.8075C85.1319 87.7282 84.9575 87.698 84.7822 87.7169C84.607 87.7358 84.444 87.8197 84.2935 87.9688C84.143 88.1179 84.0582 88.2792 84.0392 88.4529C84.0201 88.6265 84.0506 88.7991 84.1306 88.9709C84.2106 89.1426 84.324 89.3011 84.4707 89.4464C84.6174 89.5917 84.777 89.7035 84.9494 89.7818C85.1219 89.8602 85.2952 89.8894 85.4696 89.8696C85.6439 89.8498 85.8063 89.7653 85.9569 89.6162Z" fill="#262626"/>
<mask id="mask2_4200_5693" style="mask-type:luminance" maskUnits="userSpaceOnUse" x="22" y="8" width="210" height="77">
<path d="M231.893 8.49554H22.5098V84.6433H231.893V8.49554Z" fill="white"/>
</mask>
<g mask="url(#mask2_4200_5693)">
<path d="M127.201 84.6433V8.49554" stroke="#CCCCCC" stroke-width="0.471972" stroke-linecap="round"/>
</g>
<path d="M114.971 102.792C114.808 102.953 114.647 103.071 114.488 103.146C114.33 103.221 114.178 103.264 114.032 103.275C113.888 103.285 113.755 103.275 113.633 103.245L113.713 102.792C113.784 102.801 113.868 102.808 113.966 102.813C114.065 102.819 114.175 102.8 114.294 102.758C114.415 102.715 114.541 102.629 114.674 102.498C114.851 102.322 114.954 102.135 114.984 101.936C115.013 101.737 114.937 101.546 114.754 101.365L114.308 100.924L114.279 100.952C114.295 101.016 114.309 101.1 114.322 101.204C114.336 101.306 114.323 101.421 114.284 101.551C114.245 101.678 114.154 101.813 114.011 101.954C113.833 102.13 113.632 102.246 113.408 102.302C113.184 102.358 112.951 102.347 112.709 102.27C112.468 102.191 112.233 102.039 112.004 101.813C111.78 101.59 111.623 101.357 111.536 101.113C111.447 100.869 111.428 100.632 111.477 100.401C111.526 100.17 111.642 99.9632 111.827 99.7801C111.97 99.6386 112.107 99.5499 112.239 99.514C112.37 99.4763 112.488 99.465 112.593 99.4801C112.698 99.4933 112.782 99.5065 112.845 99.5197L112.879 99.4857L112.53 99.1404L112.856 98.8177L115.114 101.054C115.302 101.241 115.413 101.435 115.445 101.637C115.48 101.839 115.453 102.038 115.364 102.236C115.277 102.433 115.146 102.618 114.971 102.792ZM113.753 101.609C113.889 101.475 113.972 101.331 114.004 101.177C114.035 101.023 114.017 100.865 113.949 100.701C113.882 100.538 113.767 100.376 113.605 100.216C113.447 100.059 113.283 99.9448 113.115 99.8721C112.946 99.7995 112.781 99.7754 112.619 99.7999C112.457 99.8245 112.307 99.9047 112.17 100.041C112.027 100.182 111.944 100.336 111.922 100.502C111.9 100.667 111.926 100.834 112 101.002C112.075 101.169 112.187 101.326 112.336 101.473C112.488 101.624 112.647 101.734 112.812 101.803C112.977 101.87 113.139 101.889 113.3 101.862C113.461 101.833 113.612 101.748 113.753 101.609ZM116.491 101.195L113.473 98.2063L113.799 97.8836L114.148 98.2289L114.188 98.1893C114.175 98.127 114.16 98.0449 114.145 97.943C114.13 97.8393 114.14 97.7232 114.176 97.5949C114.213 97.4647 114.302 97.3288 114.445 97.1873C114.63 97.0042 114.839 96.8886 115.072 96.8405C115.306 96.7924 115.547 96.8131 115.795 96.9028C116.044 96.9924 116.284 97.1514 116.514 97.3797C116.747 97.61 116.909 97.8487 117 98.0959C117.091 98.3422 117.112 98.5809 117.066 98.812C117.018 99.0423 116.903 99.248 116.72 99.4291C116.579 99.5688 116.443 99.6575 116.311 99.6952C116.179 99.732 116.06 99.7433 115.954 99.7292C115.847 99.7141 115.762 99.699 115.697 99.6839L115.668 99.7122L116.829 100.861L116.491 101.195ZM114.902 98.9649C115.068 99.1291 115.239 99.2499 115.414 99.3272C115.588 99.4036 115.758 99.431 115.923 99.4093C116.086 99.3867 116.236 99.3084 116.371 99.1744C116.512 99.0347 116.593 98.8814 116.613 98.7144C116.633 98.5455 116.603 98.3747 116.524 98.202C116.445 98.0275 116.328 97.8628 116.171 97.7081C116.017 97.5552 115.854 97.4411 115.683 97.3656C115.511 97.2882 115.342 97.2609 115.174 97.2835C115.006 97.3043 114.851 97.3854 114.708 97.5269C114.571 97.6628 114.49 97.8114 114.467 97.9728C114.442 98.1332 114.467 98.2983 114.544 98.4681C114.619 98.637 114.738 98.8026 114.902 98.9649ZM116.88 94.8322L117.166 95.1152L116.028 96.2418L115.743 95.9588L116.88 94.8322ZM115.548 95.1096L115.885 94.7756L117.978 96.8476C118.073 96.9419 118.158 96.999 118.233 97.0188C118.309 97.0368 118.376 97.032 118.436 97.0047C118.496 96.9754 118.551 96.9363 118.601 96.8872C118.638 96.8504 118.666 96.8183 118.686 96.791C118.705 96.7627 118.721 96.74 118.732 96.723L119.104 96.9551C119.089 96.9863 119.066 97.0264 119.034 97.0754C119.002 97.1255 118.955 97.1816 118.892 97.2439C118.797 97.3382 118.683 97.4104 118.551 97.4604C118.419 97.5095 118.281 97.5222 118.138 97.4986C117.995 97.4741 117.859 97.3986 117.732 97.2722L115.548 95.1096ZM119.349 93.9377L119.664 94.2491L118.383 95.5172L118.069 95.2058L119.349 93.9377ZM120.68 94.2275L120.389 93.9388L119.64 90.6496L119.851 90.4401L120.303 90.8873L120.16 91.0289L120.726 93.5142L120.749 93.5368L122.481 91.8214L122.795 92.1328L120.68 94.2275ZM122.658 93.4575L121.969 92.7754L121.833 92.6409L119.731 90.559L120.068 90.225L122.995 93.1235L122.658 93.4575ZM124.067 92.1066C123.997 92.1764 123.911 92.2114 123.81 92.2114C123.709 92.2114 123.624 92.1764 123.553 92.1066C123.483 92.0368 123.447 91.9519 123.447 91.8519C123.447 91.7518 123.483 91.6669 123.553 91.5971C123.624 91.5273 123.709 91.4924 123.81 91.4924C123.911 91.4924 123.997 91.5273 124.067 91.5971C124.114 91.6433 124.145 91.6976 124.16 91.7599C124.177 91.8212 124.177 91.883 124.162 91.9453C124.147 92.0057 124.115 92.0594 124.067 92.1066ZM122.654 87.6643L125.58 90.5629L125.226 90.9139L122.671 88.3833L122.654 88.4003L122.414 89.5778L122.054 89.2211L122.299 88.0153L122.654 87.6643Z" fill="#262626"/>
<mask id="mask3_4200_5693" style="mask-type:luminance" maskUnits="userSpaceOnUse" x="22" y="8" width="210" height="77">
<path d="M231.893 8.49554H22.5098V84.6433H231.893V8.49554Z" fill="white"/>
</mask>
<g mask="url(#mask3_4200_5693)">
<path d="M167.275 84.6433V8.49554" stroke="#CCCCCC" stroke-width="0.471972" stroke-linecap="round"/>
</g>
<path d="M156.223 101.624C156.06 101.785 155.899 101.903 155.74 101.978C155.582 102.053 155.43 102.096 155.285 102.106C155.141 102.117 155.008 102.107 154.886 102.077L154.966 101.624C155.036 101.633 155.121 101.64 155.219 101.645C155.318 101.651 155.427 101.632 155.546 101.59C155.667 101.547 155.794 101.46 155.926 101.329C156.103 101.154 156.207 100.967 156.236 100.767C156.266 100.568 156.189 100.378 156.006 100.197L155.56 99.7555L155.532 99.7838C155.547 99.848 155.561 99.9319 155.575 100.036C155.588 100.138 155.575 100.253 155.536 100.382C155.497 100.51 155.406 100.644 155.263 100.786C155.086 100.961 154.885 101.077 154.66 101.134C154.436 101.19 154.203 101.179 153.961 101.101C153.72 101.023 153.485 100.871 153.257 100.644C153.032 100.422 152.876 100.189 152.788 99.9451C152.7 99.7008 152.68 99.4635 152.73 99.2332C152.778 99.0021 152.895 98.795 153.08 98.6119C153.223 98.4704 153.36 98.3817 153.491 98.3458C153.623 98.3081 153.741 98.2968 153.846 98.3119C153.95 98.3251 154.034 98.3383 154.097 98.3515L154.131 98.3175L153.783 97.9722L154.108 97.6495L156.366 99.8857C156.555 100.073 156.665 100.267 156.698 100.469C156.732 100.671 156.705 100.87 156.616 101.067C156.53 101.265 156.399 101.45 156.223 101.624ZM155.006 100.441C155.141 100.307 155.225 100.163 155.256 100.009C155.287 99.855 155.269 99.6965 155.202 99.5333C155.134 99.37 155.019 99.2082 154.857 99.0478C154.699 98.8912 154.536 98.7766 154.367 98.7039C154.199 98.6313 154.033 98.6072 153.871 98.6317C153.709 98.6563 153.56 98.7365 153.423 98.8723C153.28 99.0139 153.197 99.1677 153.174 99.3337C153.152 99.4988 153.178 99.6654 153.253 99.8333C153.328 100 153.44 100.157 153.588 100.305C153.741 100.456 153.899 100.566 154.064 100.634C154.229 100.701 154.392 100.721 154.553 100.694C154.714 100.665 154.865 100.58 155.006 100.441ZM157.744 100.027L154.726 97.0381L155.052 96.7154L155.4 97.0607L155.44 97.0211C155.427 96.9588 155.413 96.8767 155.397 96.7748C155.382 96.671 155.393 96.555 155.429 96.4267C155.465 96.2964 155.555 96.1606 155.698 96.019C155.882 95.836 156.091 95.7204 156.325 95.6723C156.558 95.6242 156.799 95.6449 157.048 95.7346C157.297 95.8242 157.536 95.9832 157.767 96.2115C157.999 96.4418 158.161 96.6805 158.253 96.9277C158.343 97.1739 158.365 97.4127 158.318 97.6438C158.271 97.8741 158.155 98.0798 157.972 98.2609C157.831 98.4006 157.695 98.4892 157.564 98.527C157.431 98.5638 157.312 98.5751 157.207 98.561C157.1 98.5459 157.014 98.5308 156.949 98.5157L156.921 98.544L158.081 99.6932L157.744 100.027ZM156.155 97.7967C156.321 97.9609 156.491 98.0816 156.666 98.159C156.841 98.2354 157.01 98.2628 157.175 98.2411C157.339 98.2185 157.489 98.1401 157.624 98.0062C157.765 97.8665 157.845 97.7132 157.865 97.5462C157.885 97.3773 157.856 97.2065 157.777 97.0338C157.698 96.8593 157.58 96.6946 157.424 96.5399C157.269 96.387 157.106 96.2729 156.935 96.1974C156.764 96.12 156.594 96.0926 156.426 96.1153C156.259 96.136 156.103 96.2172 155.96 96.3587C155.823 96.4946 155.743 96.6432 155.719 96.8045C155.694 96.965 155.72 97.1301 155.796 97.2999C155.871 97.4688 155.991 97.6344 156.155 97.7967ZM158.132 93.664L158.418 93.947L157.281 95.0736L156.995 94.7906L158.132 93.664ZM156.801 93.9414L157.138 93.6073L159.23 95.6794C159.325 95.7737 159.41 95.8308 159.486 95.8506C159.561 95.8686 159.629 95.8638 159.689 95.8365C159.749 95.8072 159.803 95.7681 159.853 95.719C159.89 95.6822 159.919 95.6501 159.939 95.6228C159.958 95.5945 159.973 95.5718 159.984 95.5548L160.356 95.7869C160.342 95.8181 160.318 95.8582 160.286 95.9072C160.255 95.9572 160.207 96.0134 160.144 96.0757C160.049 96.17 159.935 96.2422 159.803 96.2922C159.672 96.3413 159.534 96.354 159.39 96.3304C159.247 96.3059 159.112 96.2304 158.984 96.104L156.801 93.9414ZM160.602 92.7695L160.916 93.0808L159.636 94.349L159.321 94.0376L160.602 92.7695ZM161.933 93.0593L161.641 92.7705L160.892 89.4813L161.104 89.2719L161.555 89.7191L161.412 89.8606L161.978 92.3459L162.001 92.3686L163.733 90.6532L164.047 90.9646L161.933 93.0593ZM163.91 92.2893L163.221 91.6071L163.086 91.4727L160.984 89.3908L161.321 89.0567L164.247 91.9553L163.91 92.2893ZM166.126 90.1851C165.928 90.3814 165.707 90.5069 165.463 90.5616C165.22 90.6154 164.972 90.5998 164.719 90.5149C164.466 90.429 164.227 90.2738 164 90.0492C163.771 89.8228 163.613 89.5841 163.525 89.3331C163.439 89.0812 163.423 88.8349 163.477 88.5943C163.532 88.3527 163.659 88.1338 163.857 87.9376C164.055 87.7413 164.276 87.6163 164.519 87.5625C164.762 87.5078 165.011 87.5238 165.265 87.6106C165.519 87.6965 165.76 87.8527 165.989 88.0791C166.216 88.3037 166.372 88.5414 166.458 88.7924C166.544 89.0425 166.56 89.2883 166.505 89.5298C166.451 89.7704 166.324 89.9888 166.126 90.1851ZM165.823 89.8851C165.974 89.736 166.059 89.5751 166.079 89.4024C166.099 89.2298 166.07 89.058 165.99 88.8873C165.911 88.7165 165.798 88.5584 165.652 88.4131C165.505 88.2678 165.345 88.1555 165.172 88.0763C164.998 87.997 164.824 87.9668 164.649 87.9857C164.473 88.0046 164.31 88.0885 164.16 88.2376C164.009 88.3867 163.925 88.5481 163.906 88.7217C163.887 88.8953 163.917 89.0679 163.997 89.2397C164.077 89.4114 164.19 89.5699 164.337 89.7152C164.484 89.8605 164.643 89.9723 164.816 90.0506C164.988 90.129 165.162 90.1582 165.336 90.1384C165.51 90.1186 165.673 90.0341 165.823 89.8851Z" fill="#262626"/>
<mask id="mask4_4200_5693" style="mask-type:luminance" maskUnits="userSpaceOnUse" x="22" y="8" width="210" height="77">
<path d="M231.893 8.49554H22.5098V84.6433H231.893V8.49554Z" fill="white"/>
</mask>
<g mask="url(#mask4_4200_5693)">
<path d="M207.348 84.6433V8.49554" stroke="#CCCCCC" stroke-width="0.471972" stroke-linecap="round"/>
</g>
<path d="M186.077 111.755C185.914 111.916 185.753 112.034 185.594 112.108C185.436 112.184 185.284 112.227 185.139 112.237C184.995 112.248 184.862 112.238 184.74 112.207L184.82 111.755C184.89 111.764 184.975 111.771 185.073 111.776C185.172 111.781 185.281 111.763 185.4 111.721C185.521 111.678 185.648 111.591 185.78 111.46C185.957 111.285 186.061 111.097 186.09 110.898C186.12 110.699 186.043 110.509 185.86 110.328L185.414 109.886L185.386 109.915C185.401 109.979 185.415 110.063 185.429 110.167C185.442 110.268 185.429 110.384 185.39 110.513C185.351 110.641 185.26 110.775 185.117 110.917C184.94 111.092 184.739 111.208 184.514 111.265C184.29 111.32 184.057 111.31 183.815 111.232C183.574 111.154 183.339 111.002 183.111 110.775C182.886 110.552 182.73 110.319 182.642 110.076C182.554 109.832 182.534 109.594 182.584 109.364C182.632 109.133 182.749 108.926 182.934 108.743C183.077 108.601 183.214 108.512 183.345 108.477C183.477 108.439 183.595 108.428 183.7 108.443C183.804 108.456 183.888 108.469 183.951 108.482L183.985 108.448L183.637 108.103L183.962 107.78L186.22 110.016C186.409 110.203 186.519 110.398 186.552 110.6C186.586 110.802 186.559 111.001 186.47 111.198C186.384 111.395 186.253 111.581 186.077 111.755ZM184.86 110.571C184.995 110.437 185.079 110.293 185.11 110.14C185.141 109.986 185.123 109.827 185.056 109.664C184.988 109.501 184.873 109.339 184.711 109.179C184.553 109.022 184.39 108.907 184.221 108.835C184.053 108.762 183.887 108.738 183.725 108.763C183.563 108.787 183.414 108.867 183.277 109.003C183.134 109.145 183.051 109.298 183.028 109.465C183.006 109.63 183.032 109.796 183.107 109.964C183.182 110.131 183.294 110.288 183.442 110.435C183.595 110.586 183.753 110.696 183.918 110.765C184.083 110.832 184.246 110.852 184.407 110.825C184.568 110.795 184.719 110.711 184.86 110.571ZM187.598 110.158L184.58 107.169L184.906 106.846L185.254 107.192L185.294 107.152C185.281 107.09 185.267 107.008 185.251 106.906C185.236 106.802 185.247 106.686 185.283 106.557C185.319 106.427 185.409 106.291 185.552 106.15C185.736 105.967 185.945 105.851 186.179 105.803C186.412 105.755 186.653 105.776 186.902 105.865C187.151 105.955 187.39 106.114 187.621 106.342C187.853 106.573 188.015 106.811 188.107 107.058C188.197 107.305 188.219 107.543 188.172 107.775C188.125 108.005 188.009 108.211 187.826 108.392C187.685 108.531 187.549 108.62 187.418 108.658C187.285 108.695 187.166 108.706 187.061 108.692C186.954 108.677 186.868 108.662 186.803 108.646L186.775 108.675L187.935 109.824L187.598 110.158ZM186.009 107.927C186.175 108.092 186.345 108.212 186.52 108.29C186.695 108.366 186.864 108.394 187.029 108.372C187.193 108.349 187.343 108.271 187.478 108.137C187.619 107.997 187.699 107.844 187.719 107.677C187.739 107.508 187.71 107.337 187.631 107.165C187.552 106.99 187.434 106.825 187.278 106.671C187.123 106.518 186.96 106.404 186.789 106.328C186.618 106.251 186.448 106.223 186.28 106.246C186.113 106.267 185.957 106.348 185.814 106.49C185.677 106.625 185.597 106.774 185.573 106.935C185.548 107.096 185.574 107.261 185.65 107.431C185.725 107.6 185.845 107.765 186.009 107.927ZM187.986 103.795L188.272 104.078L187.135 105.204L186.849 104.921L187.986 103.795ZM186.655 104.072L186.992 103.738L189.084 105.81C189.179 105.905 189.264 105.962 189.34 105.981C189.415 105.999 189.483 105.995 189.543 105.967C189.603 105.938 189.657 105.899 189.707 105.85C189.744 105.813 189.773 105.781 189.793 105.754C189.812 105.725 189.827 105.703 189.838 105.686L190.21 105.918C190.196 105.949 190.172 105.989 190.14 106.038C190.109 106.088 190.061 106.144 189.998 106.206C189.903 106.301 189.789 106.373 189.657 106.423C189.526 106.472 189.388 106.485 189.244 106.461C189.101 106.437 188.966 106.361 188.838 106.235L186.655 104.072ZM190.456 102.9L190.77 103.212L189.49 104.48L189.175 104.168L190.456 102.9ZM191.787 103.19L191.495 102.901L190.746 99.6121L190.958 99.4027L191.409 99.8499L191.266 99.9914L191.832 102.477L191.855 102.499L193.587 100.784L193.901 101.095L191.787 103.19ZM193.764 102.42L193.075 101.738L192.94 101.603L190.838 99.5216L191.175 99.1875L194.101 102.086L193.764 102.42ZM195.98 100.316C195.782 100.512 195.561 100.638 195.317 100.692C195.074 100.746 194.826 100.731 194.573 100.646C194.32 100.56 194.081 100.405 193.854 100.18C193.625 99.9536 193.467 99.7149 193.379 99.4639C193.293 99.212 193.277 98.9657 193.331 98.7251C193.386 98.4835 193.513 98.2646 193.711 98.0684C193.909 97.8721 194.13 97.7471 194.373 97.6933C194.616 97.6386 194.865 97.6546 195.119 97.7414C195.373 97.8273 195.614 97.9835 195.843 98.2099C196.07 98.4345 196.226 98.6722 196.312 98.9232C196.398 99.1733 196.414 99.4191 196.359 99.6606C196.305 99.9012 196.178 100.12 195.98 100.316ZM195.677 100.016C195.828 99.8668 195.913 99.7059 195.933 99.5332C195.953 99.3606 195.924 99.1888 195.844 99.0181C195.765 98.8473 195.652 98.6892 195.506 98.5439C195.359 98.3986 195.199 98.2863 195.026 98.2071C194.852 98.1278 194.678 98.0976 194.503 98.1165C194.327 98.1354 194.164 98.2193 194.014 98.3684C193.863 98.5175 193.779 98.6789 193.76 98.8525C193.741 99.0261 193.771 99.1987 193.851 99.3705C193.931 99.5422 194.044 99.7007 194.191 99.846C194.338 99.9913 194.497 100.103 194.67 100.181C194.842 100.26 195.016 100.289 195.19 100.269C195.364 100.249 195.527 100.165 195.677 100.016ZM197.289 96.1319L197.604 96.4432L196.324 97.7114L196.009 97.4L197.289 96.1319ZM199.295 96.9425L197.1 94.7686L197.426 94.4459L197.769 94.7855L197.797 94.7572C197.726 94.5959 197.709 94.4327 197.746 94.2675C197.782 94.1015 197.871 93.9477 198.014 93.8061C198.159 93.6627 198.313 93.5759 198.474 93.5457C198.636 93.5136 198.803 93.5287 198.975 93.591L198.997 93.5684C198.94 93.4004 198.935 93.2278 198.98 93.0504C199.025 92.872 199.126 92.705 199.283 92.5493C199.48 92.355 199.701 92.2568 199.949 92.255C200.196 92.2521 200.448 92.3786 200.707 92.6343L202.176 94.0892L201.838 94.4232L200.369 92.9683C200.207 92.8079 200.047 92.7371 199.889 92.756C199.731 92.7749 199.592 92.8437 199.472 92.9626C199.318 93.1155 199.245 93.2801 199.253 93.4566C199.261 93.6321 199.336 93.7901 199.478 93.9307L200.907 95.346L200.564 95.6857L199.06 94.1968C198.936 94.0732 198.795 94.0137 198.637 94.0184C198.479 94.0222 198.336 94.0873 198.209 94.2138C198.121 94.3006 198.062 94.4048 198.033 94.5265C198.004 94.6473 198.008 94.7719 198.044 94.9002C198.081 95.0266 198.152 95.1432 198.26 95.2498L199.632 96.6085L199.295 96.9425ZM202.792 93.4785L200.597 91.3046L200.934 90.9706L203.129 93.1445L202.792 93.4785ZM200.403 90.7724C200.337 90.8375 200.258 90.8715 200.166 90.8743C200.074 90.8762 199.997 90.846 199.934 90.7837C199.871 90.7215 199.841 90.645 199.843 90.5545C199.846 90.4629 199.88 90.3846 199.946 90.3195C200.011 90.2544 200.09 90.2209 200.181 90.219C200.274 90.2162 200.351 90.2459 200.414 90.3082C200.477 90.3705 200.507 90.4474 200.504 90.5389C200.502 90.6295 200.469 90.7073 200.403 90.7724ZM202.764 90.8909L204.084 92.1987L203.747 92.5327L201.552 90.3588L201.878 90.0361L202.221 90.3758L202.249 90.3475C202.189 90.1861 202.178 90.0201 202.215 89.8493C202.251 89.6775 202.352 89.5096 202.518 89.3454C202.667 89.1982 202.827 89.0996 203 89.0496C203.171 88.9987 203.349 89.0034 203.534 89.0638C203.718 89.1232 203.903 89.2454 204.09 89.4303L205.485 90.8117L205.147 91.1457L203.776 89.787C203.603 89.6162 203.424 89.5275 203.238 89.5209C203.052 89.5134 202.88 89.587 202.724 89.7417C202.616 89.8483 202.543 89.9667 202.505 90.097C202.468 90.2262 202.47 90.3593 202.511 90.4961C202.552 90.6329 202.636 90.7645 202.764 90.8909ZM206.101 90.2013L203.906 88.0274L204.243 87.6934L206.438 89.8673L206.101 90.2013ZM203.712 87.4952C203.646 87.5603 203.567 87.5943 203.474 87.5971C203.383 87.599 203.306 87.5688 203.243 87.5066C203.18 87.4443 203.15 87.3679 203.152 87.2773C203.154 87.1858 203.189 87.1074 203.254 87.0423C203.32 86.9772 203.399 86.9437 203.49 86.9419C203.583 86.939 203.66 86.9687 203.723 87.031C203.786 87.0933 203.816 87.1702 203.813 87.2617C203.811 87.3523 203.777 87.4301 203.712 87.4952Z" fill="#262626"/>
<mask id="mask5_4200_5693" style="mask-type:luminance" maskUnits="userSpaceOnUse" x="22" y="8" width="210" height="77">
<path d="M231.893 8.49554H22.5095V84.6433H231.893V8.49554Z" fill="white"/>
</mask>
<g mask="url(#mask5_4200_5693)">
<path d="M22.5095 84.6432H231.893" stroke="#CCCCCC" stroke-width="0.471972" stroke-linecap="round"/>
</g>
<path d="M10.4461 87.3299C10.1431 87.3299 9.88499 87.2475 9.6718 87.0826C9.45861 86.9163 9.2957 86.6756 9.18307 86.3605C9.07044 86.0441 9.01412 85.6619 9.01412 85.2141C9.01412 84.769 9.07044 84.3888 9.18307 84.0737C9.29704 83.7573 9.46062 83.5159 9.67381 83.3497C9.88834 83.1821 10.1458 83.0983 10.4461 83.0983C10.7465 83.0983 11.0032 83.1821 11.2164 83.3497C11.431 83.5159 11.5945 83.7573 11.7072 84.0737C11.8211 84.3888 11.8781 84.769 11.8781 85.2141C11.8781 85.6619 11.8218 86.0441 11.7092 86.3605C11.5966 86.6756 11.4336 86.9163 11.2205 87.0826C11.0073 87.2475 10.7492 87.3299 10.4461 87.3299ZM10.4461 86.8875C10.7465 86.8875 10.9798 86.7427 11.146 86.453C11.3123 86.1634 11.3954 85.7504 11.3954 85.2141C11.3954 84.8574 11.3572 84.5537 11.2808 84.303C11.2057 84.0523 11.0971 83.8612 10.955 83.7298C10.8142 83.5984 10.6446 83.5327 10.4461 83.5327C10.1485 83.5327 9.91583 83.6795 9.74823 83.9732C9.58062 84.2655 9.49682 84.6791 9.49682 85.2141C9.49682 85.5708 9.53436 85.8738 9.60945 86.1232C9.68454 86.3726 9.79247 86.5623 9.93326 86.6924C10.0754 86.8224 10.2463 86.8875 10.4461 86.8875ZM12.8526 87.3058C12.7534 87.3058 12.6682 87.2703 12.5972 87.1992C12.5261 87.1281 12.4906 87.043 12.4906 86.9438C12.4906 86.8446 12.5261 86.7594 12.5972 86.6883C12.6682 86.6173 12.7534 86.5818 12.8526 86.5818C12.9518 86.5818 13.0369 86.6173 13.108 86.6883C13.1791 86.7594 13.2146 86.8446 13.2146 86.9438C13.2146 87.0095 13.1978 87.0698 13.1643 87.1248C13.1321 87.1798 13.0886 87.224 13.0336 87.2575C12.98 87.2897 12.9196 87.3058 12.8526 87.3058ZM15.258 87.3299C14.955 87.3299 14.6969 87.2475 14.4837 87.0826C14.2705 86.9163 14.1076 86.6756 13.995 86.3605C13.8823 86.0441 13.826 85.6619 13.826 85.2141C13.826 84.769 13.8823 84.3888 13.995 84.0737C14.1089 83.7573 14.2725 83.5159 14.4857 83.3497C14.7002 83.1821 14.9577 83.0983 15.258 83.0983C15.5584 83.0983 15.8151 83.1821 16.0283 83.3497C16.2429 83.5159 16.4064 83.7573 16.5191 84.0737C16.633 84.3888 16.69 84.769 16.69 85.2141C16.69 85.6619 16.6337 86.0441 16.5211 86.3605C16.4085 86.6756 16.2455 86.9163 16.0324 87.0826C15.8192 87.2475 15.5611 87.3299 15.258 87.3299ZM15.258 86.8875C15.5584 86.8875 15.7917 86.7427 15.9579 86.453C16.1242 86.1634 16.2073 85.7504 16.2073 85.2141C16.2073 84.8574 16.1691 84.5537 16.0927 84.303C16.0176 84.0523 15.909 83.8612 15.7669 83.7298C15.6261 83.5984 15.4565 83.5327 15.258 83.5327C14.9604 83.5327 14.7277 83.6795 14.5601 83.9732C14.3925 84.2655 14.3087 84.6791 14.3087 85.2141C14.3087 85.5708 14.3463 85.8738 14.4214 86.1232C14.4964 86.3726 14.6044 86.5623 14.7452 86.6924C14.8873 86.8224 15.0582 86.8875 15.258 86.8875ZM18.7978 87.3299C18.4948 87.3299 18.2367 87.2475 18.0235 87.0826C17.8103 86.9163 17.6474 86.6756 17.5348 86.3605C17.4221 86.0441 17.3658 85.6619 17.3658 85.2141C17.3658 84.769 17.4221 84.3888 17.5348 84.0737C17.6487 83.7573 17.8123 83.5159 18.0255 83.3497C18.24 83.1821 18.4975 83.0983 18.7978 83.0983C19.0982 83.0983 19.3549 83.1821 19.5681 83.3497C19.7827 83.5159 19.9462 83.7573 20.0589 84.0737C20.1728 84.3888 20.2298 84.769 20.2298 85.2141C20.2298 85.6619 20.1735 86.0441 20.0609 86.3605C19.9482 86.6756 19.7853 86.9163 19.5721 87.0826C19.359 87.2475 19.1008 87.3299 18.7978 87.3299ZM18.7978 86.8875C19.0982 86.8875 19.3315 86.7427 19.4977 86.453C19.664 86.1634 19.7471 85.7504 19.7471 85.2141C19.7471 84.8574 19.7089 84.5537 19.6325 84.303C19.5574 84.0523 19.4488 83.8612 19.3067 83.7298C19.1659 83.5984 18.9963 83.5327 18.7978 83.5327C18.5002 83.5327 18.2675 83.6795 18.0999 83.9732C17.9323 84.2655 17.8485 84.6791 17.8485 85.2141C17.8485 85.5708 17.8861 85.8738 17.9611 86.1232C18.0362 86.3726 18.1442 86.5623 18.285 86.6924C18.4271 86.8224 18.598 86.8875 18.7978 86.8875Z" fill="#262626"/>
<mask id="mask6_4200_5693" style="mask-type:luminance" maskUnits="userSpaceOnUse" x="22" y="8" width="210" height="77">
<path d="M231.893 8.49554H22.5095V84.6433H231.893V8.49554Z" fill="white"/>
</mask>
<g mask="url(#mask6_4200_5693)">
<path d="M22.5095 66.5128H231.893" stroke="#CCCCCC" stroke-width="0.471972" stroke-linecap="round"/>
</g>
<path d="M10.507 69.1996C10.2039 69.1996 9.94583 69.1171 9.73264 68.9522C9.51945 68.7859 9.35654 68.5452 9.24391 68.2301C9.13128 67.9137 9.07496 67.5316 9.07496 67.0837C9.07496 66.6386 9.13128 66.2585 9.24391 65.9434C9.35788 65.6269 9.52146 65.3856 9.73465 65.2193C9.94918 65.0517 10.2066 64.9679 10.507 64.9679C10.8073 64.9679 11.0641 65.0517 11.2773 65.2193C11.4918 65.3856 11.6554 65.6269 11.768 65.9434C11.882 66.2585 11.939 66.6386 11.939 67.0837C11.939 67.5316 11.8827 67.9137 11.77 68.2301C11.6574 68.5452 11.4945 68.7859 11.2813 68.9522C11.0681 69.1171 10.81 69.1996 10.507 69.1996ZM10.507 68.7571C10.8073 68.7571 11.0406 68.6123 11.2069 68.3227C11.3731 68.033 11.4563 67.6201 11.4563 67.0837C11.4563 66.7271 11.4181 66.4234 11.3416 66.1726C11.2665 65.9219 11.1579 65.7308 11.0158 65.5994C10.875 65.468 10.7054 65.4023 10.507 65.4023C10.2093 65.4023 9.97667 65.5492 9.80907 65.8428C9.64146 66.1351 9.55766 66.5487 9.55766 67.0837C9.55766 67.4404 9.5952 67.7434 9.67029 67.9928C9.74538 68.2422 9.85331 68.4319 9.9941 68.562C10.1362 68.6921 10.3072 68.7571 10.507 68.7571ZM12.9134 69.1754C12.8142 69.1754 12.7291 69.1399 12.658 69.0688C12.5869 68.9978 12.5514 68.9126 12.5514 68.8134C12.5514 68.7142 12.5869 68.629 12.658 68.558C12.7291 68.4869 12.8142 68.4514 12.9134 68.4514C13.0126 68.4514 13.0978 68.4869 13.1688 68.558C13.2399 68.629 13.2754 68.7142 13.2754 68.8134C13.2754 68.8791 13.2587 68.9394 13.2252 68.9944C13.193 69.0494 13.1494 69.0936 13.0944 69.1272C13.0408 69.1593 12.9805 69.1754 12.9134 69.1754ZM14.1192 69.1432V68.7812L15.4788 67.2929C15.6383 67.1186 15.7697 66.9671 15.873 66.8384C15.9762 66.7083 16.0526 66.5863 16.1022 66.4723C16.1532 66.357 16.1787 66.2363 16.1787 66.1103C16.1787 65.9655 16.1438 65.8401 16.0741 65.7342C16.0057 65.6283 15.9118 65.5465 15.7925 65.4888C15.6732 65.4312 15.5391 65.4023 15.3903 65.4023C15.232 65.4023 15.0939 65.4352 14.976 65.5009C14.8593 65.5652 14.7688 65.6558 14.7044 65.7724C14.6414 65.8891 14.6099 66.0258 14.6099 66.1827H14.1353C14.1353 65.9413 14.1909 65.7295 14.3022 65.5471C14.4135 65.3648 14.565 65.2227 14.7567 65.1208C14.9498 65.0189 15.1663 64.9679 15.4064 64.9679C15.6477 64.9679 15.8616 65.0189 16.0479 65.1208C16.2343 65.2227 16.3805 65.3601 16.4864 65.5331C16.5923 65.706 16.6453 65.8984 16.6453 66.1103C16.6453 66.2618 16.6178 66.41 16.5628 66.5548C16.5092 66.6982 16.4153 66.8585 16.2812 67.0355C16.1485 67.2111 15.9641 67.4256 15.7282 67.6791L14.803 68.6686V68.7008H16.7177V69.1432H14.1192ZM18.8355 69.1996C18.5995 69.1996 18.387 69.1526 18.198 69.0588C18.0089 68.9649 17.8574 68.8362 17.7434 68.6726C17.6295 68.509 17.5671 68.3227 17.5564 68.1135H18.0391C18.0578 68.2999 18.1423 68.4541 18.2925 68.5761C18.444 68.6968 18.625 68.7571 18.8355 68.7571C19.0045 68.7571 19.1546 68.7175 19.286 68.6384C19.4188 68.5593 19.5227 68.4507 19.5978 68.3126C19.6742 68.1732 19.7124 68.0156 19.7124 67.84C19.7124 67.6603 19.6729 67.5001 19.5938 67.3593C19.516 67.2171 19.4087 67.1052 19.272 67.0234C19.1352 66.9416 18.979 66.9 18.8033 66.8987C18.6773 66.8974 18.5479 66.9168 18.4152 66.957C18.2824 66.9959 18.1732 67.0462 18.0873 67.1079L17.6207 67.0516L17.8701 65.0242H20.0101V65.4667H18.2885L18.1437 66.6815H18.1678C18.2523 66.6144 18.3582 66.5588 18.4856 66.5146C18.613 66.4703 18.7457 66.4482 18.8838 66.4482C19.1359 66.4482 19.3605 66.5085 19.5576 66.6292C19.756 66.7485 19.9115 66.9121 20.0242 67.1199C20.1381 67.3278 20.1951 67.5651 20.1951 67.8319C20.1951 68.0947 20.1361 68.3294 20.0181 68.5359C19.9015 68.741 19.7406 68.9032 19.5354 69.0226C19.3303 69.1406 19.097 69.1996 18.8355 69.1996Z" fill="#262626"/>
<mask id="mask7_4200_5693" style="mask-type:luminance" maskUnits="userSpaceOnUse" x="22" y="8" width="210" height="77">
<path d="M231.893 8.49554H22.5095V84.6433H231.893V8.49554Z" fill="white"/>
</mask>
<g mask="url(#mask7_4200_5693)">
<path d="M22.5095 48.3824H231.893" stroke="#CCCCCC" stroke-width="0.471972" stroke-linecap="round"/>
</g>
<path d="M10.4793 51.0692C10.1763 51.0692 9.91818 50.9867 9.70498 50.8218C9.49179 50.6555 9.32888 50.4149 9.21625 50.0998C9.10362 49.7833 9.04731 49.4012 9.04731 48.9534C9.04731 48.5082 9.10362 48.1281 9.21625 47.813C9.33022 47.4966 9.4938 47.2552 9.707 47.0889C9.92153 46.9213 10.179 46.8375 10.4793 46.8375C10.7797 46.8375 11.0364 46.9213 11.2496 47.0889C11.4642 47.2552 11.6277 47.4966 11.7404 47.813C11.8543 48.1281 11.9113 48.5082 11.9113 48.9534C11.9113 49.4012 11.855 49.7833 11.7424 50.0998C11.6297 50.4149 11.4668 50.6555 11.2536 50.8218C11.0404 50.9867 10.7823 51.0692 10.4793 51.0692ZM10.4793 50.6267C10.7797 50.6267 11.013 50.4819 11.1792 50.1923C11.3455 49.9027 11.4286 49.4897 11.4286 48.9534C11.4286 48.5967 11.3904 48.293 11.314 48.0423C11.2389 47.7915 11.1303 47.6005 10.9882 47.4691C10.8474 47.3377 10.6778 47.272 10.4793 47.272C10.1816 47.272 9.94901 47.4188 9.78141 47.7124C9.61381 48.0047 9.53001 48.4184 9.53001 48.9534C9.53001 49.31 9.56755 49.6131 9.64264 49.8624C9.71772 50.1118 9.82566 50.3016 9.96645 50.4316C10.1086 50.5617 10.2795 50.6267 10.4793 50.6267ZM12.8858 51.0451C12.7865 51.0451 12.7014 51.0095 12.6303 50.9385C12.5593 50.8674 12.5237 50.7823 12.5237 50.683C12.5237 50.5838 12.5593 50.4987 12.6303 50.4276C12.7014 50.3565 12.7865 50.321 12.8858 50.321C12.985 50.321 13.0701 50.3565 13.1412 50.4276C13.2123 50.4987 13.2478 50.5838 13.2478 50.683C13.2478 50.7487 13.231 50.8091 13.1975 50.864C13.1653 50.919 13.1218 50.9633 13.0668 50.9968C13.0131 51.029 12.9528 51.0451 12.8858 51.0451ZM15.2957 51.0692C15.0598 51.0692 14.8472 51.0223 14.6582 50.9284C14.4691 50.8345 14.3176 50.7058 14.2036 50.5422C14.0897 50.3787 14.0273 50.1923 14.0166 49.9831H14.4993C14.5181 50.1695 14.6025 50.3237 14.7527 50.4457C14.9042 50.5664 15.0852 50.6267 15.2957 50.6267C15.4647 50.6267 15.6149 50.5872 15.7463 50.5081C15.879 50.4289 15.9829 50.3203 16.058 50.1822C16.1344 50.0428 16.1726 49.8852 16.1726 49.7096C16.1726 49.5299 16.1331 49.3697 16.054 49.2289C15.9762 49.0868 15.8689 48.9748 15.7322 48.893C15.5954 48.8112 15.4392 48.7697 15.2636 48.7683C15.1375 48.767 15.0081 48.7864 14.8754 48.8267C14.7426 48.8655 14.6334 48.9158 14.5476 48.9775L14.0809 48.9212L14.3303 46.8939H16.4703V47.3363H14.7487L14.6039 48.5511H14.628C14.7125 48.4841 14.8184 48.4284 14.9458 48.3842C15.0732 48.3399 15.2059 48.3178 15.344 48.3178C15.5961 48.3178 15.8207 48.3781 16.0178 48.4988C16.2162 48.6182 16.3718 48.7817 16.4844 48.9896C16.5984 49.1974 16.6553 49.4347 16.6553 49.7015C16.6553 49.9643 16.5963 50.199 16.4783 50.4055C16.3617 50.6106 16.2008 50.7729 15.9957 50.8922C15.7905 51.0102 15.5572 51.0692 15.2957 51.0692ZM18.7978 51.0692C18.4948 51.0692 18.2367 50.9867 18.0235 50.8218C17.8103 50.6555 17.6474 50.4149 17.5348 50.0998C17.4221 49.7833 17.3658 49.4012 17.3658 48.9534C17.3658 48.5082 17.4221 48.1281 17.5348 47.813C17.6487 47.4966 17.8123 47.2552 18.0255 47.0889C18.24 46.9213 18.4975 46.8375 18.7978 46.8375C19.0982 46.8375 19.3549 46.9213 19.5681 47.0889C19.7827 47.2552 19.9462 47.4966 20.0589 47.813C20.1728 48.1281 20.2298 48.5082 20.2298 48.9534C20.2298 49.4012 20.1735 49.7833 20.0609 50.0998C19.9482 50.4149 19.7853 50.6555 19.5721 50.8218C19.359 50.9867 19.1008 51.0692 18.7978 51.0692ZM18.7978 50.6267C19.0982 50.6267 19.3315 50.4819 19.4977 50.1923C19.664 49.9027 19.7471 49.4897 19.7471 48.9534C19.7471 48.5967 19.7089 48.293 19.6325 48.0423C19.5574 47.7915 19.4488 47.6005 19.3067 47.4691C19.1659 47.3377 18.9963 47.272 18.7978 47.272C18.5002 47.272 18.2675 47.4188 18.0999 47.7124C17.9323 48.0047 17.8485 48.4184 17.8485 48.9534C17.8485 49.31 17.8861 49.6131 17.9611 49.8624C18.0362 50.1118 18.1442 50.3016 18.285 50.4316C18.4271 50.5617 18.598 50.6267 18.7978 50.6267Z" fill="#262626"/>
<mask id="mask8_4200_5693" style="mask-type:luminance" maskUnits="userSpaceOnUse" x="22" y="8" width="210" height="77">
<path d="M231.893 8.49554H22.5095V84.6433H231.893V8.49554Z" fill="white"/>
</mask>
<g mask="url(#mask8_4200_5693)">
<path d="M22.5095 30.2521H231.893" stroke="#CCCCCC" stroke-width="0.471972" stroke-linecap="round"/>
</g>
<path d="M11.3154 32.9388C11.0124 32.9388 10.7542 32.8563 10.5411 32.6914C10.3279 32.5251 10.165 32.2844 10.0523 31.9693C9.9397 31.6529 9.88338 31.2708 9.88338 30.8229C9.88338 30.3778 9.9397 29.9977 10.0523 29.6826C10.1663 29.3661 10.3299 29.1248 10.5431 28.9585C10.7576 28.7909 11.015 28.7071 11.3154 28.7071C11.6157 28.7071 11.8725 28.7909 12.0857 28.9585C12.3002 29.1248 12.4638 29.3661 12.5764 29.6826C12.6904 29.9977 12.7474 30.3778 12.7474 30.8229C12.7474 31.2708 12.6911 31.6529 12.5784 31.9693C12.4658 32.2844 12.3029 32.5251 12.0897 32.6914C11.8765 32.8563 11.6184 32.9388 11.3154 32.9388ZM11.3154 32.4963C11.6157 32.4963 11.849 32.3515 12.0153 32.0619C12.1816 31.7722 12.2647 31.3593 12.2647 30.8229C12.2647 30.4663 12.2265 30.1626 12.1501 29.9118C12.075 29.6611 11.9664 29.47 11.8242 29.3386C11.6834 29.2072 11.5138 29.1415 11.3154 29.1415C11.0177 29.1415 10.7851 29.2884 10.6175 29.582C10.4499 29.8743 10.3661 30.2879 10.3661 30.8229C10.3661 31.1796 10.4036 31.4826 10.4787 31.732C10.5538 31.9814 10.6617 32.1711 10.8025 32.3012C10.9446 32.4313 11.1156 32.4963 11.3154 32.4963ZM13.7218 32.9146C13.6226 32.9146 13.5375 32.8791 13.4664 32.808C13.3953 32.737 13.3598 32.6518 13.3598 32.5526C13.3598 32.4534 13.3953 32.3682 13.4664 32.2972C13.5375 32.2261 13.6226 32.1906 13.7218 32.1906C13.8211 32.1906 13.9062 32.2261 13.9773 32.2972C14.0483 32.3682 14.0839 32.4534 14.0839 32.5526C14.0839 32.6183 14.0671 32.6786 14.0336 32.7336C14.0014 32.7886 13.9578 32.8328 13.9029 32.8664C13.8492 32.8985 13.7889 32.9146 13.7218 32.9146ZM14.9733 32.8824L16.8156 29.2381V29.2059H14.6918V28.7634H17.3305V29.23L15.4963 32.8824H14.9733ZM19.3121 32.9388C19.0761 32.9388 18.8636 32.8918 18.6745 32.798C18.4855 32.7041 18.334 32.5754 18.22 32.4118C18.106 32.2482 18.0437 32.0619 18.0329 31.8527H18.5156C18.5344 32.0391 18.6189 32.1933 18.7691 32.3153C18.9206 32.436 19.1016 32.4963 19.3121 32.4963C19.481 32.4963 19.6312 32.4567 19.7626 32.3776C19.8954 32.2985 19.9993 32.1899 20.0744 32.0518C20.1508 31.9124 20.189 31.7548 20.189 31.5792C20.189 31.3995 20.1494 31.2393 20.0703 31.0985C19.9926 30.9563 19.8853 30.8444 19.7485 30.7626C19.6118 30.6808 19.4556 30.6392 19.2799 30.6379C19.1539 30.6366 19.0245 30.656 18.8917 30.6962C18.759 30.7351 18.6497 30.7854 18.5639 30.8471L18.0973 30.7908L18.3467 28.7634H20.4867V29.2059H18.765L18.6202 30.4207H18.6444C18.7288 30.3536 18.8348 30.298 18.9621 30.2538C19.0895 30.2095 19.2223 30.1874 19.3604 30.1874C19.6124 30.1874 19.837 30.2477 20.0341 30.3684C20.2326 30.4877 20.3881 30.6513 20.5007 30.8591C20.6147 31.067 20.6717 31.3043 20.6717 31.5711C20.6717 31.8339 20.6127 32.0686 20.4947 32.2751C20.3781 32.4802 20.2172 32.6424 20.012 32.7618C19.8069 32.8798 19.5736 32.9388 19.3121 32.9388Z" fill="#262626"/>
<mask id="mask9_4200_5693" style="mask-type:luminance" maskUnits="userSpaceOnUse" x="22" y="8" width="210" height="77">
<path d="M231.893 8.49554H22.5098V84.6433H231.893V8.49554Z" fill="white"/>
</mask>
<g mask="url(#mask9_4200_5693)">
<path d="M22.5098 12.1216H231.893" stroke="#CCCCCC" stroke-width="0.471972" stroke-linecap="round"/>
</g>
<path d="M11.8582 10.633V14.752H11.3594V11.1559H11.3353L10.3297 11.8236V11.3168L11.3594 10.633H11.8582ZM13.1535 14.7842C13.0543 14.7842 12.9691 14.7487 12.898 14.6776C12.827 14.6065 12.7915 14.5214 12.7915 14.4222C12.7915 14.3229 12.827 14.2378 12.898 14.1667C12.9691 14.0957 13.0543 14.0601 13.1535 14.0601C13.2527 14.0601 13.3378 14.0957 13.4089 14.1667C13.48 14.2378 13.5155 14.3229 13.5155 14.4222C13.5155 14.4879 13.4987 14.5482 13.4652 14.6032C13.433 14.6582 13.3895 14.7024 13.3345 14.7359C13.2809 14.7681 13.2205 14.7842 13.1535 14.7842ZM15.5589 14.8083C15.2559 14.8083 14.9978 14.7259 14.7846 14.5609C14.5714 14.3947 14.4085 14.154 14.2959 13.8389C14.1832 13.5225 14.1269 13.1403 14.1269 12.6925C14.1269 12.2473 14.1832 11.8672 14.2959 11.5521C14.4098 11.2357 14.5734 10.9943 14.7866 10.8281C15.0011 10.6605 15.2586 10.5767 15.5589 10.5767C15.8593 10.5767 16.116 10.6605 16.3292 10.8281C16.5438 10.9943 16.7073 11.2357 16.82 11.5521C16.9339 11.8672 16.9909 12.2473 16.9909 12.6925C16.9909 13.1403 16.9346 13.5225 16.822 13.8389C16.7094 14.154 16.5464 14.3947 16.3333 14.5609C16.1201 14.7259 15.862 14.8083 15.5589 14.8083ZM15.5589 14.3659C15.8593 14.3659 16.0926 14.221 16.2588 13.9314C16.4251 13.6418 16.5082 13.2288 16.5082 12.6925C16.5082 12.3358 16.47 12.0321 16.3936 11.7814C16.3185 11.5307 16.2099 11.3396 16.0678 11.2082C15.927 11.0768 15.7574 11.0111 15.5589 11.0111C15.2613 11.0111 15.0286 11.1579 14.861 11.4516C14.6934 11.7439 14.6096 12.1575 14.6096 12.6925C14.6096 13.0492 14.6472 13.3522 14.7222 13.6016C14.7973 13.851 14.9053 14.0407 15.0461 14.1708C15.1882 14.3008 15.3591 14.3659 15.5589 14.3659ZM19.0987 14.8083C18.7957 14.8083 18.5376 14.7259 18.3244 14.5609C18.1112 14.3947 17.9483 14.154 17.8357 13.8389C17.723 13.5225 17.6667 13.1403 17.6667 12.6925C17.6667 12.2473 17.723 11.8672 17.8357 11.5521C17.9496 11.2357 18.1132 10.9943 18.3264 10.8281C18.5409 10.6605 18.7984 10.5767 19.0987 10.5767C19.3991 10.5767 19.6558 10.6605 19.869 10.8281C20.0836 10.9943 20.2471 11.2357 20.3598 11.5521C20.4737 11.8672 20.5307 12.2473 20.5307 12.6925C20.5307 13.1403 20.4744 13.5225 20.3618 13.8389C20.2491 14.154 20.0862 14.3947 19.873 14.5609C19.6598 14.7259 19.4017 14.8083 19.0987 14.8083ZM19.0987 14.3659C19.3991 14.3659 19.6324 14.221 19.7986 13.9314C19.9649 13.6418 20.048 13.2288 20.048 12.6925C20.048 12.3358 20.0098 12.0321 19.9334 11.7814C19.8583 11.5307 19.7497 11.3396 19.6076 11.2082C19.4668 11.0768 19.2972 11.0111 19.0987 11.0111C18.801 11.0111 18.5684 11.1579 18.4008 11.4516C18.2332 11.7439 18.1494 12.1575 18.1494 12.6925C18.1494 13.0492 18.1869 13.3522 18.262 13.6016C18.3371 13.851 18.4451 14.0407 18.5858 14.1708C18.728 14.3008 18.8989 14.3659 19.0987 14.3659Z" fill="#262626"/>
<path d="M6.1066 56.2712H2.04905V55.8331H2.51782V55.7793C2.46659 55.746 2.40127 55.6999 2.32186 55.641C2.24117 55.5808 2.16945 55.495 2.10669 55.3836C2.04265 55.2709 2.01063 55.1184 2.01063 54.9263C2.01063 54.6779 2.07275 54.4588 2.19699 54.2693C2.32122 54.0797 2.49733 53.9318 2.72531 53.8255C2.95329 53.7192 3.22226 53.666 3.53221 53.666C3.84473 53.666 4.11561 53.7192 4.34487 53.8255C4.57286 53.9318 4.74961 54.0791 4.87512 54.2674C4.99936 54.4556 5.06148 54.6727 5.06148 54.9186C5.06148 55.1082 5.0301 55.26 4.96734 55.374C4.9033 55.488 4.83094 55.5757 4.75025 55.6372C4.66827 55.6986 4.60039 55.746 4.5466 55.7793V55.8178H6.1066V56.2712ZM3.52453 55.8254C3.74738 55.8254 3.94399 55.7928 4.11433 55.7275C4.2834 55.6621 4.41596 55.5667 4.51202 55.4412C4.6068 55.3157 4.65419 55.162 4.65419 54.9801C4.65419 54.7906 4.60424 54.6324 4.50433 54.5056C4.40315 54.3775 4.26739 54.2814 4.09704 54.2174C3.92542 54.1521 3.73458 54.1194 3.52453 54.1194C3.31704 54.1194 3.13004 54.1514 2.96354 54.2155C2.79576 54.2782 2.66319 54.3737 2.56585 54.5017C2.46723 54.6285 2.41792 54.788 2.41792 54.9801C2.41792 55.1646 2.46467 55.3195 2.55817 55.445C2.65039 55.5706 2.77975 55.6653 2.94625 55.7294C3.11147 55.7934 3.30423 55.8254 3.52453 55.8254ZM5.06916 52.106C5.06916 52.293 5.03394 52.4627 4.9635 52.6151C4.89177 52.7675 4.78867 52.8886 4.65419 52.9782C4.51842 53.0679 4.35448 53.1127 4.16236 53.1127C3.9933 53.1127 3.85625 53.0794 3.75123 53.0128C3.64492 52.9462 3.56167 52.8572 3.50147 52.7458C3.44128 52.6343 3.39645 52.5114 3.36699 52.3769C3.33625 52.2411 3.31192 52.1047 3.29398 51.9677C3.27093 51.7884 3.25364 51.643 3.24211 51.5316C3.2293 51.4189 3.20817 51.3369 3.17871 51.2857C3.14925 51.2332 3.09802 51.2069 3.02502 51.2069H3.00965C2.82009 51.2069 2.6728 51.2588 2.56777 51.3625C2.46275 51.465 2.41024 51.6206 2.41024 51.8294C2.41024 52.0458 2.45763 52.2155 2.55241 52.3385C2.64718 52.4614 2.74837 52.5479 2.85595 52.5978L2.70226 53.0282C2.52295 52.9513 2.38334 52.8489 2.28344 52.7208C2.18226 52.5914 2.11181 52.4506 2.07211 52.2981C2.03112 52.1444 2.01063 51.9933 2.01063 51.8447C2.01063 51.75 2.02216 51.6411 2.04521 51.5181C2.06698 51.3939 2.11245 51.2741 2.18162 51.1589C2.25078 51.0423 2.35516 50.9456 2.49477 50.8688C2.63438 50.7919 2.82137 50.7535 3.05576 50.7535H5V51.2069H4.60039V51.23C4.66443 51.2607 4.73295 51.3119 4.80596 51.3837C4.87897 51.4554 4.94108 51.5508 4.99232 51.6699C5.04355 51.789 5.06916 51.9344 5.06916 52.106ZM4.66187 52.0369C4.66187 51.8575 4.62665 51.7064 4.55621 51.5835C4.48576 51.4592 4.39483 51.3657 4.2834 51.303C4.17197 51.2389 4.05478 51.2069 3.93182 51.2069H3.51684C3.5399 51.2261 3.56103 51.2684 3.58024 51.3337C3.59817 51.3977 3.61418 51.472 3.62827 51.5566C3.64108 51.6398 3.65261 51.7211 3.66285 51.8006C3.67182 51.8787 3.6795 51.9421 3.68591 51.9907C3.70128 52.1086 3.72625 52.2187 3.76083 52.3212C3.79413 52.4224 3.84473 52.5043 3.91261 52.5671C3.97921 52.6286 4.07014 52.6593 4.18542 52.6593C4.34295 52.6593 4.46207 52.601 4.54276 52.4845C4.62217 52.3667 4.66187 52.2174 4.66187 52.0369ZM2.70994 47.8357L2.82521 48.243C2.75733 48.2686 2.69137 48.3064 2.62733 48.3563C2.56201 48.405 2.50822 48.4716 2.46595 48.5561C2.42369 48.6407 2.40255 48.7489 2.40255 48.8808C2.40255 49.0614 2.44418 49.2119 2.52743 49.3323C2.6094 49.4514 2.71379 49.511 2.84058 49.511C2.95329 49.511 3.04231 49.47 3.10763 49.388C3.17295 49.306 3.22738 49.178 3.27093 49.0038L3.37852 48.5657C3.44256 48.3019 3.54054 48.1053 3.67246 47.9759C3.8031 47.8466 3.97152 47.7819 4.17773 47.7819C4.3468 47.7819 4.49793 47.8306 4.63113 47.9279C4.76433 48.024 4.86936 48.1585 4.94621 48.3314C5.02305 48.5043 5.06148 48.7054 5.06148 48.9346C5.06148 49.2356 4.99616 49.4847 4.86552 49.682C4.73488 49.8792 4.54404 50.0041 4.293 50.0566L4.18542 49.6262C4.34423 49.5853 4.46335 49.5078 4.54276 49.3938C4.62217 49.2785 4.66187 49.128 4.66187 48.9423C4.66187 48.731 4.61704 48.5632 4.52739 48.439C4.43645 48.3134 4.32758 48.2507 4.20079 48.2507C4.09832 48.2507 4.01251 48.2865 3.94335 48.3583C3.8729 48.43 3.82039 48.5401 3.78581 48.6887L3.67054 49.1805C3.6065 49.4508 3.50724 49.6493 3.37275 49.7761C3.23699 49.9016 3.06728 49.9644 2.86364 49.9644C2.69713 49.9644 2.54984 49.9176 2.42176 49.8241C2.29369 49.7293 2.19314 49.6006 2.12014 49.438C2.04713 49.274 2.01063 49.0883 2.01063 48.8808C2.01063 48.5888 2.07467 48.3595 2.20275 48.193C2.33083 48.0253 2.49989 47.9061 2.70994 47.8357ZM2.70994 45.0091L2.82521 45.4164C2.75733 45.4421 2.69137 45.4798 2.62733 45.5298C2.56201 45.5785 2.50822 45.6451 2.46595 45.7296C2.42369 45.8141 2.40255 45.9224 2.40255 46.0543C2.40255 46.2349 2.44418 46.3854 2.52743 46.5058C2.6094 46.6249 2.71379 46.6844 2.84058 46.6844C2.95329 46.6844 3.04231 46.6434 3.10763 46.5615C3.17295 46.4795 3.22738 46.3514 3.27093 46.1772L3.37852 45.7392C3.44256 45.4754 3.54054 45.2788 3.67246 45.1494C3.8031 45.02 3.97152 44.9554 4.17773 44.9554C4.3468 44.9554 4.49793 45.004 4.63113 45.1014C4.76433 45.1974 4.86936 45.3319 4.94621 45.5048C5.02305 45.6777 5.06148 45.8788 5.06148 46.1081C5.06148 46.4091 4.99616 46.6582 4.86552 46.8554C4.73488 47.0527 4.54404 47.1775 4.293 47.23L4.18542 46.7997C4.34423 46.7587 4.46335 46.6812 4.54276 46.5672C4.62217 46.452 4.66187 46.3015 4.66187 46.1158C4.66187 45.9044 4.61704 45.7366 4.52739 45.6124C4.43645 45.4869 4.32758 45.4241 4.20079 45.4241C4.09832 45.4241 4.01251 45.46 3.94335 45.5317C3.8729 45.6034 3.82039 45.7136 3.78581 45.8622L3.67054 46.354C3.6065 46.6242 3.50724 46.8228 3.37275 46.9495C3.23699 47.0751 3.06728 47.1378 2.86364 47.1378C2.69713 47.1378 2.54984 47.0911 2.42176 46.9976C2.29369 46.9028 2.19314 46.7741 2.12014 46.6114C2.04713 46.4475 2.01063 46.2618 2.01063 46.0543C2.01063 45.7623 2.07467 45.533 2.20275 45.3665C2.33083 45.1987 2.49989 45.0796 2.70994 45.0091ZM5.58404 41.8349C5.58404 42.2434 5.52833 42.6072 5.4169 42.9261C5.30675 43.245 5.14537 43.5146 4.93276 43.7349C4.71887 43.9552 4.45822 44.123 4.15083 44.2383C3.84344 44.3535 3.49379 44.4112 3.10187 44.4112C2.71507 44.4112 2.36413 44.3535 2.04905 44.2383C1.73398 44.1217 1.46373 43.952 1.23831 43.7292C1.01161 43.5063 0.837424 43.2341 0.715749 42.9127C0.594074 42.5899 0.533236 42.2223 0.533236 41.8099C0.533236 41.4282 0.58895 41.0875 0.70038 40.7878C0.811808 40.4868 0.970627 40.232 1.17683 40.0232C1.38176 39.8131 1.62575 39.6537 1.90881 39.5448C2.19058 39.4347 2.50245 39.3802 2.84443 39.3815C3.08009 39.3802 3.29655 39.4007 3.49379 39.443C3.69103 39.4853 3.8633 39.5519 4.01059 39.6428C4.1566 39.7324 4.27251 39.8503 4.35832 39.9963C4.44286 40.1423 4.49088 40.319 4.50241 40.5265C4.51394 40.6751 4.50305 40.7955 4.46975 40.8877C4.43645 40.9799 4.38714 41.0504 4.32182 41.099C4.25522 41.1464 4.17773 41.1772 4.08936 41.1913V41.2143C4.1662 41.2451 4.23601 41.3053 4.29877 41.3949C4.36024 41.4846 4.40827 41.5941 4.44286 41.7234C4.47616 41.8515 4.48832 41.9879 4.47936 42.1326C4.47039 42.2838 4.43517 42.4272 4.37369 42.563C4.31221 42.6975 4.2232 42.8172 4.10665 42.9223C3.9901 43.026 3.84601 43.108 3.67438 43.1682C3.50275 43.2271 3.30423 43.2572 3.07881 43.2585C2.85595 43.2572 2.66191 43.2258 2.49669 43.1643C2.33147 43.1016 2.1925 43.019 2.07979 42.9165C1.96708 42.8127 1.87871 42.6975 1.81467 42.5707C1.75063 42.4439 1.70964 42.3164 1.69171 42.1884C1.66994 42.0436 1.66994 41.9066 1.69171 41.7772C1.71349 41.6479 1.74871 41.539 1.79738 41.4506C1.84605 41.361 1.89856 41.3053 1.95492 41.2835V41.2566H1.73974L1.73974 40.6553H3.61482C3.7032 40.654 3.77172 40.6341 3.82039 40.5957C3.86906 40.5573 3.8934 40.5054 3.8934 40.4401C3.8934 40.3517 3.85433 40.2781 3.7762 40.2191C3.69807 40.1589 3.57832 40.1141 3.41694 40.0847C3.25556 40.0539 3.04999 40.0386 2.80024 40.0386C2.55945 40.0386 2.34812 40.0706 2.16625 40.1346C1.98309 40.1974 1.82748 40.2857 1.6994 40.3997C1.57004 40.5124 1.46501 40.6437 1.38432 40.7936C1.30363 40.9434 1.24472 41.1061 1.20757 41.2816C1.17043 41.4557 1.15186 41.6351 1.15186 41.8195C1.15186 42.1384 1.20053 42.417 1.29787 42.6552C1.39393 42.8934 1.52905 43.092 1.70324 43.2508C1.87743 43.4096 2.08171 43.5287 2.3161 43.6081C2.5492 43.6863 2.80344 43.726 3.07881 43.7272C3.38236 43.726 3.65133 43.6837 3.88571 43.6004C4.11881 43.5159 4.31478 43.3917 4.47359 43.2277C4.63241 43.0638 4.75281 42.8614 4.83478 42.6206C4.91675 42.3798 4.95773 42.1032 4.95773 41.7907C4.95773 41.6434 4.94749 41.4993 4.92699 41.3584C4.90522 41.2175 4.87961 41.0901 4.85015 40.9761C4.81941 40.8621 4.78995 40.7705 4.76177 40.7014L5.31892 40.5112C5.36503 40.5919 5.40793 40.7014 5.44764 40.8397C5.48862 40.9767 5.52128 41.1317 5.54562 41.3046C5.57123 41.4762 5.58404 41.653 5.58404 41.8349ZM3.84729 41.9232C3.84729 41.767 3.81719 41.6427 3.75699 41.5505C3.69679 41.457 3.60778 41.3904 3.48995 41.3507C3.37083 41.3097 3.22418 41.2905 3.04999 41.2931C2.8963 41.2944 2.7663 41.3142 2.65999 41.3526C2.55241 41.3898 2.47108 41.4545 2.416 41.5467C2.35965 41.6376 2.33147 41.7644 2.33147 41.9271C2.33147 42.0692 2.36157 42.1903 2.42176 42.2902C2.48196 42.3888 2.56649 42.4644 2.67536 42.5169C2.78295 42.5681 2.90975 42.5944 3.05576 42.5957C3.19152 42.5944 3.32024 42.5726 3.44192 42.5303C3.56231 42.4881 3.66029 42.4183 3.73586 42.3209C3.81014 42.2236 3.84729 42.091 3.84729 41.9232ZM1.06541 37.0833H5V37.9152H1.85501V37.9382L2.41984 38.8393H1.68211L1.06541 37.8652L1.06541 37.0833Z" fill="#262626"/>
<mask id="mask10_4200_5693" style="mask-type:luminance" maskUnits="userSpaceOnUse" x="22" y="8" width="210" height="77">
<path d="M231.893 8.49554H22.5095V84.6433H231.893V8.49554Z" fill="white"/>
</mask>
<g mask="url(#mask10_4200_5693)">
<path d="M32.0269 84.6433H42.0452V12.1216H32.0269V84.6433Z" fill="#2A2EEC" stroke="white" stroke-width="0.471972"/>
</g>
<mask id="mask11_4200_5693" style="mask-type:luminance" maskUnits="userSpaceOnUse" x="22" y="8" width="210" height="77">
<path d="M231.893 8.49554H22.5095V84.6433H231.893V8.49554Z" fill="white"/>
</mask>
<g mask="url(#mask11_4200_5693)">
<path d="M72.1006 84.6432H82.1189V22.9998H72.1006V84.6432Z" fill="#2A2EEC" stroke="white" stroke-width="0.471972"/>
</g>
<mask id="mask12_4200_5693" style="mask-type:luminance" maskUnits="userSpaceOnUse" x="22" y="8" width="210" height="77">
<path d="M231.893 8.49554H22.5095V84.6433H231.893V8.49554Z" fill="white"/>
</mask>
<g mask="url(#mask12_4200_5693)">
<path d="M112.174 84.6432H122.192V15.7477H112.174V84.6432Z" fill="#2A2EEC" stroke="white" stroke-width="0.471972"/>
</g>
<mask id="mask13_4200_5693" style="mask-type:luminance" maskUnits="userSpaceOnUse" x="22" y="8" width="210" height="77">
<path d="M231.893 8.49554H22.5095V84.6433H231.893V8.49554Z" fill="white"/>
</mask>
<g mask="url(#mask13_4200_5693)">
<path d="M152.247 84.6433H162.265V12.1216H152.247V84.6433Z" fill="#2A2EEC" stroke="white" stroke-width="0.471972"/>
</g>
<mask id="mask14_4200_5693" style="mask-type:luminance" maskUnits="userSpaceOnUse" x="22" y="8" width="210" height="77">
<path d="M231.893 8.49554H22.5095V84.6433H231.893V8.49554Z" fill="white"/>
</mask>
<g mask="url(#mask14_4200_5693)">
<path d="M192.321 84.6433H202.339V30.2521H192.321V84.6433Z" fill="#2A2EEC" stroke="white" stroke-width="0.471972"/>
</g>
<mask id="mask15_4200_5693" style="mask-type:luminance" maskUnits="userSpaceOnUse" x="22" y="8" width="210" height="77">
<path d="M231.893 8.49554H22.5095V84.6433H231.893V8.49554Z" fill="white"/>
</mask>
<g mask="url(#mask15_4200_5693)">
<path d="M42.0454 84.6432H52.0638V66.5128H42.0454V84.6432Z" fill="#FA7C17" stroke="white" stroke-width="0.471972"/>
</g>
<mask id="mask16_4200_5693" style="mask-type:luminance" maskUnits="userSpaceOnUse" x="22" y="8" width="210" height="77">
<path d="M231.893 8.49554H22.5095V84.6433H231.893V8.49554Z" fill="white"/>
</mask>
<g mask="url(#mask16_4200_5693)">
<path d="M82.1189 84.6433H92.1372V73.7651H82.1189V84.6433Z" fill="#FA7C17" stroke="white" stroke-width="0.471972"/>
</g>
<mask id="mask17_4200_5693" style="mask-type:luminance" maskUnits="userSpaceOnUse" x="22" y="8" width="210" height="77">
<path d="M231.893 8.49554H22.5095V84.6433H231.893V8.49554Z" fill="white"/>
</mask>
<g mask="url(#mask17_4200_5693)">
<path d="M122.192 84.6433H132.21V62.8868H122.192V84.6433Z" fill="#FA7C17" stroke="white" stroke-width="0.471972"/>
</g>
<mask id="mask18_4200_5693" style="mask-type:luminance" maskUnits="userSpaceOnUse" x="22" y="8" width="210" height="77">
<path d="M231.893 8.49554H22.5095V84.6433H231.893V8.49554Z" fill="white"/>
</mask>
<g mask="url(#mask18_4200_5693)">
<path d="M162.265 84.6433H172.284V48.3824H162.265V84.6433Z" fill="#FA7C17" stroke="white" stroke-width="0.471972"/>
</g>
<mask id="mask19_4200_5693" style="mask-type:luminance" maskUnits="userSpaceOnUse" x="22" y="8" width="210" height="77">
<path d="M231.893 8.49554H22.5095V84.6433H231.893V8.49554Z" fill="white"/>
</mask>
<g mask="url(#mask19_4200_5693)">
<path d="M202.339 84.6433H212.357V73.7651H202.339V84.6433Z" fill="#FA7C17" stroke="white" stroke-width="0.471972"/>
</g>
<mask id="mask20_4200_5693" style="mask-type:luminance" maskUnits="userSpaceOnUse" x="22" y="8" width="210" height="77">
<path d="M231.893 8.49554H22.5095V84.6433H231.893V8.49554Z" fill="white"/>
</mask>
<g mask="url(#mask20_4200_5693)">
<path d="M52.0635 84.6433H62.0818V37.5042H52.0635V84.6433Z" fill="#328C06" stroke="white" stroke-width="0.471972"/>
</g>
<mask id="mask21_4200_5693" style="mask-type:luminance" maskUnits="userSpaceOnUse" x="22" y="8" width="210" height="77">
<path d="M231.893 8.49554H22.5095V84.6433H231.893V8.49554Z" fill="white"/>
</mask>
<g mask="url(#mask21_4200_5693)">
<path d="M92.1372 84.6433H102.156V77.3912H92.1372V84.6433Z" fill="#328C06" stroke="white" stroke-width="0.471972"/>
</g>
<mask id="mask22_4200_5693" style="mask-type:luminance" maskUnits="userSpaceOnUse" x="22" y="8" width="210" height="77">
<path d="M231.893 8.49554H22.5095V84.6433H231.893V8.49554Z" fill="white"/>
</mask>
<g mask="url(#mask22_4200_5693)">
<path d="M132.21 84.6433H142.229V37.5042H132.21V84.6433Z" fill="#328C06" stroke="white" stroke-width="0.471972"/>
</g>
<mask id="mask23_4200_5693" style="mask-type:luminance" maskUnits="userSpaceOnUse" x="22" y="8" width="210" height="77">
<path d="M231.893 8.49554H22.5095V84.6433H231.893V8.49554Z" fill="white"/>
</mask>
<g mask="url(#mask23_4200_5693)">
<path d="M172.284 84.6433H182.302V30.2521H172.284V84.6433Z" fill="#328C06" stroke="white" stroke-width="0.471972"/>
</g>
<mask id="mask24_4200_5693" style="mask-type:luminance" maskUnits="userSpaceOnUse" x="22" y="8" width="210" height="77">
<path d="M231.893 8.49554H22.5095V84.6433H231.893V8.49554Z" fill="white"/>
</mask>
<g mask="url(#mask24_4200_5693)">
<path d="M212.357 84.6433H222.376V52.0085H212.357V84.6433Z" fill="#328C06" stroke="white" stroke-width="0.471972"/>
</g>
<path d="M22.5095 84.6433V8.49554" stroke="#CCCCCC" stroke-width="0.471972" stroke-linecap="square"/>
<path d="M231.893 84.6433V8.49554" stroke="#CCCCCC" stroke-width="0.471972" stroke-linecap="square"/>
<path d="M22.5095 84.6432H231.893" stroke="#CCCCCC" stroke-width="0.471972" stroke-linecap="square"/>
<path d="M22.5095 8.49554H231.893" stroke="#CCCCCC" stroke-width="0.471972" stroke-linecap="square"/>
<path d="M103.008 2.32345V1.88097H106.098V2.32345H104.802V6H104.304V2.32345H103.008ZM107.65 6.06436C107.353 6.06436 107.096 5.99866 106.88 5.86726C106.665 5.73452 106.5 5.54948 106.383 5.31215C106.268 5.07349 106.21 4.79594 106.21 4.4795C106.21 4.16306 106.268 3.88417 106.383 3.64282C106.5 3.40013 106.662 3.21108 106.87 3.07565C107.079 2.93889 107.323 2.8705 107.602 2.8705C107.763 2.8705 107.922 2.89732 108.079 2.95095C108.236 3.00459 108.378 3.09174 108.507 3.21242C108.636 3.33175 108.738 3.48997 108.815 3.68707C108.891 3.88417 108.929 4.12686 108.929 4.41514V4.61626H106.548V4.20597H108.447C108.447 4.03166 108.412 3.87613 108.342 3.73936C108.274 3.6026 108.176 3.49466 108.049 3.41555C107.922 3.33644 107.774 3.29689 107.602 3.29689C107.413 3.29689 107.249 3.34382 107.111 3.43768C106.975 3.53019 106.869 3.65087 106.796 3.7997C106.722 3.94853 106.685 4.10809 106.685 4.27838V4.5519C106.685 4.78521 106.725 4.98298 106.806 5.14522C106.887 5.30612 107.001 5.42881 107.145 5.51328C107.29 5.59641 107.459 5.63798 107.65 5.63798C107.775 5.63798 107.888 5.62055 107.988 5.58568C108.09 5.54948 108.178 5.49585 108.252 5.42478C108.325 5.35238 108.382 5.26254 108.423 5.15528L108.881 5.284C108.833 5.43953 108.752 5.5763 108.638 5.69429C108.524 5.81094 108.383 5.90212 108.215 5.96782C108.048 6.03218 107.859 6.06436 107.65 6.06436ZM109.651 6V2.91073H110.11V3.39343H110.15C110.215 3.22851 110.319 3.10046 110.462 3.00928C110.605 2.91676 110.778 2.8705 110.979 2.8705C111.183 2.8705 111.352 2.91676 111.488 3.00928C111.625 3.10046 111.731 3.22851 111.808 3.39343H111.84C111.919 3.23387 112.038 3.10716 112.196 3.0133C112.354 2.9181 112.544 2.8705 112.765 2.8705C113.041 2.8705 113.267 2.95699 113.443 3.12995C113.618 3.30158 113.706 3.56908 113.706 3.93244V6H113.232V3.93244C113.232 3.7045 113.169 3.54159 113.044 3.44371C112.92 3.34583 112.773 3.29689 112.604 3.29689C112.387 3.29689 112.219 3.36259 112.099 3.49399C111.98 3.62405 111.92 3.78897 111.92 3.98876V6H111.437V3.88417C111.437 3.70852 111.38 3.56707 111.267 3.4598C111.153 3.35119 111.006 3.29689 110.826 3.29689C110.703 3.29689 110.587 3.32974 110.48 3.39544C110.374 3.46114 110.288 3.55232 110.223 3.66897C110.158 3.78428 110.126 3.91769 110.126 4.06921V6H109.651ZM114.574 7.15848V2.91073H115.033V3.40147H115.089C115.124 3.34784 115.172 3.27946 115.234 3.19633C115.297 3.11185 115.387 3.03677 115.503 2.97107C115.621 2.90403 115.781 2.8705 115.982 2.8705C116.242 2.8705 116.471 2.93553 116.67 3.0656C116.868 3.19566 117.023 3.38002 117.134 3.61869C117.246 3.85735 117.301 4.13893 117.301 4.46341C117.301 4.79057 117.246 5.07416 117.134 5.31417C117.023 5.55283 116.869 5.73787 116.672 5.86927C116.475 5.99933 116.247 6.06436 115.99 6.06436C115.791 6.06436 115.633 6.03151 115.513 5.96581C115.394 5.89877 115.302 5.82301 115.238 5.73854C115.173 5.65273 115.124 5.58166 115.089 5.52535H115.049V7.15848H114.574ZM115.041 4.45536C115.041 4.68867 115.075 4.89449 115.143 5.07282C115.212 5.24981 115.311 5.38858 115.443 5.48914C115.574 5.58837 115.735 5.63798 115.926 5.63798C116.124 5.63798 116.29 5.58568 116.422 5.4811C116.556 5.37517 116.657 5.23305 116.724 5.05472C116.792 4.87504 116.827 4.67526 116.827 4.45536C116.827 4.23815 116.793 4.04239 116.726 3.86808C116.66 3.69243 116.56 3.55366 116.426 3.45175C116.294 3.34851 116.127 3.29689 115.926 3.29689C115.732 3.29689 115.57 3.34583 115.439 3.44371C115.307 3.54025 115.208 3.67567 115.141 3.84998C115.074 4.02295 115.041 4.22474 115.041 4.45536ZM119.321 6.06436C119.023 6.06436 118.766 5.99866 118.55 5.86726C118.336 5.73452 118.17 5.54948 118.053 5.31215C117.938 5.07349 117.881 4.79594 117.881 4.4795C117.881 4.16306 117.938 3.88417 118.053 3.64282C118.17 3.40013 118.332 3.21108 118.54 3.07565C118.749 2.93889 118.993 2.8705 119.272 2.8705C119.433 2.8705 119.592 2.89732 119.749 2.95095C119.906 3.00459 120.049 3.09174 120.177 3.21242C120.306 3.33175 120.409 3.48997 120.485 3.68707C120.561 3.88417 120.6 4.12686 120.6 4.41514V4.61626H118.218V4.20597H120.117C120.117 4.03166 120.082 3.87613 120.012 3.73936C119.944 3.6026 119.846 3.49466 119.719 3.41555C119.593 3.33644 119.444 3.29689 119.272 3.29689C119.083 3.29689 118.92 3.34382 118.782 3.43768C118.645 3.53019 118.54 3.65087 118.466 3.7997C118.392 3.94853 118.355 4.10809 118.355 4.27838V4.5519C118.355 4.78521 118.395 4.98298 118.476 5.14522C118.558 5.30612 118.671 5.42881 118.816 5.51328C118.961 5.59641 119.129 5.63798 119.321 5.63798C119.445 5.63798 119.558 5.62055 119.658 5.58568C119.76 5.54948 119.848 5.49585 119.922 5.42478C119.996 5.35238 120.053 5.26254 120.093 5.15528L120.551 5.284C120.503 5.43953 120.422 5.5763 120.308 5.69429C120.194 5.81094 120.053 5.90212 119.886 5.96782C119.718 6.03218 119.53 6.06436 119.321 6.06436ZM121.322 6V2.91073H121.78V3.37734H121.812C121.869 3.22448 121.971 3.10046 122.118 3.00526C122.266 2.91006 122.432 2.86246 122.617 2.86246C122.652 2.86246 122.695 2.86313 122.748 2.86447C122.8 2.86581 122.84 2.86782 122.866 2.8705V3.3532C122.85 3.34918 122.813 3.34315 122.756 3.3351C122.699 3.32572 122.64 3.32102 122.577 3.32102C122.427 3.32102 122.292 3.35253 122.175 3.41555C122.058 3.47723 121.965 3.56304 121.897 3.67299C121.83 3.7816 121.796 3.90562 121.796 4.04507V6H121.322ZM124.338 6.0724C124.142 6.0724 123.965 6.03553 123.805 5.96179C123.646 5.8867 123.519 5.77876 123.425 5.63798C123.331 5.49585 123.284 5.32422 123.284 5.1231C123.284 4.94611 123.319 4.80264 123.389 4.69269C123.459 4.5814 123.552 4.49425 123.668 4.43123C123.785 4.36821 123.914 4.32128 124.055 4.29044C124.197 4.25826 124.339 4.23279 124.483 4.21402C124.671 4.18988 124.823 4.17178 124.939 4.15971C125.057 4.1463 125.143 4.12418 125.197 4.09334C125.252 4.0625 125.279 4.00887 125.279 3.93244V3.91635C125.279 3.71791 125.225 3.56371 125.116 3.45377C125.009 3.34382 124.846 3.28884 124.628 3.28884C124.401 3.28884 124.223 3.33845 124.095 3.43768C123.966 3.5369 123.876 3.64282 123.823 3.75545L123.373 3.59455C123.453 3.40684 123.56 3.26069 123.695 3.1561C123.83 3.05018 123.977 2.97643 124.137 2.93486C124.298 2.89196 124.456 2.8705 124.612 2.8705C124.711 2.8705 124.825 2.88257 124.954 2.90671C125.084 2.9295 125.209 2.9771 125.33 3.04951C125.452 3.12191 125.553 3.23119 125.633 3.37734C125.714 3.52349 125.754 3.71925 125.754 3.96462V6H125.279V5.58166H125.255C125.223 5.6487 125.169 5.72044 125.094 5.79686C125.019 5.87329 124.919 5.93832 124.795 5.99196C124.67 6.04559 124.518 6.0724 124.338 6.0724ZM124.411 5.64602C124.598 5.64602 124.756 5.60915 124.885 5.5354C125.015 5.46166 125.113 5.36646 125.179 5.24981C125.246 5.13315 125.279 5.01047 125.279 4.88175V4.44732C125.259 4.47145 125.215 4.49358 125.147 4.51369C125.08 4.53246 125.002 4.54922 124.913 4.56397C124.826 4.57738 124.741 4.58945 124.658 4.60017C124.576 4.60956 124.51 4.61761 124.459 4.62431C124.335 4.6404 124.22 4.66655 124.113 4.70275C124.007 4.73761 123.921 4.79057 123.855 4.86164C123.791 4.93136 123.759 5.02656 123.759 5.14723C123.759 5.31215 123.82 5.43685 123.942 5.52132C124.065 5.60446 124.221 5.64602 124.411 5.64602ZM127.964 2.91073V3.31298H126.363V2.91073H127.964ZM126.83 2.17059H127.304V5.11505C127.304 5.24914 127.324 5.3497 127.363 5.41674C127.403 5.48244 127.454 5.52669 127.515 5.54948C127.578 5.57093 127.645 5.58166 127.714 5.58166C127.767 5.58166 127.81 5.57898 127.843 5.57362C127.877 5.56691 127.904 5.56155 127.924 5.55753L128.02 5.98391C127.988 5.99598 127.943 6.00804 127.885 6.02011C127.828 6.03352 127.755 6.04022 127.666 6.04022C127.532 6.04022 127.401 6.0114 127.272 5.95374C127.145 5.89609 127.039 5.80826 126.954 5.69027C126.871 5.57228 126.83 5.42344 126.83 5.24377V2.17059ZM130.625 4.73694V2.91073H131.099V6H130.625V5.47708H130.593C130.52 5.63395 130.408 5.76737 130.255 5.87731C130.102 5.98592 129.909 6.04022 129.675 6.04022C129.482 6.04022 129.311 5.99799 129.161 5.91352C129.01 5.8277 128.892 5.69898 128.807 5.52736C128.721 5.35439 128.678 5.13651 128.678 4.8737V2.91073H129.153V4.84152C129.153 5.06678 129.216 5.24645 129.342 5.38054C129.469 5.51462 129.631 5.58166 129.828 5.58166C129.946 5.58166 130.066 5.55149 130.188 5.49116C130.312 5.43082 130.415 5.3383 130.498 5.2136C130.583 5.08891 130.625 4.93002 130.625 4.73694ZM131.969 6V2.91073H132.427V3.37734H132.46C132.516 3.22448 132.618 3.10046 132.765 3.00526C132.913 2.91006 133.079 2.86246 133.264 2.86246C133.299 2.86246 133.342 2.86313 133.395 2.86447C133.447 2.86581 133.487 2.86782 133.513 2.8705V3.3532C133.497 3.34918 133.46 3.34315 133.403 3.3351C133.346 3.32572 133.287 3.32102 133.224 3.32102C133.074 3.32102 132.94 3.35253 132.822 3.41555C132.705 3.47723 132.612 3.56304 132.544 3.67299C132.477 3.7816 132.443 3.90562 132.443 4.04507V6H131.969ZM135.277 6.06436C134.98 6.06436 134.723 5.99866 134.507 5.86726C134.292 5.73452 134.127 5.54948 134.01 5.31215C133.895 5.07349 133.837 4.79594 133.837 4.4795C133.837 4.16306 133.895 3.88417 134.01 3.64282C134.127 3.40013 134.289 3.21108 134.497 3.07565C134.706 2.93889 134.95 2.8705 135.229 2.8705C135.39 2.8705 135.549 2.89732 135.706 2.95095C135.863 3.00459 136.005 3.09174 136.134 3.21242C136.263 3.33175 136.365 3.48997 136.442 3.68707C136.518 3.88417 136.556 4.12686 136.556 4.41514V4.61626H134.175V4.20597H136.074C136.074 4.03166 136.039 3.87613 135.969 3.73936C135.901 3.6026 135.803 3.49466 135.675 3.41555C135.549 3.33644 135.401 3.29689 135.229 3.29689C135.04 3.29689 134.876 3.34382 134.738 3.43768C134.601 3.53019 134.496 3.65087 134.422 3.7997C134.349 3.94853 134.312 4.10809 134.312 4.27838V4.5519C134.312 4.78521 134.352 4.98298 134.433 5.14522C134.514 5.30612 134.628 5.42881 134.772 5.51328C134.917 5.59641 135.086 5.63798 135.277 5.63798C135.402 5.63798 135.515 5.62055 135.615 5.58568C135.717 5.54948 135.805 5.49585 135.879 5.42478C135.952 5.35238 136.009 5.26254 136.05 5.15528L136.508 5.284C136.46 5.43953 136.379 5.5763 136.265 5.69429C136.151 5.81094 136.01 5.90212 135.842 5.96782C135.675 6.03218 135.486 6.06436 135.277 6.06436ZM139.064 3.56237V3.12794H141.542V3.56237H139.064ZM139.064 4.75303V4.3186H141.542V4.75303H139.064ZM145.533 6.05631C145.23 6.05631 144.972 5.97385 144.759 5.80893C144.546 5.64267 144.383 5.40199 144.27 5.0869C144.157 4.77046 144.101 4.38832 144.101 3.94049C144.101 3.49533 144.157 3.11521 144.27 2.80011C144.384 2.48368 144.548 2.24233 144.761 2.07606C144.975 1.90846 145.233 1.82466 145.533 1.82466C145.833 1.82466 146.09 1.90846 146.303 2.07606C146.518 2.24233 146.682 2.48368 146.794 2.80011C146.908 3.11521 146.965 3.49533 146.965 3.94049C146.965 4.38832 146.909 4.77046 146.796 5.0869C146.684 5.40199 146.521 5.64267 146.307 5.80893C146.094 5.97385 145.836 6.05631 145.533 6.05631ZM145.533 5.61384C145.833 5.61384 146.067 5.46903 146.233 5.17941C146.399 4.88979 146.482 4.47682 146.482 3.94049C146.482 3.58383 146.444 3.28013 146.368 3.02939C146.293 2.77866 146.184 2.58759 146.042 2.45619C145.901 2.32479 145.732 2.25909 145.533 2.25909C145.235 2.25909 145.003 2.40591 144.835 2.69955C144.668 2.99185 144.584 3.4055 144.584 3.94049C144.584 4.29715 144.621 4.60017 144.696 4.84957C144.771 5.09896 144.879 5.28869 145.02 5.41875C145.162 5.54881 145.333 5.61384 145.533 5.61384ZM147.94 6.03218C147.84 6.03218 147.755 5.99665 147.684 5.92558C147.613 5.85452 147.578 5.76938 147.578 5.67016C147.578 5.57093 147.613 5.48579 147.684 5.41473C147.755 5.34366 147.84 5.30813 147.94 5.30813C148.039 5.30813 148.124 5.34366 148.195 5.41473C148.266 5.48579 148.302 5.57093 148.302 5.67016C148.302 5.73586 148.285 5.79619 148.251 5.85117C148.219 5.90614 148.176 5.95039 148.121 5.98391C148.067 6.01609 148.007 6.03218 147.94 6.03218ZM150.345 6.05631C150.042 6.05631 149.784 5.97385 149.571 5.80893C149.357 5.64267 149.195 5.40199 149.082 5.0869C148.969 4.77046 148.913 4.38832 148.913 3.94049C148.913 3.49533 148.969 3.11521 149.082 2.80011C149.196 2.48368 149.359 2.24233 149.573 2.07606C149.787 1.90846 150.045 1.82466 150.345 1.82466C150.645 1.82466 150.902 1.90846 151.115 2.07606C151.33 2.24233 151.493 2.48368 151.606 2.80011C151.72 3.11521 151.777 3.49533 151.777 3.94049C151.777 4.38832 151.721 4.77046 151.608 5.0869C151.495 5.40199 151.333 5.64267 151.119 5.80893C150.906 5.97385 150.648 6.05631 150.345 6.05631ZM150.345 5.61384C150.645 5.61384 150.879 5.46903 151.045 5.17941C151.211 4.88979 151.294 4.47682 151.294 3.94049C151.294 3.58383 151.256 3.28013 151.18 3.02939C151.105 2.77866 150.996 2.58759 150.854 2.45619C150.713 2.32479 150.543 2.25909 150.345 2.25909C150.047 2.25909 149.815 2.40591 149.647 2.69955C149.479 2.99185 149.396 3.4055 149.396 3.94049C149.396 4.29715 149.433 4.60017 149.508 4.84957C149.583 5.09896 149.691 5.28869 149.832 5.41875C149.974 5.54881 150.145 5.61384 150.345 5.61384Z" fill="#262626"/>
</svg>
