<svg width="233" height="127" viewBox="0 0 233 127" fill="none" xmlns="http://www.w3.org/2000/svg">
<g clip-path="url(#clip0_4200_6569)">
<path d="M0 127H233V0H0V127Z" fill="white"/>
<path d="M24.6567 85.176H229.641V11.1534H24.6567V85.176Z" fill="white"/>
<mask id="mask0_4200_6569" style="mask-type:luminance" maskUnits="userSpaceOnUse" x="24" y="11" width="206" height="75">
<path d="M229.641 11.1534H24.6567V85.176H229.641V11.1534Z" fill="white"/>
</mask>
<g mask="url(#mask0_4200_6569)">
<path d="M48.686 85.176V11.1534" stroke="#CCCCCC" stroke-width="0.450839" stroke-linecap="round"/>
</g>
<path d="M15.158 121.249C14.9608 121.443 14.7443 121.565 14.5087 121.613C14.2731 121.662 14.0353 121.643 13.7951 121.558C13.5549 121.473 13.3298 121.327 13.1198 121.12C12.9061 120.91 12.7568 120.686 12.6719 120.448C12.587 120.208 12.5692 119.973 12.6185 119.743C12.6678 119.512 12.7874 119.302 12.9773 119.116C13.1253 118.97 13.286 118.866 13.4595 118.803C13.633 118.74 13.807 118.72 13.9814 118.742C14.1558 118.765 14.3179 118.832 14.4676 118.943L14.1444 119.261C14.0238 119.191 13.8841 119.161 13.7252 119.172C13.5663 119.181 13.4157 119.256 13.2732 119.396C13.1472 119.52 13.0696 119.661 13.0404 119.819C13.0111 119.975 13.0294 120.138 13.0951 120.306C13.1609 120.473 13.2732 120.635 13.4321 120.791C13.5946 120.951 13.7618 121.065 13.9334 121.134C14.106 121.201 14.2727 121.221 14.4334 121.194C14.595 121.166 14.7398 121.09 14.8676 120.964C14.9516 120.881 15.0133 120.792 15.0525 120.696C15.0918 120.6 15.1078 120.501 15.1005 120.401C15.0932 120.3 15.0612 120.202 15.0046 120.107L15.3279 119.789C15.4338 119.929 15.5005 120.084 15.5278 120.253C15.5552 120.42 15.5393 120.59 15.4799 120.763C15.4205 120.935 15.3132 121.097 15.158 121.249ZM13.9321 116.851L16.7373 119.61L16.4141 119.928L13.6088 117.169L13.9321 116.851ZM17.9979 118.467C17.8646 118.598 17.7184 118.693 17.5596 118.75C17.3997 118.807 17.2399 118.819 17.0801 118.788C16.9194 118.756 16.7706 118.672 16.6336 118.537C16.513 118.419 16.4391 118.299 16.4117 118.179C16.3834 118.058 16.3875 117.937 16.424 117.817C16.4605 117.696 16.5162 117.579 16.5911 117.464C16.666 117.347 16.7459 117.234 16.8308 117.126C16.9422 116.984 17.0336 116.87 17.1048 116.783C17.176 116.695 17.2194 116.623 17.2349 116.566C17.2514 116.509 17.2335 116.455 17.1815 116.403L17.1705 116.393C17.0354 116.26 16.8934 116.193 16.7445 116.192C16.5966 116.19 16.4482 116.262 16.2994 116.409C16.145 116.561 16.0578 116.713 16.0377 116.866C16.0177 117.018 16.0282 117.15 16.0692 117.26L15.6528 117.454C15.5798 117.275 15.5533 117.105 15.5734 116.945C15.5935 116.783 15.6437 116.635 15.7241 116.5C15.8044 116.364 15.8976 116.244 16.0035 116.139C16.0711 116.073 16.1569 116.005 16.261 115.935C16.3651 115.863 16.4829 115.811 16.6144 115.778C16.7468 115.745 16.8902 115.751 17.0445 115.795C17.1988 115.839 17.3596 115.943 17.5267 116.107L18.9129 117.47L18.5896 117.788L18.3047 117.508L18.2883 117.524C18.312 117.591 18.3243 117.675 18.3253 117.776C18.3262 117.878 18.3024 117.988 18.254 118.108C18.2056 118.227 18.1202 118.347 17.9979 118.467ZM17.7568 118.133C17.8846 118.007 17.9673 117.877 18.0047 117.741C18.0431 117.605 18.0449 117.475 18.0102 117.353C17.9764 117.23 17.9157 117.126 17.828 117.039L17.5322 116.748C17.5349 116.778 17.5198 116.822 17.487 116.882C17.4541 116.939 17.4125 117.002 17.3623 117.072C17.3121 117.139 17.2623 117.204 17.213 117.267C17.1637 117.328 17.124 117.378 17.0938 117.417C17.0208 117.51 16.9601 117.605 16.9117 117.701C16.8633 117.795 16.8409 117.888 16.8445 117.98C16.8482 118.069 16.8911 118.155 16.9733 118.236C17.0856 118.346 17.2121 118.389 17.3527 118.364C17.4933 118.337 17.628 118.26 17.7568 118.133ZM19.9686 114.74L18.7249 113.517L19.0481 113.199L21.1521 115.268L20.8288 115.586L20.4727 115.236L20.4508 115.257C20.5083 115.411 20.5225 115.576 20.4932 115.752C20.4631 115.927 20.3686 116.093 20.2097 116.249C20.0782 116.378 19.9326 116.465 19.7728 116.509C19.612 116.552 19.444 116.545 19.2687 116.487C19.0924 116.429 18.9148 116.312 18.7358 116.136L17.3989 114.821L17.7222 114.503L19.0372 115.796C19.1906 115.947 19.3559 116.025 19.533 116.031C19.7111 116.035 19.8673 115.971 20.0015 115.839C20.0819 115.76 20.143 115.66 20.185 115.538C20.228 115.415 20.2353 115.283 20.207 115.144C20.1796 115.004 20.1001 114.869 19.9686 114.74ZM22.5825 113.948C22.4072 114.12 22.2081 114.229 21.9853 114.274C21.7615 114.318 21.5305 114.297 21.2922 114.212C21.0529 114.126 20.8219 113.973 20.5991 113.754C20.3781 113.536 20.2242 113.311 20.1375 113.076C20.0507 112.842 20.0306 112.615 20.0772 112.394C20.1238 112.174 20.2356 111.977 20.4128 111.803C20.5497 111.668 20.6808 111.584 20.8059 111.551C20.931 111.516 21.0433 111.506 21.1429 111.522C21.2424 111.535 21.3223 111.548 21.3826 111.561L21.41 111.534L20.3744 110.515L20.6977 110.197L23.503 112.956L23.1907 113.263L22.8674 112.945L22.829 112.983C22.8437 113.044 22.8583 113.125 22.8729 113.226C22.8866 113.325 22.8756 113.438 22.84 113.562C22.8035 113.686 22.7176 113.815 22.5825 113.948ZM22.3359 113.619C22.4656 113.491 22.5414 113.35 22.5633 113.196C22.5843 113.041 22.5578 112.881 22.4839 112.716C22.409 112.551 22.2921 112.39 22.1332 112.234C21.9761 112.08 21.8159 111.967 21.6524 111.896C21.488 111.824 21.3282 111.8 21.173 111.823C21.0168 111.846 20.873 111.922 20.7415 112.051C20.6045 112.186 20.5256 112.333 20.5045 112.491C20.4835 112.649 20.51 112.808 20.584 112.971C20.658 113.132 20.7689 113.285 20.9168 113.43C21.0666 113.578 21.2255 113.689 21.3935 113.764C21.5616 113.838 21.7268 113.866 21.8894 113.848C22.0519 113.828 22.2008 113.752 22.3359 113.619ZM25.0659 111.505C24.8631 111.705 24.6435 111.833 24.407 111.889C24.1705 111.944 23.9317 111.931 23.6906 111.85C23.4495 111.768 23.2213 111.62 23.0057 111.408C22.7902 111.196 22.6396 110.971 22.5537 110.732C22.4679 110.491 22.4496 110.256 22.4989 110.026C22.5482 109.795 22.6679 109.585 22.8578 109.399C22.9674 109.291 23.0939 109.202 23.2372 109.133C23.3806 109.064 23.5372 109.027 23.7071 109.021C23.876 109.015 24.0536 109.052 24.2399 109.133C24.4262 109.214 24.6175 109.351 24.8138 109.544L24.9508 109.679L23.329 111.274L23.0496 110.999L24.3426 109.727C24.2239 109.61 24.0942 109.53 23.9536 109.485C23.8139 109.439 23.6737 109.432 23.5331 109.465C23.3934 109.496 23.2651 109.569 23.1482 109.684C23.0194 109.811 22.94 109.952 22.9099 110.107C22.8797 110.261 22.8902 110.412 22.9414 110.561C22.9925 110.71 23.0761 110.842 23.192 110.956L23.3783 111.139C23.5372 111.295 23.6993 111.401 23.8646 111.456C24.0299 111.509 24.1906 111.515 24.3467 111.474C24.502 111.433 24.6449 111.348 24.7755 111.22C24.8604 111.136 24.9252 111.049 24.97 110.958C25.0147 110.866 25.038 110.771 25.0398 110.674C25.0408 110.576 25.0184 110.478 24.9727 110.379L25.3727 110.158C25.4458 110.295 25.4836 110.441 25.4864 110.596C25.4882 110.751 25.4544 110.906 25.385 111.062C25.3147 111.218 25.2083 111.365 25.0659 111.505ZM26.237 107.605L26.5384 107.902L25.3111 109.109L25.0097 108.813L26.237 107.605ZM28.0167 105.306L27.8085 105.672C27.7418 105.642 27.6679 105.623 27.5866 105.613C27.5053 105.601 27.4195 105.61 27.3291 105.64C27.2387 105.669 27.1464 105.73 27.0524 105.823C26.9236 105.95 26.846 106.084 26.8195 106.227C26.793 106.368 26.825 106.483 26.9154 106.572C26.9958 106.651 27.0884 106.685 27.1935 106.673C27.2985 106.661 27.4286 106.61 27.5838 106.518L27.9729 106.286C28.2066 106.146 28.4167 106.077 28.6029 106.079C28.7883 106.08 28.9545 106.153 29.1015 106.297C29.2221 106.416 29.2951 106.556 29.3207 106.717C29.3472 106.878 29.3262 107.046 29.2577 107.221C29.1892 107.396 29.0732 107.564 28.9098 107.725C28.6952 107.936 28.471 108.065 28.2372 108.112C28.0034 108.158 27.7783 108.112 27.5619 107.973L27.792 107.596C27.9345 107.678 28.0747 107.708 28.2126 107.683C28.3514 107.658 28.487 107.58 28.6194 107.45C28.7701 107.302 28.8577 107.153 28.8824 107.003C28.907 106.851 28.8742 106.731 28.7838 106.642C28.7107 106.57 28.6239 106.535 28.5235 106.537C28.4221 106.538 28.3062 106.578 28.1756 106.658L27.7427 106.922C27.5044 107.067 27.2921 107.136 27.1058 107.131C26.9195 107.124 26.7538 107.049 26.6086 106.906C26.4899 106.789 26.4182 106.653 26.3935 106.498C26.3698 106.342 26.3899 106.181 26.4538 106.016C26.5186 105.849 26.625 105.694 26.7729 105.548C26.9811 105.343 27.1903 105.228 27.4003 105.201C27.6112 105.173 27.8167 105.208 28.0167 105.306ZM31.073 105.598C30.883 105.784 30.6712 105.904 30.4374 105.956C30.2045 106.007 29.9667 105.992 29.7238 105.912C29.4818 105.83 29.2521 105.682 29.0348 105.468C28.8156 105.253 28.664 105.026 28.58 104.787C28.4969 104.547 28.4814 104.312 28.5334 104.083C28.5864 103.854 28.7078 103.645 28.8978 103.458C29.0877 103.272 29.2991 103.153 29.532 103.101C29.7658 103.049 30.0041 103.065 30.247 103.147C30.4908 103.229 30.7223 103.378 30.9415 103.593C31.1588 103.807 31.3086 104.033 31.3908 104.272C31.4739 104.51 31.4889 104.744 31.436 104.974C31.3839 105.203 31.2629 105.411 31.073 105.598ZM30.7826 105.312C30.9269 105.17 31.0086 105.017 31.0278 104.853C31.047 104.688 31.0186 104.525 30.9428 104.362C30.8671 104.2 30.7588 104.049 30.6182 103.911C30.4776 103.773 30.3242 103.666 30.158 103.59C29.9918 103.515 29.8247 103.486 29.6566 103.504C29.4886 103.522 29.3325 103.602 29.1882 103.744C29.0439 103.886 28.9626 104.039 28.9444 104.205C28.9261 104.37 28.9553 104.534 29.032 104.698C29.1087 104.861 29.2174 105.012 29.358 105.15C29.4987 105.289 29.6516 105.395 29.8169 105.47C29.9822 105.544 30.1484 105.572 30.3155 105.553C30.4826 105.534 30.6383 105.454 30.7826 105.312ZM31.5336 102.569L32.7992 103.814L32.476 104.132L30.372 102.062L30.6843 101.755L31.013 102.079L31.0404 102.052C30.9829 101.898 30.972 101.74 31.0076 101.578C31.0423 101.414 31.1391 101.254 31.298 101.098C31.4404 100.958 31.5943 100.864 31.7596 100.816C31.9239 100.768 32.0947 100.772 32.2719 100.83C32.4481 100.886 32.6257 101.003 32.8047 101.179L34.1416 102.494L33.8183 102.811L32.5034 101.518C32.3381 101.356 32.1664 101.271 31.9883 101.265C31.8093 101.258 31.645 101.328 31.4952 101.475C31.392 101.577 31.3222 101.689 31.2856 101.813C31.25 101.936 31.2518 102.063 31.2911 102.193C31.3304 102.323 31.4112 102.449 31.5336 102.569ZM33.7899 100.35L35.0556 101.595L34.7323 101.913L32.6283 99.8434L32.9407 99.5363L33.2694 99.8596L33.2968 99.8327C33.2393 99.6791 33.2283 99.521 33.2639 99.3585C33.2986 99.195 33.3954 99.0352 33.5543 98.8789C33.6968 98.7388 33.8506 98.645 34.0159 98.5974C34.1803 98.5489 34.3511 98.5534 34.5282 98.6108C34.7045 98.6674 34.8821 98.7837 35.061 98.9597L36.3979 100.275L36.0747 100.592L34.7597 99.2992C34.5944 99.1367 34.4227 99.0522 34.2447 99.046C34.0657 99.0388 33.9013 99.1088 33.7516 99.2561C33.6484 99.3576 33.5785 99.4703 33.542 99.5942C33.5064 99.7173 33.5082 99.8439 33.5475 99.9741C33.5867 100.104 33.6675 100.23 33.7899 100.35ZM37.9146 98.8691C37.7119 99.0685 37.4923 99.1965 37.2558 99.2531C37.0192 99.3079 36.7804 99.2948 36.5394 99.214C36.2983 99.1314 36.07 98.9841 35.8545 98.7722C35.639 98.5602 35.4883 98.3348 35.4025 98.0959C35.3166 97.8552 35.2984 97.6199 35.3477 97.39C35.397 97.1583 35.5166 96.9491 35.7066 96.7623C35.8161 96.6545 35.9426 96.566 36.086 96.4969C36.2293 96.4277 36.386 96.3905 36.5558 96.3851C36.7247 96.3788 36.9024 96.4161 37.0886 96.4969C37.2749 96.5777 37.4662 96.7147 37.6626 96.9078L37.7996 97.0425L36.1778 98.6374L35.8983 98.3626L37.1914 97.091C37.0727 96.9742 36.943 96.8934 36.8024 96.8485C36.6626 96.8027 36.5225 96.7959 36.3818 96.8283C36.2421 96.8597 36.1138 96.9329 35.9969 97.0479C35.8682 97.1745 35.7887 97.3155 35.7586 97.4708C35.7285 97.6244 35.739 97.7757 35.7901 97.9248C35.8412 98.0739 35.9248 98.2055 36.0408 98.3195L36.2271 98.5027C36.386 98.659 36.548 98.7645 36.7133 98.8193C36.8786 98.8723 37.0393 98.8786 37.1955 98.8382C37.3507 98.7969 37.4936 98.712 37.6242 98.5836C37.7092 98.5 37.774 98.4129 37.8187 98.3222C37.8635 98.2297 37.8868 98.135 37.8886 98.038C37.8895 97.9401 37.8671 97.8418 37.8215 97.743L38.2214 97.522C38.2945 97.6585 38.3324 97.8045 38.3351 97.9598C38.337 98.1143 38.3032 98.2697 38.2338 98.4259C38.1635 98.5813 38.0571 98.729 37.9146 98.8691ZM38.0447 94.5166L38.3187 94.7861L37.2284 95.8584L36.9544 95.5889L38.0447 94.5166ZM36.7681 94.7807L37.0914 94.4628L39.0967 96.4349C39.188 96.5247 39.2698 96.5791 39.3419 96.5979C39.4141 96.615 39.4789 96.6105 39.5364 96.5845C39.5939 96.5566 39.6465 96.5193 39.6939 96.4726C39.7296 96.4376 39.7569 96.4071 39.7761 96.381C39.7944 96.3541 39.809 96.3325 39.82 96.3164L40.1761 96.5373C40.1624 96.5669 40.14 96.6051 40.109 96.6518C40.0788 96.6994 40.0336 96.7528 39.9734 96.8121C39.8821 96.9019 39.7729 96.9706 39.646 97.0182C39.52 97.0649 39.388 97.077 39.2501 97.0546C39.1132 97.0312 38.9835 96.9594 38.8611 96.8391L36.7681 94.7807ZM40.4117 93.6653L40.713 93.9616L39.4857 95.1686L39.1844 94.8723L40.4117 93.6653ZM41.6873 93.9411L41.4079 93.6663L40.6901 90.5356L40.8928 90.3362L41.3257 90.7619L41.1887 90.8966L41.7311 93.2621L41.753 93.2837L43.4132 91.651L43.7145 91.9474L41.6873 93.9411ZM43.583 93.2083L42.9228 92.5589L42.7927 92.431L40.7778 90.4494L41.101 90.1315L43.9063 92.8903L43.583 93.2083ZM44.4607 89.2898L44.7621 89.5862L43.5348 90.7932L43.2334 90.4969L44.4607 89.2898ZM47.4924 89.439C47.3316 89.5971 47.1549 89.708 46.9623 89.7718C46.7696 89.8355 46.5787 89.8508 46.3897 89.8176C46.2007 89.7843 46.0313 89.7013 45.8815 89.5684L46.2103 89.2451C46.35 89.3573 46.5125 89.404 46.6979 89.3852C46.8833 89.3645 47.0476 89.2837 47.191 89.1427C47.3061 89.0295 47.3814 88.9024 47.417 88.7614C47.4536 88.6195 47.4504 88.4772 47.4074 88.3344C47.3645 88.1898 47.2832 88.0587 47.1636 87.941C47.0413 87.8207 46.9052 87.7399 46.7554 87.6986C46.6057 87.6555 46.4564 87.6523 46.3075 87.6891C46.1587 87.726 46.024 87.8027 45.9034 87.9195C45.8167 88.003 45.7418 88.1027 45.6788 88.2186C45.6149 88.3335 45.5747 88.4404 45.5583 88.5392L45.2021 88.814L43.9912 87.289L45.4487 85.8557L45.75 86.1521L44.5775 87.3052L45.3062 88.2159L45.3227 88.1997C45.3345 88.0982 45.3688 87.99 45.4254 87.875C45.482 87.7601 45.5573 87.6564 45.6514 87.5639C45.8231 87.395 46.0171 87.285 46.2335 87.2338C46.45 87.1808 46.6673 87.1862 46.8856 87.25C47.1047 87.3128 47.3052 87.4336 47.4869 87.6124C47.6659 87.7884 47.7855 87.9851 47.8458 88.2024C47.906 88.4179 47.9069 88.6344 47.8485 88.8517C47.7891 89.0681 47.6704 89.2639 47.4924 89.439Z" fill="#262626"/>
<mask id="mask1_4200_6569" style="mask-type:luminance" maskUnits="userSpaceOnUse" x="24" y="11" width="206" height="75">
<path d="M229.641 11.1534H24.6567V85.176H229.641V11.1534Z" fill="white"/>
</mask>
<g mask="url(#mask1_4200_6569)">
<path d="M87.9175 85.176V11.1534" stroke="#CCCCCC" stroke-width="0.450839" stroke-linecap="round"/>
</g>
<path d="M64.0077 113.334C63.8515 113.487 63.6972 113.6 63.5447 113.67C63.3931 113.742 63.2475 113.783 63.1077 113.793C62.9699 113.803 62.8425 113.793 62.7256 113.765L62.8023 113.334C62.8699 113.343 62.9507 113.349 63.0447 113.354C63.1397 113.359 63.2443 113.342 63.3584 113.301C63.4744 113.261 63.5958 113.178 63.7228 113.053C63.8926 112.886 63.9917 112.708 64.02 112.519C64.0483 112.329 63.9748 112.148 63.7995 111.976L63.3721 111.555L63.3447 111.582C63.3593 111.644 63.373 111.723 63.3858 111.822C63.3986 111.919 63.3863 112.029 63.3488 112.152C63.3114 112.274 63.2242 112.401 63.0872 112.536C62.9173 112.703 62.7247 112.814 62.5092 112.868C62.2946 112.921 62.0713 112.91 61.8393 112.837C61.6083 112.762 61.3832 112.617 61.164 112.401C60.9485 112.19 60.7988 111.968 60.7148 111.736C60.6298 111.503 60.6111 111.278 60.6586 111.058C60.7052 110.838 60.817 110.641 60.9942 110.467C61.1312 110.332 61.2627 110.248 61.3887 110.214C61.5147 110.178 61.6279 110.167 61.7284 110.181C61.8288 110.194 61.9092 110.207 61.9695 110.219L62.0023 110.187L61.6681 109.858L61.9804 109.551L64.1447 111.679C64.3255 111.857 64.4314 112.042 64.4624 112.234C64.4953 112.427 64.4693 112.617 64.3844 112.804C64.3013 112.992 64.1757 113.168 64.0077 113.334ZM62.8406 112.207C62.9703 112.08 63.0502 111.943 63.0803 111.797C63.1105 111.65 63.0931 111.499 63.0283 111.344C62.9635 111.189 62.8534 111.035 62.6982 110.882C62.5466 110.733 62.39 110.624 62.2284 110.555C62.0667 110.485 61.9083 110.463 61.753 110.486C61.5978 110.509 61.4544 110.586 61.3229 110.715C61.186 110.85 61.1065 110.996 61.0846 111.154C61.0636 111.311 61.0887 111.47 61.1599 111.63C61.2321 111.789 61.3394 111.938 61.4818 112.078C61.6279 112.222 61.78 112.326 61.938 112.392C62.0959 112.456 62.2521 112.475 62.4064 112.449C62.5607 112.421 62.7055 112.34 62.8406 112.207ZM65.4651 111.814L62.5722 108.969L62.8845 108.662L63.2187 108.991L63.257 108.953C63.2443 108.894 63.2306 108.815 63.216 108.718C63.2013 108.62 63.2114 108.509 63.2461 108.387C63.2808 108.263 63.3666 108.134 63.5036 107.999C63.6808 107.825 63.8812 107.715 64.1049 107.669C64.3287 107.623 64.5597 107.643 64.798 107.728C65.0364 107.814 65.266 107.965 65.487 108.182C65.7098 108.401 65.8651 108.629 65.9527 108.864C66.0395 109.098 66.0605 109.326 66.0158 109.546C65.9701 109.765 65.8596 109.961 65.6843 110.133C65.5491 110.266 65.4185 110.35 65.2925 110.386C65.1656 110.421 65.0514 110.432 64.9501 110.419C64.8478 110.404 64.7656 110.39 64.7035 110.375L64.6761 110.402L65.7884 111.496L65.4651 111.814ZM63.9419 109.691C64.1008 109.847 64.2643 109.962 64.4323 110.036C64.5994 110.109 64.762 110.135 64.9199 110.114C65.077 110.093 65.2204 110.018 65.35 109.89C65.4852 109.758 65.5624 109.612 65.5815 109.453C65.6007 109.292 65.5724 109.129 65.4966 108.965C65.4208 108.799 65.308 108.642 65.1583 108.495C65.0103 108.349 64.8542 108.241 64.6898 108.169C64.5254 108.095 64.3629 108.069 64.2022 108.091C64.0415 108.11 63.8926 108.188 63.7556 108.322C63.6241 108.452 63.547 108.593 63.5241 108.747C63.5004 108.899 63.5251 109.057 63.5981 109.218C63.6703 109.379 63.7849 109.537 63.9419 109.691ZM65.8377 105.758L66.1116 106.027L65.0213 107.099L64.7474 106.83L65.8377 105.758ZM64.5611 106.022L64.8843 105.704L66.8897 107.676C66.981 107.766 67.0627 107.82 67.1349 107.839C67.207 107.856 67.2718 107.851 67.3294 107.825C67.3869 107.798 67.4394 107.76 67.4869 107.714C67.5225 107.679 67.5499 107.648 67.5691 107.622C67.5873 107.595 67.6019 107.573 67.6129 107.557L67.969 107.778C67.9553 107.808 67.933 107.846 67.9019 107.893C67.8718 107.94 67.8266 107.994 67.7663 108.053C67.675 108.143 67.5659 108.212 67.4389 108.259C67.3129 108.306 67.181 108.318 67.0431 108.295C66.9061 108.272 66.7764 108.2 66.6541 108.08L64.5611 106.022ZM68.2046 104.906L68.506 105.203L67.2787 106.41L66.9773 106.113L68.2046 104.906ZM71.0623 104.833C70.8815 105.011 70.6893 105.139 70.4856 105.217C70.2829 105.294 70.0848 105.319 69.8912 105.292C69.6976 105.264 69.5236 105.181 69.3693 105.043L69.7145 104.704C69.8122 104.785 69.9213 104.832 70.0418 104.843C70.1615 104.852 70.2834 104.831 70.4076 104.779C70.5318 104.727 70.6477 104.648 70.7555 104.542C70.876 104.424 70.9619 104.298 71.013 104.165C71.0641 104.032 71.0788 103.903 71.0568 103.777C71.0349 103.651 70.9746 103.54 70.876 103.443C70.7728 103.341 70.6564 103.277 70.5267 103.25C70.3962 103.222 70.2592 103.235 70.1158 103.288C69.9724 103.341 69.8295 103.437 69.6871 103.578L69.4624 103.798L69.1611 103.502L69.3857 103.281C69.4971 103.172 69.5747 103.056 69.6186 102.934C69.6633 102.811 69.6729 102.69 69.6473 102.571C69.6227 102.452 69.5611 102.344 69.4624 102.247C69.3675 102.153 69.2638 102.093 69.1515 102.065C69.0392 102.037 68.925 102.041 68.809 102.078C68.694 102.114 68.5849 102.183 68.4817 102.284C68.3849 102.38 68.3114 102.487 68.2611 102.606C68.2109 102.724 68.1922 102.842 68.205 102.961C68.2169 103.078 68.2671 103.185 68.3557 103.281L68.0269 103.605C67.8854 103.455 67.8009 103.284 67.7735 103.094C67.7452 102.903 67.7671 102.71 67.8393 102.517C67.9123 102.323 68.0297 102.147 68.1913 101.988C68.3648 101.817 68.5488 101.706 68.7433 101.653C68.9369 101.599 69.1241 101.595 69.3049 101.642C69.4857 101.688 69.6423 101.777 69.7747 101.907C69.9327 102.063 70.0259 102.236 70.0542 102.427C70.0834 102.618 70.0487 102.803 69.9501 102.985L69.972 103.006C70.1784 102.861 70.392 102.799 70.613 102.82C70.8331 102.841 71.0322 102.939 71.2102 103.114C71.3627 103.264 71.4582 103.44 71.4965 103.641C71.5349 103.84 71.5175 104.044 71.4445 104.252C71.3714 104.461 71.244 104.654 71.0623 104.833ZM72.7084 103.182C72.6409 103.248 72.5587 103.282 72.4619 103.282C72.3651 103.282 72.2829 103.248 72.2153 103.182C72.1477 103.115 72.114 103.035 72.114 102.939C72.114 102.844 72.1477 102.763 72.2153 102.697C72.2829 102.63 72.3651 102.597 72.4619 102.597C72.5587 102.597 72.6409 102.63 72.7084 102.697C72.7532 102.741 72.7829 102.793 72.7975 102.852C72.813 102.91 72.8134 102.969 72.7988 103.028C72.7842 103.086 72.7541 103.137 72.7084 103.182ZM74.3662 101.584C74.2055 101.742 74.0288 101.853 73.8361 101.917C73.6434 101.98 73.4526 101.996 73.2635 101.962C73.0745 101.929 72.9051 101.846 72.7553 101.713L73.0841 101.39C73.2238 101.502 73.3863 101.549 73.5717 101.53C73.7571 101.509 73.9215 101.428 74.0648 101.287C74.1799 101.174 74.2552 101.047 74.2909 100.906C74.3274 100.764 74.3242 100.622 74.2813 100.479C74.2383 100.335 74.1571 100.204 74.0374 100.086C73.9151 99.9655 73.779 99.8847 73.6293 99.8434C73.4795 99.8003 73.3302 99.7971 73.1813 99.8339C73.0325 99.8708 72.8978 99.9475 72.7773 100.064C72.6905 100.148 72.6156 100.248 72.5526 100.363C72.4887 100.478 72.4485 100.585 72.4321 100.684L72.0759 100.959L70.8651 99.4339L72.3225 98.0005L72.6238 98.2969L71.4513 99.45L72.18 100.361L72.1965 100.344C72.2084 100.243 72.2426 100.135 72.2992 100.02C72.3558 99.9049 72.4312 99.8012 72.5252 99.7087C72.6969 99.5398 72.891 99.4298 73.1074 99.3786C73.3238 99.3256 73.5411 99.331 73.7594 99.3948C73.9785 99.4577 74.179 99.5784 74.3607 99.7572C74.5397 99.9332 74.6593 100.13 74.7196 100.347C74.7799 100.563 74.7808 100.779 74.7223 100.996C74.663 101.213 74.5443 101.409 74.3662 101.584ZM75.6555 97.5785L75.9568 97.8749L74.7295 99.0819L74.4282 98.7856L75.6555 97.5785ZM76.3886 95.3811L76.6626 95.6505L75.5723 96.7228L75.2983 96.4534L76.3886 95.3811ZM75.112 95.6451L75.4353 95.3272L77.4406 97.2994C77.5319 97.3892 77.6137 97.4435 77.6858 97.4624C77.758 97.4794 77.8228 97.4749 77.8803 97.4489C77.9379 97.421 77.9904 97.3838 78.0378 97.3371C78.0735 97.302 78.1009 97.2715 78.12 97.2455C78.1383 97.2185 78.1529 97.197 78.1639 97.1808L78.52 97.4017C78.5063 97.4314 78.4839 97.4695 78.4529 97.5162C78.4228 97.5638 78.3775 97.6173 78.3173 97.6765C78.226 97.7664 78.1168 97.8351 77.9899 97.8827C77.8639 97.9294 77.7319 97.9415 77.594 97.919C77.4571 97.8957 77.3274 97.8238 77.205 97.7035L75.112 95.6451ZM79.4446 94.822L78.2008 93.5988L78.5241 93.2809L80.6281 95.3501L80.3048 95.668L79.9487 95.3178L79.9268 95.3393C79.9843 95.4929 79.9984 95.6577 79.9692 95.8337C79.9391 96.0088 79.8446 96.1745 79.6857 96.3308C79.5542 96.4601 79.4085 96.5468 79.2487 96.5908C79.088 96.6339 78.92 96.6267 78.7446 96.5692C78.5684 96.5108 78.3908 96.3936 78.2118 96.2176L76.8749 94.9028L77.1982 94.5849L78.5132 95.8782C78.6666 96.029 78.8319 96.1072 79.009 96.1125C79.1871 96.117 79.3432 96.0533 79.4775 95.9213C79.5578 95.8422 79.619 95.7416 79.661 95.6195C79.7039 95.4965 79.7112 95.3654 79.6829 95.2262C79.6555 95.0861 79.5761 94.9513 79.4446 94.822ZM81.2202 94.7678L79.1162 92.6986L79.4285 92.3915L79.7463 92.704L79.7682 92.6825C79.7025 92.5424 79.6874 92.391 79.723 92.2285C79.7586 92.0659 79.8394 91.9227 79.9654 91.7988C79.9892 91.7754 80.0193 91.7467 80.0559 91.7125C80.0924 91.6784 80.1207 91.6533 80.1408 91.6371L80.4695 91.9604C80.4558 91.9685 80.4266 91.9892 80.3819 92.0224C80.3371 92.0538 80.2933 92.0906 80.2504 92.1328C80.1481 92.2334 80.0782 92.3443 80.0408 92.4656C80.0033 92.585 79.9988 92.7045 80.0271 92.8239C80.0554 92.9416 80.117 93.0471 80.212 93.1405L81.5434 94.4499L81.2202 94.7678ZM82.6992 93.3133L79.8939 90.5544L80.2171 90.2365L81.2527 91.2549L81.2801 91.2279C81.2673 91.1687 81.2536 91.0905 81.239 90.9935C81.2244 90.8947 81.2344 90.7843 81.2691 90.6621C81.3038 90.5382 81.3897 90.4089 81.5266 90.2742C81.7038 90.0999 81.9042 89.9899 82.128 89.9441C82.3517 89.8983 82.5827 89.9181 82.8211 90.0034C83.0594 90.0887 83.2891 90.24 83.5101 90.4574C83.7329 90.6765 83.8881 90.9037 83.9758 91.139C84.0625 91.3734 84.0835 91.6006 84.0388 91.8207C83.9931 92.0398 83.8826 92.2356 83.7073 92.408C83.5722 92.5409 83.4416 92.6253 83.3156 92.6613C83.1886 92.6963 83.0745 92.7071 82.9731 92.6936C82.8708 92.6792 82.7887 92.6648 82.7266 92.6505L82.6882 92.6882L83.0115 93.0061L82.6992 93.3133ZM81.965 91.9661C82.1239 92.1224 82.2873 92.2374 82.4553 92.311C82.6225 92.3837 82.785 92.4098 82.943 92.3891C83.1 92.3676 83.2434 92.293 83.3731 92.1655C83.5082 92.0326 83.5854 91.8867 83.6046 91.7277C83.6238 91.5669 83.5954 91.4044 83.5197 91.24C83.4439 91.0739 83.3311 90.9172 83.1813 90.7699C83.0334 90.6244 82.8772 90.5158 82.7129 90.4439C82.5485 90.3703 82.3859 90.3442 82.2252 90.3658C82.0645 90.3855 81.9157 90.4628 81.7787 90.5975C81.6472 90.7268 81.57 90.8682 81.5472 91.0218C81.5234 91.1745 81.5481 91.3317 81.6212 91.4933C81.6933 91.6541 81.8079 91.8117 81.965 91.9661ZM85.9496 90.2028C85.7597 90.3896 85.5478 90.509 85.314 90.5611C85.0812 90.6123 84.8433 90.5975 84.6004 90.5167C84.3584 90.4349 84.1287 90.2872 83.9114 90.0735C83.6922 89.8579 83.5407 89.6307 83.4566 89.3918C83.3735 89.152 83.358 88.9176 83.4101 88.6886C83.463 88.4587 83.5845 88.2504 83.7744 88.0636C83.9644 87.8768 84.1758 87.7578 84.4086 87.7066C84.6424 87.6545 84.8807 87.6698 85.1236 87.7524C85.3675 87.8341 85.599 87.9827 85.8181 88.1983C86.0355 88.412 86.1852 88.6383 86.2674 88.8772C86.3505 89.1152 86.3656 89.3492 86.3126 89.5791C86.2606 89.8081 86.1396 90.016 85.9496 90.2028ZM85.6592 89.9172C85.8035 89.7753 85.8852 89.6222 85.9044 89.4578C85.9236 89.2935 85.8953 89.13 85.8195 88.9675C85.7437 88.8049 85.6355 88.6545 85.4949 88.5162C85.3542 88.3779 85.2008 88.271 85.0346 88.1956C84.8684 88.1201 84.7013 88.0914 84.5333 88.1094C84.3653 88.1273 84.2091 88.2073 84.0648 88.3491C83.9205 88.491 83.8393 88.6446 83.821 88.8099C83.8027 88.9751 83.832 89.1395 83.9087 89.3029C83.9854 89.4664 84.094 89.6172 84.2347 89.7555C84.3753 89.8938 84.5283 90.0003 84.6935 90.0748C84.8588 90.1493 85.025 90.1772 85.1921 90.1583C85.3592 90.1395 85.5149 90.0591 85.6592 89.9172Z" fill="#262626"/>
<mask id="mask2_4200_6569" style="mask-type:luminance" maskUnits="userSpaceOnUse" x="24" y="11" width="206" height="75">
<path d="M229.641 11.1534H24.6567V85.176H229.641V11.1534Z" fill="white"/>
</mask>
<g mask="url(#mask2_4200_6569)">
<path d="M127.149 85.176V11.1534" stroke="#CCCCCC" stroke-width="0.450839" stroke-linecap="round"/>
</g>
<path d="M114.525 102.226C114.369 102.38 114.215 102.492 114.062 102.563C113.911 102.635 113.765 102.676 113.625 102.686C113.487 102.695 113.36 102.686 113.243 102.657L113.32 102.226C113.387 102.235 113.468 102.242 113.562 102.246C113.657 102.252 113.762 102.234 113.876 102.194C113.992 102.153 114.113 102.071 114.24 101.946C114.41 101.779 114.509 101.601 114.538 101.411C114.566 101.222 114.492 101.041 114.317 100.868L113.89 100.448L113.862 100.475C113.877 100.536 113.891 100.616 113.903 100.715C113.916 100.812 113.904 100.922 113.866 101.045C113.829 101.166 113.742 101.294 113.605 101.429C113.435 101.596 113.242 101.706 113.027 101.76C112.812 101.813 112.589 101.803 112.357 101.729C112.126 101.655 111.901 101.51 111.682 101.294C111.466 101.082 111.316 100.86 111.232 100.629C111.147 100.396 111.129 100.17 111.176 99.9509C111.223 99.7309 111.335 99.5338 111.512 99.3595C111.649 99.2248 111.78 99.1404 111.906 99.1063C112.032 99.0704 112.146 99.0596 112.246 99.074C112.346 99.0865 112.427 99.0991 112.487 99.1117L112.52 99.0793L112.186 98.7506L112.498 98.4435L114.662 100.572C114.843 100.75 114.949 100.935 114.98 101.127C115.013 101.319 114.987 101.509 114.902 101.697C114.819 101.884 114.693 102.061 114.525 102.226ZM113.358 101.1C113.488 100.972 113.568 100.836 113.598 100.689C113.628 100.543 113.611 100.392 113.546 100.237C113.481 100.081 113.371 99.9271 113.216 99.7745C113.064 99.6254 112.908 99.5163 112.746 99.4471C112.584 99.378 112.426 99.3551 112.271 99.3784C112.115 99.4018 111.972 99.4781 111.841 99.6074C111.704 99.7421 111.624 99.8885 111.602 100.047C111.581 100.204 111.606 100.362 111.678 100.522C111.75 100.681 111.857 100.831 111.999 100.971C112.146 101.114 112.298 101.219 112.456 101.285C112.614 101.348 112.77 101.367 112.924 101.341C113.078 101.313 113.223 101.233 113.358 101.1ZM115.983 100.707L113.09 97.8616L113.402 97.5544L113.736 97.8831L113.775 97.8454C113.762 97.7861 113.748 97.708 113.734 97.611C113.719 97.5122 113.729 97.4017 113.764 97.2796C113.798 97.1557 113.884 97.0263 114.021 96.8916C114.198 96.7174 114.399 96.6074 114.623 96.5616C114.846 96.5158 115.077 96.5355 115.316 96.6209C115.554 96.7062 115.784 96.8575 116.005 97.0748C116.227 97.294 116.383 97.5212 116.47 97.7565C116.557 97.9909 116.578 98.2181 116.533 98.4381C116.488 98.6572 116.377 98.853 116.202 99.0255C116.067 99.1584 115.936 99.2428 115.81 99.2787C115.683 99.3137 115.569 99.3245 115.468 99.311C115.365 99.2967 115.283 99.2823 115.221 99.2679L115.194 99.2949L116.306 100.389L115.983 100.707ZM114.46 98.5836C114.618 98.7399 114.782 98.8548 114.95 98.9285C115.117 99.0012 115.28 99.0273 115.438 99.0066C115.595 98.985 115.738 98.9105 115.868 98.783C116.003 98.6501 116.08 98.5041 116.099 98.3452C116.118 98.1844 116.09 98.0219 116.014 97.8575C115.938 97.6914 115.826 97.5347 115.676 97.3874C115.528 97.2419 115.372 97.1332 115.207 97.0614C115.043 96.9877 114.88 96.9617 114.72 96.9832C114.559 97.003 114.41 97.0802 114.273 97.2149C114.142 97.3443 114.065 97.4857 114.042 97.6393C114.018 97.792 114.043 97.9491 114.116 98.1108C114.188 98.2715 114.302 98.4291 114.46 98.5836ZM116.355 94.65L116.629 94.9195L115.539 95.9918L115.265 95.7223L116.355 94.65ZM115.079 94.9141L115.402 94.5962L117.407 96.5683C117.499 96.6581 117.58 96.7125 117.652 96.7313C117.725 96.7484 117.789 96.7439 117.847 96.7179C117.904 96.69 117.957 96.6527 118.004 96.606C118.04 96.571 118.067 96.5405 118.087 96.5144C118.105 96.4875 118.12 96.4659 118.13 96.4498L118.487 96.6707C118.473 96.7003 118.451 96.7385 118.419 96.7852C118.389 96.8328 118.344 96.8862 118.284 96.9455C118.193 97.0353 118.083 97.104 117.957 97.1516C117.831 97.1983 117.699 97.2105 117.561 97.188C117.424 97.1646 117.294 97.0928 117.172 96.9725L115.079 94.9141ZM118.722 93.7987L119.024 94.095L117.796 95.302L117.495 95.0057L118.722 93.7987ZM119.998 94.0745L119.718 93.7997L119.001 90.669L119.203 90.4696L119.636 90.8953L119.499 91.03L120.042 93.3955L120.064 93.4171L121.724 91.7844L122.025 92.0808L119.998 94.0745ZM121.894 93.3417L121.233 92.6924L121.103 92.5644L119.088 90.5828L119.412 90.2649L122.217 93.0237L121.894 93.3417ZM123.245 92.0558C123.177 92.1223 123.095 92.1555 122.998 92.1555C122.901 92.1555 122.819 92.1223 122.752 92.0558C122.684 91.9894 122.65 91.9086 122.65 91.8134C122.65 91.7182 122.684 91.6373 122.752 91.5709C122.819 91.5044 122.901 91.4712 122.998 91.4712C123.095 91.4712 123.177 91.5044 123.245 91.5709C123.29 91.6149 123.319 91.6665 123.334 91.7258C123.349 91.7842 123.35 91.843 123.335 91.9023C123.321 91.9598 123.291 92.0109 123.245 92.0558ZM121.89 87.8276L124.695 90.5865L124.355 90.9206L121.906 88.5119L121.89 88.5281L121.66 89.6489L121.315 89.3094L121.55 88.1617L121.89 87.8276Z" fill="#262626"/>
<mask id="mask3_4200_6569" style="mask-type:luminance" maskUnits="userSpaceOnUse" x="24" y="11" width="206" height="75">
<path d="M229.641 11.1534H24.6567V85.176H229.641V11.1534Z" fill="white"/>
</mask>
<g mask="url(#mask3_4200_6569)">
<path d="M166.38 85.176V11.1534" stroke="#CCCCCC" stroke-width="0.450839" stroke-linecap="round"/>
</g>
<path d="M154.911 101.091C154.755 101.244 154.601 101.356 154.448 101.427C154.296 101.499 154.151 101.54 154.011 101.55C153.873 101.56 153.746 101.55 153.629 101.522L153.706 101.091C153.773 101.1 153.854 101.106 153.948 101.111C154.043 101.116 154.148 101.099 154.262 101.058C154.378 101.018 154.499 100.935 154.626 100.81C154.796 100.643 154.895 100.465 154.923 100.276C154.952 100.086 154.878 99.9051 154.703 99.7327L154.275 99.3124L154.248 99.3393C154.263 99.4004 154.276 99.4803 154.289 99.5791C154.302 99.6761 154.29 99.7861 154.252 99.9092C154.215 100.03 154.127 100.158 153.991 100.293C153.821 100.46 153.628 100.571 153.412 100.624C153.198 100.677 152.975 100.667 152.743 100.593C152.512 100.519 152.287 100.374 152.067 100.158C151.852 99.9464 151.702 99.7246 151.618 99.4929C151.533 99.2603 151.514 99.0344 151.562 98.8153C151.608 98.5953 151.72 98.3981 151.898 98.2239C152.034 98.0892 152.166 98.0048 152.292 97.9707C152.418 97.9347 152.531 97.924 152.632 97.9383C152.732 97.9509 152.813 97.9635 152.873 97.9761L152.906 97.9437L152.571 97.615L152.884 97.3079L155.048 99.4363C155.229 99.6141 155.335 99.7991 155.366 99.9913C155.399 100.184 155.373 100.373 155.288 100.561C155.205 100.749 155.079 100.925 154.911 101.091ZM153.744 99.9644C153.874 99.8369 153.954 99.6999 153.984 99.5535C154.014 99.4071 153.996 99.2563 153.932 99.1009C153.867 98.9455 153.757 98.7915 153.602 98.6388C153.45 98.4898 153.293 98.3806 153.132 98.3115C152.97 98.2423 152.812 98.2194 152.656 98.2428C152.501 98.2661 152.358 98.3425 152.226 98.4718C152.089 98.6065 152.01 98.7529 151.988 98.9109C151.967 99.0681 151.992 99.2266 152.063 99.3865C152.135 99.5454 152.243 99.695 152.385 99.8351C152.531 99.9788 152.683 100.083 152.841 100.149C152.999 100.213 153.155 100.232 153.31 100.206C153.464 100.178 153.609 100.097 153.744 99.9644ZM156.368 99.571L153.475 96.7259L153.788 96.4188L154.122 96.7475L154.16 96.7098C154.148 96.6505 154.134 96.5724 154.119 96.4754C154.105 96.3766 154.115 96.2661 154.149 96.144C154.184 96.02 154.27 95.8907 154.407 95.756C154.584 95.5818 154.785 95.4718 155.008 95.426C155.232 95.3802 155.463 95.3999 155.701 95.4852C155.94 95.5706 156.169 95.7219 156.39 95.9392C156.613 96.1584 156.768 96.3856 156.856 96.6209C156.943 96.8553 156.964 97.0825 156.919 97.3025C156.873 97.5216 156.763 97.7174 156.588 97.8898C156.452 98.0228 156.322 98.1072 156.196 98.1431C156.069 98.1781 155.955 98.1889 155.853 98.1754C155.751 98.1611 155.669 98.1467 155.607 98.1323L155.579 98.1593L156.692 99.2531L156.368 99.571ZM154.845 97.448C155.004 97.6043 155.168 97.7192 155.336 97.7928C155.503 97.8656 155.665 97.8916 155.823 97.871C155.98 97.8494 156.124 97.7749 156.253 97.6474C156.389 97.5144 156.466 97.3685 156.485 97.2095C156.504 97.0488 156.476 96.8862 156.4 96.7219C156.324 96.5557 156.211 96.399 156.062 96.2518C155.914 96.1063 155.758 95.9976 155.593 95.9258C155.429 95.8521 155.266 95.8261 155.106 95.8476C154.945 95.8674 154.796 95.9446 154.659 96.0793C154.527 96.2086 154.45 96.3501 154.427 96.5037C154.404 96.6563 154.428 96.8135 154.501 96.9752C154.574 97.1359 154.688 97.2935 154.845 97.448ZM156.741 93.5144L157.015 93.7838L155.925 94.8561L155.651 94.5867L156.741 93.5144ZM155.464 93.7785L155.788 93.4605L157.793 95.4327C157.884 95.5225 157.966 95.5768 158.038 95.5957C158.11 95.6128 158.175 95.6083 158.233 95.5822C158.29 95.5544 158.343 95.5171 158.39 95.4704C158.426 95.4354 158.453 95.4049 158.472 95.3788C158.491 95.3519 158.505 95.3303 158.516 95.3142L158.872 95.5351C158.859 95.5647 158.836 95.6029 158.805 95.6496C158.775 95.6972 158.73 95.7506 158.67 95.8099C158.578 95.8997 158.469 95.9684 158.342 96.016C158.216 96.0627 158.084 96.0748 157.946 96.0524C157.809 96.029 157.68 95.9572 157.557 95.8368L155.464 93.7785ZM159.108 92.663L159.409 92.9594L158.182 94.1664L157.881 93.8701L159.108 92.663ZM160.384 92.9389L160.104 92.6641L159.386 89.5334L159.589 89.334L160.022 89.7597L159.885 89.8944L160.427 92.2599L160.449 92.2815L162.109 90.6488L162.411 90.9451L160.384 92.9389ZM162.279 92.206L161.619 91.5567L161.489 91.4288L159.474 89.4472L159.797 89.1292L162.603 91.8881L162.279 92.206ZM164.403 90.2032C164.214 90.39 164.002 90.5095 163.768 90.5616C163.535 90.6127 163.297 90.5979 163.054 90.5171C162.812 90.4354 162.583 90.2876 162.365 90.0739C162.146 89.8584 161.995 89.6312 161.911 89.3923C161.827 89.1525 161.812 88.9181 161.864 88.6891C161.917 88.4592 162.038 88.2508 162.228 88.064C162.418 87.8772 162.63 87.7582 162.862 87.707C163.096 87.6549 163.335 87.6702 163.578 87.7528C163.821 87.8346 164.053 87.9832 164.272 88.1987C164.489 88.4125 164.639 88.6388 164.721 88.8777C164.804 89.1157 164.819 89.3496 164.766 89.5795C164.714 89.8085 164.593 90.0164 164.403 90.2032ZM164.113 89.9176C164.257 89.7757 164.339 89.6226 164.358 89.4583C164.377 89.2939 164.349 89.1305 164.273 88.9679C164.198 88.8054 164.089 88.6549 163.949 88.5166C163.808 88.3783 163.655 88.2715 163.488 88.196C163.322 88.1206 163.155 88.0919 162.987 88.1098C162.819 88.1278 162.663 88.2077 162.519 88.3496C162.374 88.4915 162.293 88.6451 162.275 88.8103C162.257 88.9756 162.286 89.1399 162.363 89.3034C162.439 89.4668 162.548 89.6177 162.689 89.756C162.829 89.8943 162.982 90.0007 163.147 90.0752C163.313 90.1498 163.479 90.1776 163.646 90.1588C163.813 90.1399 163.969 90.0595 164.113 89.9176Z" fill="#262626"/>
<mask id="mask4_4200_6569" style="mask-type:luminance" maskUnits="userSpaceOnUse" x="24" y="11" width="206" height="75">
<path d="M229.641 11.1534H24.6567V85.176H229.641V11.1534Z" fill="white"/>
</mask>
<g mask="url(#mask4_4200_6569)">
<path d="M205.612 85.176V11.1534" stroke="#CCCCCC" stroke-width="0.450839" stroke-linecap="round"/>
</g>
<path d="M184.137 110.939C183.981 111.092 183.827 111.204 183.674 111.275C183.523 111.347 183.377 111.388 183.237 111.398C183.099 111.408 182.972 111.398 182.855 111.37L182.932 110.939C182.999 110.948 183.08 110.954 183.174 110.959C183.269 110.964 183.374 110.947 183.488 110.906C183.604 110.866 183.725 110.783 183.852 110.658C184.022 110.491 184.121 110.313 184.15 110.124C184.178 109.934 184.104 109.753 183.929 109.581L183.502 109.16L183.474 109.187C183.489 109.248 183.503 109.328 183.515 109.427C183.528 109.524 183.516 109.634 183.478 109.757C183.441 109.878 183.354 110.006 183.217 110.141C183.047 110.308 182.854 110.419 182.639 110.473C182.424 110.526 182.201 110.515 181.969 110.442C181.738 110.367 181.513 110.222 181.294 110.006C181.078 109.795 180.928 109.573 180.844 109.341C180.759 109.108 180.741 108.883 180.788 108.663C180.835 108.443 180.947 108.246 181.124 108.072C181.261 107.937 181.392 107.853 181.518 107.819C181.644 107.783 181.758 107.772 181.858 107.786C181.958 107.799 182.039 107.812 182.099 107.824L182.132 107.792L181.798 107.463L182.11 107.156L184.274 109.284C184.455 109.462 184.561 109.647 184.592 109.839C184.625 110.032 184.599 110.222 184.514 110.409C184.431 110.597 184.305 110.773 184.137 110.939ZM182.97 109.812C183.1 109.685 183.18 109.548 183.21 109.402C183.24 109.255 183.223 109.104 183.158 108.949C183.093 108.794 182.983 108.64 182.828 108.487C182.676 108.338 182.52 108.229 182.358 108.16C182.196 108.09 182.038 108.068 181.883 108.091C181.727 108.114 181.584 108.191 181.453 108.32C181.316 108.455 181.236 108.601 181.214 108.759C181.193 108.916 181.218 109.075 181.29 109.235C181.362 109.394 181.469 109.543 181.611 109.683C181.758 109.827 181.91 109.931 182.068 109.997C182.226 110.061 182.382 110.08 182.536 110.054C182.69 110.026 182.835 109.945 182.97 109.812ZM185.595 109.419L182.702 106.574L183.014 106.267L183.348 106.596L183.387 106.558C183.374 106.499 183.36 106.42 183.346 106.323C183.331 106.225 183.341 106.114 183.376 105.992C183.41 105.868 183.496 105.739 183.633 105.604C183.81 105.43 184.011 105.32 184.235 105.274C184.458 105.228 184.689 105.248 184.928 105.333C185.166 105.419 185.396 105.57 185.617 105.787C185.839 106.006 185.995 106.234 186.082 106.469C186.169 106.703 186.19 106.931 186.145 107.151C186.1 107.37 185.989 107.565 185.814 107.738C185.679 107.871 185.548 107.955 185.422 107.991C185.295 108.026 185.181 108.037 185.08 108.024C184.977 108.009 184.895 107.995 184.833 107.98L184.806 108.007L185.918 109.101L185.595 109.419ZM184.072 107.296C184.23 107.452 184.394 107.567 184.562 107.641C184.729 107.714 184.892 107.74 185.05 107.719C185.207 107.698 185.35 107.623 185.48 107.495C185.615 107.363 185.692 107.217 185.711 107.058C185.73 106.897 185.702 106.734 185.626 106.57C185.55 106.404 185.438 106.247 185.288 106.1C185.14 105.954 184.984 105.846 184.819 105.774C184.655 105.7 184.493 105.674 184.332 105.696C184.171 105.715 184.022 105.793 183.885 105.927C183.754 106.057 183.677 106.198 183.654 106.352C183.63 106.504 183.655 106.662 183.728 106.823C183.8 106.984 183.915 107.142 184.072 107.296ZM185.967 103.363L186.241 103.632L185.151 104.704L184.877 104.435L185.967 103.363ZM184.691 103.627L185.014 103.309L187.019 105.281C187.111 105.371 187.192 105.425 187.264 105.444C187.337 105.461 187.401 105.456 187.459 105.43C187.517 105.402 187.569 105.365 187.617 105.319C187.652 105.283 187.68 105.253 187.699 105.227C187.717 105.2 187.732 105.178 187.743 105.162L188.099 105.383C188.085 105.413 188.063 105.451 188.032 105.498C188.001 105.545 187.956 105.599 187.896 105.658C187.805 105.748 187.696 105.816 187.569 105.864C187.443 105.911 187.311 105.923 187.173 105.9C187.036 105.877 186.906 105.805 186.784 105.685L184.691 103.627ZM188.334 102.511L188.636 102.807L187.408 104.015L187.107 103.718L188.334 102.511ZM189.61 102.787L189.33 102.512L188.613 99.3815L188.815 99.1821L189.248 99.6078L189.111 99.7425L189.654 102.108L189.676 102.13L191.336 100.497L191.637 100.793L189.61 102.787ZM191.506 102.054L190.845 101.405L190.715 101.277L188.7 99.2952L189.024 98.9773L191.829 101.736L191.506 102.054ZM193.63 100.051C193.44 100.238 193.228 100.358 192.994 100.41C192.761 100.461 192.523 100.446 192.281 100.365C192.039 100.283 191.809 100.136 191.592 99.922C191.372 99.7064 191.221 99.4792 191.137 99.2403C191.054 99.0006 191.038 98.7662 191.09 98.5372C191.143 98.3072 191.265 98.0989 191.455 97.9121C191.645 97.7253 191.856 97.6063 192.089 97.5551C192.323 97.503 192.561 97.5183 192.804 97.6009C193.048 97.6826 193.279 97.8313 193.498 98.0468C193.716 98.2605 193.865 98.4869 193.948 98.7258C194.031 98.9637 194.046 99.1977 193.993 99.4276C193.941 99.6566 193.82 99.8645 193.63 100.051ZM193.339 99.7657C193.484 99.6238 193.565 99.4707 193.585 99.3064C193.604 99.142 193.575 98.9786 193.5 98.816C193.424 98.6535 193.316 98.503 193.175 98.3647C193.034 98.2264 192.881 98.1196 192.715 98.0441C192.549 97.9687 192.381 97.9399 192.213 97.9579C192.045 97.9759 191.889 98.0558 191.745 98.1977C191.601 98.3396 191.519 98.4931 191.501 98.6584C191.483 98.8236 191.512 98.988 191.589 99.1514C191.666 99.3149 191.774 99.4658 191.915 99.6041C192.055 99.7424 192.208 99.8488 192.374 99.9233C192.539 99.9979 192.705 100.026 192.872 100.007C193.039 99.988 193.195 99.9076 193.339 99.7657ZM194.885 96.0689L195.186 96.3653L193.959 97.5723L193.658 97.2759L194.885 96.0689ZM196.807 96.8405L194.703 94.7713L195.015 94.4642L195.344 94.7875L195.371 94.7605C195.303 94.607 195.287 94.4516 195.322 94.2944C195.357 94.1364 195.443 93.99 195.58 93.8553C195.718 93.7188 195.865 93.6361 196.021 93.6074C196.176 93.5769 196.336 93.5912 196.5 93.6505L196.522 93.629C196.467 93.4691 196.462 93.3048 196.506 93.1359C196.549 92.9662 196.645 92.8072 196.796 92.659C196.984 92.474 197.197 92.3806 197.434 92.3788C197.671 92.3761 197.913 92.4965 198.16 92.7399L199.568 94.1247L199.245 94.4426L197.837 93.0578C197.682 92.9051 197.528 92.8378 197.377 92.8557C197.225 92.8737 197.092 92.9392 196.977 93.0524C196.829 93.1979 196.759 93.3546 196.767 93.5225C196.775 93.6896 196.846 93.84 196.982 93.9738L198.352 95.3209L198.023 95.6442L196.582 94.2271C196.463 94.1094 196.328 94.0528 196.177 94.0573C196.025 94.0609 195.888 94.1229 195.766 94.2432C195.682 94.3259 195.626 94.4251 195.597 94.541C195.57 94.6559 195.574 94.7745 195.608 94.8966C195.643 95.0169 195.712 95.1278 195.815 95.2293L197.13 96.5226L196.807 96.8405ZM200.159 93.5434L198.056 91.4743L198.379 91.1563L200.483 93.2255L200.159 93.5434ZM197.869 90.9677C197.806 91.0297 197.73 91.062 197.642 91.0647C197.554 91.0665 197.48 91.0378 197.42 90.9785C197.36 90.9192 197.33 90.8465 197.332 90.7603C197.335 90.6732 197.368 90.5986 197.431 90.5367C197.494 90.4747 197.569 90.4428 197.657 90.441C197.745 90.4383 197.82 90.4666 197.88 90.5259C197.94 90.5852 197.969 90.6584 197.966 90.7455C197.965 90.8317 197.932 90.9058 197.869 90.9677ZM200.132 91.0806L201.398 92.3253L201.075 92.6432L198.971 90.574L199.283 90.2669L199.612 90.5902L199.639 90.5633C199.582 90.4097 199.571 90.2516 199.606 90.0891C199.641 89.9256 199.738 89.7658 199.897 89.6095C200.039 89.4694 200.193 89.3756 200.358 89.328C200.523 89.2795 200.694 89.284 200.871 89.3414C201.047 89.398 201.225 89.5143 201.404 89.6903L202.74 91.0051L202.417 91.323L201.102 90.0298C200.937 89.8673 200.765 89.7828 200.587 89.7766C200.408 89.7694 200.244 89.8394 200.094 89.9867C199.991 90.0882 199.921 90.2009 199.884 90.3248C199.849 90.4479 199.851 90.5745 199.89 90.7047C199.929 90.8349 200.01 90.9602 200.132 91.0806ZM203.331 90.4242L201.227 88.355L201.55 88.0371L203.654 90.1063L203.331 90.4242ZM201.041 87.8485C200.978 87.9105 200.902 87.9428 200.814 87.9455C200.726 87.9473 200.652 87.9186 200.592 87.8593C200.531 87.8 200.502 87.7273 200.504 87.6411C200.507 87.5539 200.54 87.4794 200.603 87.4174C200.666 87.3555 200.741 87.3236 200.829 87.3218C200.917 87.3191 200.992 87.3474 201.052 87.4067C201.112 87.4659 201.141 87.5391 201.138 87.6262C201.136 87.7124 201.104 87.7865 201.041 87.8485Z" fill="#262626"/>
<mask id="mask5_4200_6569" style="mask-type:luminance" maskUnits="userSpaceOnUse" x="24" y="11" width="206" height="75">
<path d="M229.641 11.1534H24.6567V85.176H229.641V11.1534Z" fill="white"/>
</mask>
<g mask="url(#mask5_4200_6569)">
<path d="M24.6567 85.1758H229.641" stroke="#CCCCCC" stroke-width="0.450839" stroke-linecap="round"/>
</g>
<path d="M13.6434 86.9541C13.354 86.9541 13.1074 86.8754 12.9038 86.7178C12.7001 86.559 12.5445 86.3291 12.4369 86.0281C12.3293 85.7258 12.2755 85.3608 12.2755 84.933C12.2755 84.5078 12.3293 84.1447 12.4369 83.8437C12.5458 83.5415 12.702 83.3109 12.9057 83.1521C13.1106 82.992 13.3565 82.9119 13.6434 82.9119C13.9303 82.9119 14.1756 82.992 14.3792 83.1521C14.5842 83.3109 14.7404 83.5415 14.848 83.8437C14.9569 84.1447 15.0113 84.5078 15.0113 84.933C15.0113 85.3608 14.9575 85.7258 14.8499 86.0281C14.7423 86.3291 14.5867 86.559 14.3831 86.7178C14.1794 86.8754 13.9329 86.9541 13.6434 86.9541ZM13.6434 86.5315C13.9303 86.5315 14.1532 86.3931 14.312 86.1165C14.4708 85.8398 14.5502 85.4453 14.5502 84.933C14.5502 84.5923 14.5137 84.3022 14.4407 84.0627C14.369 83.8232 14.2652 83.6407 14.1295 83.5152C13.995 83.3897 13.833 83.3269 13.6434 83.3269C13.3591 83.3269 13.1369 83.4672 12.9768 83.7477C12.8167 84.0269 12.7366 84.422 12.7366 84.933C12.7366 85.2737 12.7725 85.5632 12.8442 85.8014C12.9159 86.0396 13.019 86.2209 13.1535 86.3451C13.2893 86.4693 13.4526 86.5315 13.6434 86.5315ZM15.9421 86.9311C15.8473 86.9311 15.766 86.8971 15.6981 86.8292C15.6302 86.7614 15.5963 86.68 15.5963 86.5853C15.5963 86.4905 15.6302 86.4091 15.6981 86.3413C15.766 86.2734 15.8473 86.2394 15.9421 86.2394C16.0369 86.2394 16.1182 86.2734 16.1861 86.3413C16.254 86.4091 16.2879 86.4905 16.2879 86.5853C16.2879 86.648 16.2719 86.7056 16.2399 86.7582C16.2092 86.8107 16.1675 86.8529 16.115 86.885C16.0638 86.9157 16.0062 86.9311 15.9421 86.9311ZM18.2399 86.9541C17.9504 86.9541 17.7038 86.8754 17.5002 86.7178C17.2966 86.559 17.1409 86.3291 17.0334 86.0281C16.9258 85.7258 16.872 85.3608 16.872 84.933C16.872 84.5078 16.9258 84.1447 17.0334 83.8437C17.1422 83.5415 17.2985 83.3109 17.5021 83.1521C17.707 82.992 17.953 82.9119 18.2399 82.9119C18.5268 82.9119 18.772 82.992 18.9757 83.1521C19.1806 83.3109 19.3369 83.5415 19.4444 83.8437C19.5533 84.1447 19.6077 84.5078 19.6077 84.933C19.6077 85.3608 19.554 85.7258 19.4464 86.0281C19.3388 86.3291 19.1832 86.559 18.9795 86.7178C18.7759 86.8754 18.5293 86.9541 18.2399 86.9541ZM18.2399 86.5315C18.5268 86.5315 18.7496 86.3931 18.9084 86.1165C19.0673 85.8398 19.1467 85.4453 19.1467 84.933C19.1467 84.5923 19.1102 84.3022 19.0372 84.0627C18.9654 83.8232 18.8617 83.6407 18.7259 83.5152C18.5914 83.3897 18.4294 83.3269 18.2399 83.3269C17.9555 83.3269 17.7333 83.4672 17.5732 83.7477C17.4131 84.0269 17.3331 84.422 17.3331 84.933C17.3331 85.2737 17.3689 85.5632 17.4406 85.8014C17.5124 86.0396 17.6155 86.2209 17.75 86.3451C17.8857 86.4693 18.049 86.5315 18.2399 86.5315ZM21.6212 86.9541C21.3317 86.9541 21.0851 86.8754 20.8815 86.7178C20.6778 86.559 20.5222 86.3291 20.4146 86.0281C20.3071 85.7258 20.2533 85.3608 20.2533 84.933C20.2533 84.5078 20.3071 84.1447 20.4146 83.8437C20.5235 83.5415 20.6798 83.3109 20.8834 83.1521C21.0883 82.992 21.3343 82.9119 21.6212 82.9119C21.908 82.9119 22.1533 82.992 22.357 83.1521C22.5619 83.3109 22.7181 83.5415 22.8257 83.8437C22.9346 84.1447 22.989 84.5078 22.989 84.933C22.989 85.3608 22.9352 85.7258 22.8277 86.0281C22.7201 86.3291 22.5645 86.559 22.3608 86.7178C22.1572 86.8754 21.9106 86.9541 21.6212 86.9541ZM21.6212 86.5315C21.908 86.5315 22.1309 86.3931 22.2897 86.1165C22.4485 85.8398 22.528 85.4453 22.528 84.933C22.528 84.5923 22.4914 84.3022 22.4184 84.0627C22.3467 83.8232 22.243 83.6407 22.1072 83.5152C21.9727 83.3897 21.8107 83.3269 21.6212 83.3269C21.3368 83.3269 21.1146 83.4672 20.9545 83.7477C20.7944 84.0269 20.7143 84.422 20.7143 84.933C20.7143 85.2737 20.7502 85.5632 20.8219 85.8014C20.8937 86.0396 20.9968 86.2209 21.1312 86.3451C21.267 86.4693 21.4303 86.5315 21.6212 86.5315Z" fill="#262626"/>
<mask id="mask6_4200_6569" style="mask-type:luminance" maskUnits="userSpaceOnUse" x="24" y="11" width="206" height="75">
<path d="M229.641 11.1534H24.6567V85.176H229.641V11.1534Z" fill="white"/>
</mask>
<g mask="url(#mask6_4200_6569)">
<path d="M24.6567 67.5515H229.641" stroke="#CCCCCC" stroke-width="0.450839" stroke-linecap="round"/>
</g>
<path d="M13.7015 69.3298C13.4121 69.3298 13.1655 69.251 12.9619 69.0935C12.7582 68.9347 12.6026 68.7048 12.495 68.4038C12.3874 68.1015 12.3336 67.7365 12.3336 67.3087C12.3336 66.8835 12.3874 66.5204 12.495 66.2194C12.6039 65.9171 12.7601 65.6866 12.9638 65.5278C13.1687 65.3677 13.4146 65.2876 13.7015 65.2876C13.9884 65.2876 14.2337 65.3677 14.4373 65.5278C14.6423 65.6866 14.7985 65.9171 14.9061 66.2194C15.015 66.5204 15.0694 66.8835 15.0694 67.3087C15.0694 67.7365 15.0156 68.1015 14.908 68.4038C14.8005 68.7048 14.6448 68.9347 14.4412 69.0935C14.2375 69.251 13.991 69.3298 13.7015 69.3298ZM13.7015 68.9071C13.9884 68.9071 14.2113 68.7688 14.3701 68.4922C14.5289 68.2155 14.6083 67.821 14.6083 67.3087C14.6083 66.968 14.5718 66.6779 14.4988 66.4384C14.4271 66.1989 14.3234 66.0164 14.1876 65.8909C14.0531 65.7653 13.8911 65.7026 13.7015 65.7026C13.4172 65.7026 13.195 65.8428 13.0349 66.1233C12.8748 66.4025 12.7947 66.7977 12.7947 67.3087C12.7947 67.6494 12.8306 67.9389 12.9023 68.1771C12.974 68.4153 13.0771 68.5965 13.2116 68.7208C13.3474 68.845 13.5107 68.9071 13.7015 68.9071ZM16.0002 69.3067C15.9055 69.3067 15.8241 69.2728 15.7562 69.2049C15.6884 69.137 15.6544 69.0557 15.6544 68.9609C15.6544 68.8661 15.6884 68.7848 15.7562 68.7169C15.8241 68.6491 15.9055 68.6151 16.0002 68.6151C16.095 68.6151 16.1763 68.6491 16.2442 68.7169C16.3121 68.7848 16.346 68.8661 16.346 68.9609C16.346 69.0237 16.33 69.0813 16.298 69.1338C16.2673 69.1863 16.2257 69.2286 16.1731 69.2606C16.1219 69.2914 16.0643 69.3067 16.0002 69.3067ZM17.152 69.276V68.9302L18.4507 67.5085C18.6031 67.342 18.7286 67.1973 18.8273 67.0743C18.9259 66.9501 18.9989 66.8335 19.0463 66.7247C19.0949 66.6145 19.1193 66.4992 19.1193 66.3788C19.1193 66.2405 19.086 66.1208 19.0194 66.0196C18.9541 65.9184 18.8644 65.8403 18.7504 65.7852C18.6364 65.7301 18.5083 65.7026 18.3662 65.7026C18.215 65.7026 18.0831 65.734 17.9704 65.7967C17.859 65.8582 17.7725 65.9447 17.7111 66.0561C17.6509 66.1675 17.6208 66.2982 17.6208 66.448H17.1674C17.1674 66.2175 17.2205 66.0151 17.3268 65.8409C17.4331 65.6667 17.5778 65.531 17.761 65.4336C17.9454 65.3363 18.1523 65.2876 18.3815 65.2876C18.6121 65.2876 18.8164 65.3363 18.9944 65.4336C19.1724 65.531 19.312 65.6622 19.4132 65.8275C19.5144 65.9927 19.565 66.1765 19.565 66.3788C19.565 66.5236 19.5387 66.6651 19.4862 66.8034C19.435 66.9405 19.3453 67.0935 19.2173 67.2626C19.0905 67.4304 18.9144 67.6353 18.6889 67.8774L17.8052 68.8226V68.8533H19.6342V69.276H17.152ZM21.6572 69.3298C21.4318 69.3298 21.2287 69.285 21.0482 69.1953C20.8676 69.1057 20.7228 68.9827 20.614 68.8264C20.5051 68.6702 20.4455 68.4922 20.4353 68.2924H20.8964C20.9143 68.4704 20.995 68.6177 21.1385 68.7342C21.2832 68.8495 21.4561 68.9071 21.6572 68.9071C21.8186 68.9071 21.962 68.8693 22.0875 68.7938C22.2143 68.7182 22.3136 68.6145 22.3853 68.4825C22.4583 68.3493 22.4948 68.1989 22.4948 68.0311C22.4948 67.8594 22.457 67.7064 22.3815 67.5719C22.3072 67.4361 22.2047 67.3292 22.0741 67.2511C21.9434 67.1729 21.7942 67.1332 21.6264 67.132C21.506 67.1307 21.3824 67.1492 21.2556 67.1877C21.1288 67.2248 21.0245 67.2728 20.9425 67.3318L20.4968 67.278L20.735 65.3414H22.7791V65.7641H21.1346L20.9963 66.9245H21.0193C21.1 66.8604 21.2012 66.8073 21.3229 66.765C21.4446 66.7227 21.5714 66.7016 21.7033 66.7016C21.9441 66.7016 22.1586 66.7592 22.3469 66.8745C22.5364 66.9885 22.685 67.1448 22.7926 67.3433C22.9015 67.5418 22.9559 67.7685 22.9559 68.0234C22.9559 68.2744 22.8995 68.4986 22.7868 68.6958C22.6754 68.8918 22.5217 69.0467 22.3257 69.1607C22.1298 69.2734 21.9069 69.3298 21.6572 69.3298Z" fill="#262626"/>
<mask id="mask7_4200_6569" style="mask-type:luminance" maskUnits="userSpaceOnUse" x="24" y="11" width="206" height="75">
<path d="M229.641 11.1534H24.6567V85.176H229.641V11.1534Z" fill="white"/>
</mask>
<g mask="url(#mask7_4200_6569)">
<path d="M24.6567 49.9271H229.641" stroke="#CCCCCC" stroke-width="0.450839" stroke-linecap="round"/>
</g>
<path d="M13.6751 51.7053C13.3857 51.7053 13.1391 51.6266 12.9355 51.469C12.7318 51.3102 12.5762 51.0803 12.4686 50.7793C12.361 50.4771 12.3072 50.112 12.3072 49.6843C12.3072 49.259 12.361 48.8959 12.4686 48.5949C12.5775 48.2927 12.7337 48.0621 12.9374 47.9033C13.1423 47.7432 13.3882 47.6632 13.6751 47.6632C13.962 47.6632 14.2073 47.7432 14.4109 47.9033C14.6159 48.0621 14.7721 48.2927 14.8797 48.5949C14.9886 48.8959 15.043 49.259 15.043 49.6843C15.043 50.112 14.9892 50.4771 14.8816 50.7793C14.774 51.0803 14.6184 51.3102 14.4148 51.469C14.2111 51.6266 13.9646 51.7053 13.6751 51.7053ZM13.6751 51.2827C13.962 51.2827 14.1849 51.1444 14.3437 50.8677C14.5025 50.5911 14.5819 50.1966 14.5819 49.6843C14.5819 49.3436 14.5454 49.0535 14.4724 48.814C14.4007 48.5744 14.2969 48.3919 14.1612 48.2664C14.0267 48.1409 13.8647 48.0781 13.6751 48.0781C13.3908 48.0781 13.1686 48.2184 13.0085 48.4989C12.8484 48.7781 12.7683 49.1732 12.7683 49.6843C12.7683 50.0249 12.8042 50.3144 12.8759 50.5526C12.9476 50.7909 13.0507 50.9721 13.1852 51.0963C13.321 51.2206 13.4843 51.2827 13.6751 51.2827ZM15.9738 51.6823C15.879 51.6823 15.7977 51.6483 15.7298 51.5805C15.6619 51.5126 15.628 51.4313 15.628 51.3365C15.628 51.2417 15.6619 51.1604 15.7298 51.0925C15.7977 51.0246 15.879 50.9907 15.9738 50.9907C16.0686 50.9907 16.1499 51.0246 16.2178 51.0925C16.2857 51.1604 16.3196 51.2417 16.3196 51.3365C16.3196 51.3992 16.3036 51.4569 16.2716 51.5094C16.2409 51.5619 16.1992 51.6042 16.1467 51.6362C16.0955 51.6669 16.0379 51.6823 15.9738 51.6823ZM18.2759 51.7053C18.0505 51.7053 17.8475 51.6605 17.6669 51.5709C17.4863 51.4812 17.3415 51.3582 17.2327 51.202C17.1238 51.0457 17.0643 50.8677 17.054 50.6679H17.5151C17.533 50.8459 17.6137 50.9932 17.7572 51.1098C17.9019 51.225 18.0748 51.2827 18.2759 51.2827C18.4373 51.2827 18.5807 51.2449 18.7062 51.1693C18.833 51.0938 18.9323 50.99 19.004 50.8581C19.077 50.7249 19.1135 50.5744 19.1135 50.4066C19.1135 50.235 19.0757 50.0819 19.0002 49.9475C18.9259 49.8117 18.8234 49.7047 18.6928 49.6266C18.5621 49.5485 18.4129 49.5088 18.2451 49.5075C18.1247 49.5062 18.0012 49.5248 17.8744 49.5632C17.7476 49.6004 17.6432 49.6484 17.5612 49.7073L17.1155 49.6535L17.3537 47.717H19.3979V48.1396H17.7533L17.615 49.3H17.638C17.7187 49.236 17.8199 49.1828 17.9416 49.1406C18.0633 49.0983 18.1901 49.0772 18.322 49.0772C18.5628 49.0772 18.7773 49.1348 18.9656 49.2501C19.1551 49.3641 19.3037 49.5203 19.4113 49.7188C19.5202 49.9174 19.5746 50.1441 19.5746 50.3989C19.5746 50.65 19.5182 50.8741 19.4055 51.0714C19.2941 51.2673 19.1404 51.4223 18.9445 51.5363C18.7485 51.649 18.5256 51.7053 18.2759 51.7053ZM21.6211 51.7053C21.3317 51.7053 21.0851 51.6266 20.8815 51.469C20.6778 51.3102 20.5222 51.0803 20.4146 50.7793C20.3071 50.4771 20.2533 50.112 20.2533 49.6843C20.2533 49.259 20.3071 48.8959 20.4146 48.5949C20.5235 48.2927 20.6798 48.0621 20.8834 47.9033C21.0883 47.7432 21.3343 47.6632 21.6211 47.6632C21.908 47.6632 22.1533 47.7432 22.357 47.9033C22.5619 48.0621 22.7181 48.2927 22.8257 48.5949C22.9346 48.8959 22.989 49.259 22.989 49.6843C22.989 50.112 22.9352 50.4771 22.8277 50.7793C22.7201 51.0803 22.5645 51.3102 22.3608 51.469C22.1572 51.6266 21.9106 51.7053 21.6211 51.7053ZM21.6211 51.2827C21.908 51.2827 22.1309 51.1444 22.2897 50.8677C22.4485 50.5911 22.528 50.1966 22.528 49.6843C22.528 49.3436 22.4914 49.0535 22.4184 48.814C22.3467 48.5744 22.243 48.3919 22.1072 48.2664C21.9727 48.1409 21.8107 48.0781 21.6211 48.0781C21.3368 48.0781 21.1146 48.2184 20.9545 48.4989C20.7944 48.7781 20.7143 49.1732 20.7143 49.6843C20.7143 50.0249 20.7502 50.3144 20.8219 50.5526C20.8937 50.7909 20.9968 50.9721 21.1312 51.0963C21.267 51.2206 21.4303 51.2827 21.6211 51.2827Z" fill="#262626"/>
<mask id="mask8_4200_6569" style="mask-type:luminance" maskUnits="userSpaceOnUse" x="24" y="11" width="206" height="75">
<path d="M229.641 11.1534H24.6567V85.176H229.641V11.1534Z" fill="white"/>
</mask>
<g mask="url(#mask8_4200_6569)">
<path d="M24.6567 32.3027H229.641" stroke="#CCCCCC" stroke-width="0.450839" stroke-linecap="round"/>
</g>
<path d="M13.4501 34.0809C13.1606 34.0809 12.9141 34.0021 12.7104 33.8446C12.5068 33.6858 12.3511 33.4559 12.2436 33.1549C12.136 32.8526 12.0822 32.4876 12.0822 32.0598C12.0822 31.6346 12.136 31.2715 12.2436 30.9705C12.3524 30.6682 12.5087 30.4377 12.7123 30.2789C12.9173 30.1188 13.1632 30.0387 13.4501 30.0387C13.737 30.0387 13.9822 30.1188 14.1859 30.2789C14.3908 30.4377 14.5471 30.6682 14.6546 30.9705C14.7635 31.2715 14.818 31.6346 14.818 32.0598C14.818 32.4876 14.7642 32.8526 14.6566 33.1549C14.549 33.4559 14.3934 33.6858 14.1897 33.8446C13.9861 34.0021 13.7395 34.0809 13.4501 34.0809ZM13.4501 33.6582C13.737 33.6582 13.9598 33.5199 14.1186 33.2433C14.2775 32.9666 14.3569 32.5721 14.3569 32.0598C14.3569 31.7191 14.3204 31.429 14.2474 31.1895C14.1756 30.95 14.0719 30.7675 13.9361 30.642C13.8016 30.5164 13.6396 30.4537 13.4501 30.4537C13.1657 30.4537 12.9435 30.5939 12.7834 30.8744C12.6233 31.1536 12.5433 31.5488 12.5433 32.0598C12.5433 32.4005 12.5791 32.69 12.6508 32.9282C12.7226 33.1664 12.8257 33.3476 12.9602 33.4719C13.0959 33.5961 13.2592 33.6582 13.4501 33.6582ZM15.7488 34.0578C15.654 34.0578 15.5727 34.0239 15.5048 33.956C15.4369 33.8881 15.403 33.8068 15.403 33.712C15.403 33.6172 15.4369 33.5359 15.5048 33.468C15.5727 33.4002 15.654 33.3662 15.7488 33.3662C15.8435 33.3662 15.9249 33.4002 15.9928 33.468C16.0606 33.5359 16.0946 33.6172 16.0946 33.712C16.0946 33.7748 16.0786 33.8324 16.0466 33.8849C16.0158 33.9374 15.9742 33.9797 15.9217 34.0117C15.8704 34.0425 15.8128 34.0578 15.7488 34.0578ZM16.9442 34.0271L18.704 30.5459V30.5152H16.6753V30.0925H19.1959V30.5382L17.4437 34.0271H16.9442ZM21.0887 34.0809C20.8633 34.0809 20.6603 34.0361 20.4797 33.9464C20.2991 33.8568 20.1544 33.7338 20.0455 33.5775C19.9366 33.4213 19.8771 33.2433 19.8668 33.0435H20.3279C20.3459 33.2215 20.4265 33.3688 20.57 33.4853C20.7147 33.6006 20.8876 33.6582 21.0887 33.6582C21.2501 33.6582 21.3935 33.6204 21.5191 33.5449C21.6459 33.4693 21.7451 33.3656 21.8168 33.2336C21.8898 33.1004 21.9263 32.95 21.9263 32.7822C21.9263 32.6105 21.8886 32.4575 21.813 32.323C21.7387 32.1872 21.6362 32.0803 21.5056 32.0022C21.375 31.924 21.2258 31.8843 21.058 31.8831C20.9376 31.8818 20.814 31.9003 20.6872 31.9388C20.5604 31.9759 20.456 32.0239 20.374 32.0829L19.9283 32.0291L20.1665 30.0925H22.2107V30.5152H20.5661L20.4278 31.6756H20.4509C20.5316 31.6115 20.6327 31.5584 20.7544 31.5161C20.8761 31.4738 21.0029 31.4527 21.1348 31.4527C21.3756 31.4527 21.5901 31.5103 21.7784 31.6256C21.968 31.7396 22.1165 31.8959 22.2241 32.0944C22.333 32.2929 22.3874 32.5196 22.3874 32.7745C22.3874 33.0255 22.3311 33.2497 22.2184 33.4469C22.1069 33.6429 21.9532 33.7978 21.7573 33.9118C21.5613 34.0245 21.3385 34.0809 21.0887 34.0809Z" fill="#262626"/>
<mask id="mask9_4200_6569" style="mask-type:luminance" maskUnits="userSpaceOnUse" x="24" y="11" width="206" height="75">
<path d="M229.641 11.1534H24.6567V85.176H229.641V11.1534Z" fill="white"/>
</mask>
<g mask="url(#mask9_4200_6569)">
<path d="M24.6567 14.6783H229.641" stroke="#CCCCCC" stroke-width="0.450839" stroke-linecap="round"/>
</g>
<path d="M14.9531 12.4682V16.4028H14.4766V12.9677H14.4535L13.493 13.6055V13.1214L14.4766 12.4682H14.9531ZM16.1903 16.4335C16.0955 16.4335 16.0142 16.3996 15.9463 16.3317C15.8784 16.2638 15.8445 16.1825 15.8445 16.0877C15.8445 15.9929 15.8784 15.9116 15.9463 15.8437C16.0142 15.7758 16.0955 15.7419 16.1903 15.7419C16.2851 15.7419 16.3664 15.7758 16.4343 15.8437C16.5022 15.9116 16.5361 15.9929 16.5361 16.0877C16.5361 16.1505 16.5201 16.2081 16.4881 16.2606C16.4573 16.3131 16.4157 16.3554 16.3632 16.3874C16.312 16.4181 16.2543 16.4335 16.1903 16.4335ZM18.488 16.4566C18.1986 16.4566 17.952 16.3778 17.7484 16.2203C17.5447 16.0614 17.3891 15.8315 17.2815 15.5306C17.174 15.2283 17.1202 14.8633 17.1202 14.4355C17.1202 14.0103 17.174 13.6471 17.2815 13.3462C17.3904 13.0439 17.5467 12.8133 17.7503 12.6545C17.9552 12.4944 18.2011 12.4144 18.488 12.4144C18.7749 12.4144 19.0202 12.4944 19.2239 12.6545C19.4288 12.8133 19.585 13.0439 19.6926 13.3462C19.8015 13.6471 19.8559 14.0103 19.8559 14.4355C19.8559 14.8633 19.8021 15.2283 19.6946 15.5306C19.587 15.8315 19.4313 16.0614 19.2277 16.2203C19.0241 16.3778 18.7775 16.4566 18.488 16.4566ZM18.488 16.0339C18.7749 16.0339 18.9978 15.8956 19.1566 15.6189C19.3154 15.3423 19.3948 14.9478 19.3948 14.4355C19.3948 14.0948 19.3583 13.8047 19.2853 13.5652C19.2136 13.3257 19.1099 13.1432 18.9741 13.0176C18.8396 12.8921 18.6776 12.8294 18.488 12.8294C18.2037 12.8294 17.9815 12.9696 17.8214 13.2501C17.6613 13.5293 17.5812 13.9244 17.5812 14.4355C17.5812 14.7762 17.6171 15.0656 17.6888 15.3039C17.7606 15.5421 17.8637 15.7233 17.9981 15.8475C18.1339 15.9718 18.2972 16.0339 18.488 16.0339ZM21.8693 16.4566C21.5799 16.4566 21.3333 16.3778 21.1297 16.2203C20.926 16.0614 20.7704 15.8315 20.6628 15.5306C20.5552 15.2283 20.5015 14.8633 20.5015 14.4355C20.5015 14.0103 20.5552 13.6471 20.6628 13.3462C20.7717 13.0439 20.928 12.8133 21.1316 12.6545C21.3365 12.4944 21.5824 12.4144 21.8693 12.4144C22.1562 12.4144 22.4015 12.4944 22.6052 12.6545C22.8101 12.8133 22.9663 13.0439 23.0739 13.3462C23.1828 13.6471 23.2372 14.0103 23.2372 14.4355C23.2372 14.8633 23.1834 15.2283 23.0758 15.5306C22.9683 15.8315 22.8126 16.0614 22.609 16.2203C22.4053 16.3778 22.1588 16.4566 21.8693 16.4566ZM21.8693 16.0339C22.1562 16.0339 22.3791 15.8956 22.5379 15.6189C22.6967 15.3423 22.7761 14.9478 22.7761 14.4355C22.7761 14.0948 22.7396 13.8047 22.6666 13.5652C22.5949 13.3257 22.4912 13.1432 22.3554 13.0176C22.2209 12.8921 22.0589 12.8294 21.8693 12.8294C21.585 12.8294 21.3628 12.9696 21.2027 13.2501C21.0426 13.5293 20.9625 13.9244 20.9625 14.4355C20.9625 14.7762 20.9984 15.0656 21.0701 15.3039C21.1418 15.5421 21.245 15.7233 21.3794 15.8475C21.5152 15.9718 21.6785 16.0339 21.8693 16.0339Z" fill="#262626"/>
<path d="M8.72672 57.9556H4.66917V57.5175H5.13794V57.4637C5.08671 57.4304 5.02139 57.3843 4.94198 57.3254C4.86129 57.2652 4.78957 57.1794 4.72681 57.068C4.66277 56.9553 4.63075 56.8029 4.63075 56.6107C4.63075 56.3623 4.69287 56.1432 4.8171 55.9537C4.94134 55.7641 5.11745 55.6162 5.34543 55.5099C5.57341 55.4036 5.84238 55.3504 6.15233 55.3504C6.46484 55.3504 6.73573 55.4036 6.96499 55.5099C7.19297 55.6162 7.36972 55.7635 7.49524 55.9518C7.61948 56.14 7.6816 56.3571 7.6816 56.603C7.6816 56.7926 7.65022 56.9444 7.58746 57.0584C7.52342 57.1724 7.45105 57.2601 7.37036 57.3216C7.28839 57.383 7.22051 57.4304 7.16672 57.4637V57.5022H8.72672V57.9556ZM6.14464 57.5098C6.3675 57.5098 6.5641 57.4772 6.73445 57.4119C6.90351 57.3465 7.03608 57.2511 7.13214 57.1256C7.22691 57.0001 7.2743 56.8464 7.2743 56.6645C7.2743 56.475 7.22435 56.3168 7.12445 56.19C7.02327 56.0619 6.8875 55.9659 6.71716 55.9018C6.54553 55.8365 6.35469 55.8038 6.14464 55.8038C5.93716 55.8038 5.75016 55.8359 5.58366 55.8999C5.41587 55.9627 5.28331 56.0581 5.18597 56.1861C5.08735 56.3129 5.03804 56.4724 5.03804 56.6645C5.03804 56.849 5.08479 57.0039 5.17829 57.1295C5.2705 57.255 5.39986 57.3497 5.56637 57.4138C5.73159 57.4778 5.92435 57.5098 6.14464 57.5098ZM7.68928 53.7904C7.68928 53.9774 7.65406 54.1471 7.58361 54.2995C7.51189 54.452 7.40879 54.573 7.2743 54.6626C7.13854 54.7523 6.9746 54.7971 6.78248 54.7971C6.61341 54.7971 6.47637 54.7638 6.37134 54.6972C6.26504 54.6306 6.18179 54.5416 6.12159 54.4302C6.06139 54.3188 6.01656 54.1958 5.98711 54.0613C5.95637 53.9256 5.93203 53.7891 5.9141 53.6521C5.89105 53.4728 5.87376 53.3274 5.86223 53.216C5.84942 53.1033 5.82829 53.0213 5.79883 52.9701C5.76937 52.9176 5.71814 52.8913 5.64514 52.8913H5.62977C5.44021 52.8913 5.29292 52.9432 5.18789 53.0469C5.08287 53.1494 5.03035 53.305 5.03035 53.5138C5.03035 53.7302 5.07774 53.8999 5.17252 54.0229C5.2673 54.1458 5.36848 54.2323 5.47607 54.2823L5.32238 54.7126C5.14306 54.6357 5.00346 54.5333 4.90356 54.4052C4.80237 54.2758 4.73193 54.135 4.69223 53.9825C4.65124 53.8289 4.63075 53.6777 4.63075 53.5291C4.63075 53.4344 4.64227 53.3255 4.66533 53.2025C4.6871 53.0783 4.73257 52.9586 4.80173 52.8433C4.8709 52.7267 4.97528 52.63 5.11489 52.5532C5.25449 52.4763 5.44149 52.4379 5.67587 52.4379H7.62012V52.8913H7.22051V52.9144C7.28455 52.9451 7.35307 52.9963 7.42608 53.0681C7.49908 53.1398 7.5612 53.2352 7.61243 53.3543C7.66366 53.4734 7.68928 53.6188 7.68928 53.7904ZM7.28199 53.7213C7.28199 53.542 7.24677 53.3908 7.17632 53.2679C7.10588 53.1436 7.01494 53.0501 6.90351 52.9874C6.79208 52.9233 6.67489 52.8913 6.55194 52.8913H6.13696C6.16001 52.9105 6.18115 52.9528 6.20036 53.0181C6.21829 53.0821 6.2343 53.1564 6.24839 53.241C6.2612 53.3242 6.27272 53.4055 6.28297 53.485C6.29194 53.5631 6.29962 53.6265 6.30602 53.6752C6.32139 53.793 6.34637 53.9031 6.38095 54.0056C6.41425 54.1068 6.46484 54.1888 6.53272 54.2515C6.59933 54.313 6.69026 54.3437 6.80553 54.3437C6.96307 54.3437 7.08218 54.2855 7.16287 54.1689C7.24228 54.0511 7.28199 53.9019 7.28199 53.7213ZM5.33006 49.5201L5.44533 49.9274C5.37745 49.953 5.31149 49.9908 5.24745 50.0407C5.18213 50.0894 5.12834 50.156 5.08607 50.2405C5.0438 50.3251 5.02267 50.4333 5.02267 50.5652C5.02267 50.7458 5.0643 50.8963 5.14755 51.0167C5.22952 51.1358 5.3339 51.1954 5.4607 51.1954C5.57341 51.1954 5.66243 51.1544 5.72775 51.0724C5.79307 50.9905 5.8475 50.8624 5.89105 50.6882L5.99863 50.2502C6.06267 49.9863 6.16065 49.7897 6.29258 49.6604C6.42322 49.531 6.59164 49.4663 6.79785 49.4663C6.96691 49.4663 7.11805 49.515 7.25125 49.6123C7.38445 49.7084 7.48948 49.8429 7.56632 50.0158C7.64317 50.1887 7.6816 50.3898 7.6816 50.619C7.6816 50.92 7.61627 51.1691 7.48563 51.3664C7.35499 51.5636 7.16416 51.6885 6.91312 51.741L6.80553 51.3107C6.96435 51.2697 7.08347 51.1922 7.16287 51.0782C7.24228 50.9629 7.28199 50.8124 7.28199 50.6267C7.28199 50.4154 7.23716 50.2476 7.1475 50.1234C7.05657 49.9978 6.9477 49.9351 6.8209 49.9351C6.71844 49.9351 6.63263 49.9709 6.56346 50.0427C6.49302 50.1144 6.44051 50.2245 6.40593 50.3731L6.29065 50.8649C6.22661 51.1352 6.12735 51.3337 5.99287 51.4605C5.85711 51.586 5.6874 51.6488 5.48376 51.6488C5.31725 51.6488 5.16996 51.602 5.04188 51.5085C4.9138 51.4138 4.81326 51.285 4.74026 51.1224C4.66725 50.9584 4.63075 50.7727 4.63075 50.5652C4.63075 50.2732 4.69479 50.0439 4.82287 49.8774C4.95095 49.7097 5.12001 49.5905 5.33006 49.5201ZM5.33006 46.6936L5.44533 47.1008C5.37745 47.1265 5.31149 47.1642 5.24745 47.2142C5.18213 47.2629 5.12834 47.3295 5.08607 47.414C5.0438 47.4985 5.02267 47.6068 5.02267 47.7387C5.02267 47.9193 5.0643 48.0698 5.14755 48.1902C5.22952 48.3093 5.3339 48.3688 5.4607 48.3688C5.57341 48.3688 5.66243 48.3278 5.72775 48.2459C5.79307 48.1639 5.8475 48.0358 5.89105 47.8616L5.99863 47.4236C6.06267 47.1598 6.16065 46.9632 6.29258 46.8338C6.42322 46.7044 6.59164 46.6398 6.79785 46.6398C6.96691 46.6398 7.11805 46.6884 7.25125 46.7858C7.38445 46.8818 7.48948 47.0163 7.56632 47.1892C7.64317 47.3621 7.6816 47.5632 7.6816 47.7925C7.6816 48.0935 7.61627 48.3426 7.48563 48.5398C7.35499 48.7371 7.16416 48.8619 6.91312 48.9144L6.80553 48.4841C6.96435 48.4431 7.08347 48.3656 7.16287 48.2516C7.24228 48.1364 7.28199 47.9859 7.28199 47.8002C7.28199 47.5888 7.23716 47.421 7.1475 47.2968C7.05657 47.1713 6.9477 47.1085 6.8209 47.1085C6.71844 47.1085 6.63263 47.1444 6.56346 47.2161C6.49302 47.2878 6.44051 47.398 6.40593 47.5466L6.29065 48.0384C6.22661 48.3086 6.12735 48.5072 5.99287 48.634C5.85711 48.7595 5.6874 48.8222 5.48376 48.8222C5.31725 48.8222 5.16996 48.7755 5.04188 48.682C4.9138 48.5872 4.81326 48.4585 4.74026 48.2958C4.66725 48.1319 4.63075 47.9462 4.63075 47.7387C4.63075 47.4467 4.69479 47.2174 4.82287 47.0509C4.95095 46.8831 5.12001 46.764 5.33006 46.6936ZM8.20416 43.5193C8.20416 43.9278 8.14844 44.2916 8.03702 44.6105C7.92687 44.9294 7.76549 45.199 7.55288 45.4193C7.33898 45.6396 7.07834 45.8074 6.77095 45.9227C6.46356 46.0379 6.11391 46.0956 5.72198 46.0956C5.33518 46.0956 4.98425 46.0379 4.66917 45.9227C4.3541 45.8061 4.08385 45.6364 3.85843 45.4136C3.63173 45.1907 3.45754 44.9185 3.33587 44.5971C3.21419 44.2743 3.15335 43.9067 3.15335 43.4943C3.15335 43.1126 3.20907 42.7719 3.3205 42.4722C3.43193 42.1712 3.59074 41.9164 3.79695 41.7076C4.00188 41.4975 4.24587 41.3381 4.52892 41.2292C4.8107 41.1191 5.12257 41.0646 5.46454 41.0659C5.70021 41.0646 5.91666 41.0851 6.11391 41.1274C6.31115 41.1697 6.48341 41.2363 6.6307 41.3272C6.77672 41.4168 6.89263 41.5347 6.97844 41.6807C7.06297 41.8267 7.111 42.0035 7.12253 42.2109C7.13406 42.3595 7.12317 42.4799 7.08987 42.5721C7.05657 42.6643 7.00726 42.7348 6.94194 42.7835C6.87534 42.8308 6.79785 42.8616 6.70947 42.8757V42.8987C6.78632 42.9295 6.85612 42.9897 6.91888 43.0793C6.98036 43.169 7.02839 43.2785 7.06297 43.4078C7.09627 43.5359 7.10844 43.6723 7.09948 43.8171C7.09051 43.9682 7.05529 44.1116 6.99381 44.2474C6.93233 44.3819 6.84332 44.5016 6.72676 44.6067C6.61021 44.7104 6.46612 44.7924 6.2945 44.8526C6.12287 44.9115 5.92435 44.9416 5.69893 44.9429C5.47607 44.9416 5.28203 44.9102 5.11681 44.8487C4.95159 44.786 4.81262 44.7034 4.69991 44.6009C4.5872 44.4972 4.49883 44.3819 4.43479 44.2551C4.37075 44.1283 4.32976 44.0008 4.31183 43.8728C4.29006 43.728 4.29006 43.591 4.31183 43.4616C4.3336 43.3323 4.36883 43.2234 4.4175 43.135C4.46617 43.0454 4.51868 42.9897 4.57503 42.9679V42.941H4.35986V42.3397H6.23494C6.32331 42.3384 6.39184 42.3185 6.44051 42.2801C6.48918 42.2417 6.51351 42.1898 6.51351 42.1245C6.51351 42.0361 6.47445 41.9625 6.39632 41.9036C6.31819 41.8434 6.19844 41.7985 6.03706 41.7691C5.87568 41.7383 5.67011 41.723 5.42036 41.723C5.17957 41.723 4.96824 41.755 4.78636 41.819C4.60321 41.8818 4.44759 41.9702 4.31951 42.0841C4.19015 42.1969 4.08513 42.3281 4.00444 42.478C3.92375 42.6278 3.86483 42.7905 3.82769 42.966C3.79055 43.1402 3.77198 43.3195 3.77198 43.5039C3.77198 43.8228 3.82065 44.1014 3.91799 44.3396C4.01405 44.5778 4.14917 44.7764 4.32336 44.9352C4.49754 45.094 4.70183 45.2131 4.93622 45.2925C5.16932 45.3707 5.42356 45.4104 5.69893 45.4116C6.00248 45.4104 6.27144 45.3681 6.50583 45.2848C6.73893 45.2003 6.93489 45.0761 7.09371 44.9121C7.25253 44.7482 7.37292 44.5458 7.45489 44.305C7.53687 44.0642 7.57785 43.7876 7.57785 43.4751C7.57785 43.3278 7.5676 43.1837 7.54711 43.0428C7.52534 42.9019 7.49972 42.7745 7.47026 42.6605C7.43953 42.5465 7.41007 42.4549 7.38189 42.3858L7.93903 42.1956C7.98514 42.2763 8.02805 42.3858 8.06775 42.5241C8.10874 42.6611 8.1414 42.8161 8.16573 42.989C8.19135 43.1606 8.20416 43.3374 8.20416 43.5193ZM6.4674 43.6076C6.4674 43.4514 6.43731 43.3272 6.37711 43.2349C6.31691 43.1414 6.2279 43.0748 6.11006 43.0351C5.99095 42.9941 5.8443 42.9749 5.67011 42.9775C5.51642 42.9788 5.38641 42.9986 5.28011 43.0371C5.17252 43.0742 5.09119 43.1389 5.03612 43.2311C4.97976 43.322 4.95159 43.4488 4.95159 43.6115C4.95159 43.7537 4.98168 43.8747 5.04188 43.9746C5.10208 44.0732 5.18661 44.1488 5.29548 44.2013C5.40307 44.2525 5.52986 44.2788 5.67587 44.2801C5.81164 44.2788 5.94036 44.257 6.06203 44.2147C6.18243 44.1725 6.28041 44.1027 6.35597 44.0053C6.43026 43.908 6.4674 43.7754 6.4674 43.6076ZM3.68552 38.7677H7.62012V39.5996H4.47513V39.6226L5.03996 40.5237H4.30222L3.68552 39.5496V38.7677Z" fill="#262626"/>
<mask id="mask10_4200_6569" style="mask-type:luminance" maskUnits="userSpaceOnUse" x="24" y="11" width="206" height="75">
<path d="M229.641 11.1534H24.6567V85.176H229.641V11.1534Z" fill="white"/>
</mask>
<g mask="url(#mask10_4200_6569)">
<path d="M33.9741 85.1758H43.782V18.2031H33.9741V85.1758Z" fill="#2A2EEC" stroke="white" stroke-width="0.450839"/>
</g>
<mask id="mask11_4200_6569" style="mask-type:luminance" maskUnits="userSpaceOnUse" x="24" y="11" width="206" height="75">
<path d="M229.641 11.1534H24.6567V85.176H229.641V11.1534Z" fill="white"/>
</mask>
<g mask="url(#mask11_4200_6569)">
<path d="M73.2056 85.1759H83.0134V25.2529H73.2056V85.1759Z" fill="#2A2EEC" stroke="white" stroke-width="0.450839"/>
</g>
<mask id="mask12_4200_6569" style="mask-type:luminance" maskUnits="userSpaceOnUse" x="24" y="11" width="206" height="75">
<path d="M229.641 11.1534H24.6567V85.176H229.641V11.1534Z" fill="white"/>
</mask>
<g mask="url(#mask12_4200_6569)">
<path d="M112.437 85.1759H122.245V14.6783H112.437V85.1759Z" fill="#2A2EEC" stroke="white" stroke-width="0.450839"/>
</g>
<mask id="mask13_4200_6569" style="mask-type:luminance" maskUnits="userSpaceOnUse" x="24" y="11" width="206" height="75">
<path d="M229.641 11.1534H24.6567V85.176H229.641V11.1534Z" fill="white"/>
</mask>
<g mask="url(#mask13_4200_6569)">
<path d="M151.669 85.1759H161.477V14.6783H151.669V85.1759Z" fill="#2A2EEC" stroke="white" stroke-width="0.450839"/>
</g>
<mask id="mask14_4200_6569" style="mask-type:luminance" maskUnits="userSpaceOnUse" x="24" y="11" width="206" height="75">
<path d="M229.641 11.1534H24.6567V85.176H229.641V11.1534Z" fill="white"/>
</mask>
<g mask="url(#mask14_4200_6569)">
<path d="M190.9 85.1759H200.708V35.8276H190.9V85.1759Z" fill="#2A2EEC" stroke="white" stroke-width="0.450839"/>
</g>
<mask id="mask15_4200_6569" style="mask-type:luminance" maskUnits="userSpaceOnUse" x="24" y="11" width="206" height="75">
<path d="M229.641 11.1534H24.6567V85.176H229.641V11.1534Z" fill="white"/>
</mask>
<g mask="url(#mask15_4200_6569)">
<path d="M43.782 85.1759H53.5899V67.5515H43.782V85.1759Z" fill="#FA7C17" stroke="white" stroke-width="0.450839"/>
</g>
<mask id="mask16_4200_6569" style="mask-type:luminance" maskUnits="userSpaceOnUse" x="24" y="11" width="206" height="75">
<path d="M229.641 11.1534H24.6567V85.176H229.641V11.1534Z" fill="white"/>
</mask>
<g mask="url(#mask16_4200_6569)">
<path d="M83.0137 85.176H92.8215V71.0765H83.0137V85.176Z" fill="#FA7C17" stroke="white" stroke-width="0.450839"/>
</g>
<mask id="mask17_4200_6569" style="mask-type:luminance" maskUnits="userSpaceOnUse" x="24" y="11" width="206" height="75">
<path d="M229.641 11.1534H24.6567V85.176H229.641V11.1534Z" fill="white"/>
</mask>
<g mask="url(#mask17_4200_6569)">
<path d="M122.245 85.1759H132.053V60.5017H122.245V85.1759Z" fill="#FA7C17" stroke="white" stroke-width="0.450839"/>
</g>
<mask id="mask18_4200_6569" style="mask-type:luminance" maskUnits="userSpaceOnUse" x="24" y="11" width="206" height="75">
<path d="M229.641 11.1534H24.6567V85.176H229.641V11.1534Z" fill="white"/>
</mask>
<g mask="url(#mask18_4200_6569)">
<path d="M161.477 85.1759H171.284V53.452H161.477V85.1759Z" fill="#FA7C17" stroke="white" stroke-width="0.450839"/>
</g>
<mask id="mask19_4200_6569" style="mask-type:luminance" maskUnits="userSpaceOnUse" x="24" y="11" width="206" height="75">
<path d="M229.641 11.1534H24.6567V85.176H229.641V11.1534Z" fill="white"/>
</mask>
<g mask="url(#mask19_4200_6569)">
<path d="M200.708 85.1759H210.516V74.6013H200.708V85.1759Z" fill="#FA7C17" stroke="white" stroke-width="0.450839"/>
</g>
<mask id="mask20_4200_6569" style="mask-type:luminance" maskUnits="userSpaceOnUse" x="24" y="11" width="206" height="75">
<path d="M229.641 11.1534H24.6567V85.176H229.641V11.1534Z" fill="white"/>
</mask>
<g mask="url(#mask20_4200_6569)">
<path d="M53.5898 85.1759H63.3977V49.9271H53.5898V85.1759Z" fill="#328C06" stroke="white" stroke-width="0.450839"/>
</g>
<mask id="mask21_4200_6569" style="mask-type:luminance" maskUnits="userSpaceOnUse" x="24" y="11" width="206" height="75">
<path d="M229.641 11.1534H24.6567V85.176H229.641V11.1534Z" fill="white"/>
</mask>
<g mask="url(#mask21_4200_6569)">
<path d="M92.8215 85.1759H102.629V74.6013H92.8215V85.1759Z" fill="#328C06" stroke="white" stroke-width="0.450839"/>
</g>
<mask id="mask22_4200_6569" style="mask-type:luminance" maskUnits="userSpaceOnUse" x="24" y="11" width="206" height="75">
<path d="M229.641 11.1534H24.6567V85.176H229.641V11.1534Z" fill="white"/>
</mask>
<g mask="url(#mask22_4200_6569)">
<path d="M132.053 85.176H141.861V39.3525H132.053V85.176Z" fill="#328C06" stroke="white" stroke-width="0.450839"/>
</g>
<mask id="mask23_4200_6569" style="mask-type:luminance" maskUnits="userSpaceOnUse" x="24" y="11" width="206" height="75">
<path d="M229.641 11.1534H24.6567V85.176H229.641V11.1534Z" fill="white"/>
</mask>
<g mask="url(#mask23_4200_6569)">
<path d="M171.284 85.176H181.092V32.3027H171.284V85.176Z" fill="#328C06" stroke="white" stroke-width="0.450839"/>
</g>
<mask id="mask24_4200_6569" style="mask-type:luminance" maskUnits="userSpaceOnUse" x="24" y="11" width="206" height="75">
<path d="M229.641 11.1534H24.6567V85.176H229.641V11.1534Z" fill="white"/>
</mask>
<g mask="url(#mask24_4200_6569)">
<path d="M210.516 85.1759H220.324V60.5017H210.516V85.1759Z" fill="#328C06" stroke="white" stroke-width="0.450839"/>
</g>
<path d="M24.6567 85.176V11.1534" stroke="#CCCCCC" stroke-width="0.450839" stroke-linecap="square"/>
<path d="M229.641 85.176V11.1534" stroke="#CCCCCC" stroke-width="0.450839" stroke-linecap="square"/>
<path d="M24.6567 85.1758H229.641" stroke="#CCCCCC" stroke-width="0.450839" stroke-linecap="square"/>
<path d="M24.6567 11.1534H229.641" stroke="#CCCCCC" stroke-width="0.450839" stroke-linecap="square"/>
<path d="M104.184 4.38303V3.96036H107.135V4.38303H105.898V7.89496H105.421V4.38303H104.184ZM108.618 7.95644C108.334 7.95644 108.089 7.89368 107.882 7.76816C107.677 7.64136 107.519 7.46461 107.408 7.23791C107.298 7.00993 107.243 6.74481 107.243 6.44254C107.243 6.14027 107.298 5.87387 107.408 5.64333C107.519 5.4115 107.674 5.23091 107.873 5.10155C108.073 4.97091 108.306 4.90559 108.572 4.90559C108.726 4.90559 108.878 4.9312 109.027 4.98244C109.177 5.03367 109.314 5.11692 109.437 5.23219C109.56 5.34618 109.658 5.49731 109.731 5.68559C109.804 5.87387 109.84 6.10569 109.84 6.38106V6.57318H107.565V6.18126H109.379C109.379 6.01476 109.346 5.86618 109.279 5.73554C109.214 5.6049 109.12 5.5018 108.999 5.42623C108.878 5.35066 108.736 5.31288 108.572 5.31288C108.392 5.31288 108.235 5.35771 108.103 5.44736C107.973 5.53574 107.872 5.65101 107.802 5.79318C107.731 5.93535 107.696 6.08776 107.696 6.25042V6.5117C107.696 6.73456 107.734 6.92348 107.811 7.07845C107.889 7.23215 107.998 7.34934 108.136 7.43003C108.274 7.50944 108.435 7.54914 108.618 7.54914C108.737 7.54914 108.845 7.53249 108.941 7.49919C109.038 7.46461 109.122 7.41338 109.193 7.3455C109.263 7.27634 109.318 7.19052 109.356 7.08806L109.794 7.21102C109.748 7.35959 109.67 7.49023 109.562 7.60294C109.453 7.71437 109.318 7.80146 109.158 7.86422C108.998 7.9257 108.818 7.95644 108.618 7.95644ZM110.53 7.89496V4.94401H110.968V5.4051H111.006C111.068 5.24756 111.167 5.12524 111.304 5.03815C111.441 4.94978 111.606 4.90559 111.798 4.90559C111.992 4.90559 112.155 4.94978 112.284 5.03815C112.415 5.12524 112.516 5.24756 112.589 5.4051H112.62C112.696 5.25268 112.809 5.13165 112.96 5.04199C113.111 4.95106 113.292 4.90559 113.504 4.90559C113.768 4.90559 113.983 4.9882 114.151 5.15342C114.319 5.31736 114.403 5.57288 114.403 5.91998V7.89496H113.95V5.91998C113.95 5.70224 113.89 5.54663 113.771 5.45313C113.652 5.35963 113.512 5.31288 113.35 5.31288C113.143 5.31288 112.982 5.37564 112.868 5.50116C112.754 5.62539 112.697 5.78293 112.697 5.97377V7.89496H112.236V5.87387C112.236 5.70608 112.181 5.57096 112.073 5.4685C111.964 5.36475 111.823 5.31288 111.652 5.31288C111.534 5.31288 111.424 5.34426 111.321 5.40702C111.22 5.46978 111.138 5.55687 111.075 5.6683C111.014 5.77845 110.983 5.90589 110.983 6.05062V7.89496H110.53ZM115.232 9.00156V4.94401H115.67V5.41278H115.724C115.757 5.36155 115.803 5.29623 115.862 5.21682C115.922 5.13613 116.008 5.06441 116.12 5.00165C116.232 4.93761 116.385 4.90559 116.577 4.90559C116.825 4.90559 117.044 4.96771 117.234 5.09194C117.423 5.21618 117.571 5.39229 117.678 5.62027C117.784 5.84825 117.837 6.11722 117.837 6.42717C117.837 6.73968 117.784 7.01057 117.678 7.23983C117.571 7.46781 117.424 7.64456 117.236 7.77008C117.047 7.89432 116.83 7.95644 116.584 7.95644C116.395 7.95644 116.243 7.92506 116.129 7.8623C116.015 7.79826 115.927 7.72589 115.866 7.6452C115.804 7.56323 115.757 7.49535 115.724 7.44156H115.685V9.00156H115.232ZM115.678 6.41949C115.678 6.64234 115.71 6.83895 115.776 7.00929C115.841 7.17836 115.936 7.31092 116.062 7.40698C116.187 7.50176 116.341 7.54914 116.523 7.54914C116.713 7.54914 116.871 7.49919 116.998 7.39929C117.126 7.29811 117.222 7.16235 117.286 6.992C117.351 6.82037 117.384 6.62954 117.384 6.41949C117.384 6.212 117.352 6.025 117.288 5.8585C117.225 5.69071 117.129 5.55815 117.001 5.46081C116.875 5.36219 116.715 5.31288 116.523 5.31288C116.339 5.31288 116.184 5.35963 116.058 5.45313C115.933 5.54534 115.838 5.6747 115.774 5.84121C115.71 6.00643 115.678 6.19919 115.678 6.41949ZM119.766 7.95644C119.482 7.95644 119.236 7.89368 119.03 7.76816C118.825 7.64136 118.667 7.46461 118.556 7.23791C118.445 7.00993 118.39 6.74481 118.39 6.44254C118.39 6.14027 118.445 5.87387 118.556 5.64333C118.667 5.4115 118.822 5.23091 119.021 5.10155C119.22 4.97091 119.453 4.90559 119.72 4.90559C119.874 4.90559 120.025 4.9312 120.175 4.98244C120.325 5.03367 120.461 5.11692 120.584 5.23219C120.707 5.34618 120.805 5.49731 120.878 5.68559C120.951 5.87387 120.988 6.10569 120.988 6.38106V6.57318H118.713V6.18126H120.527C120.527 6.01476 120.493 5.86618 120.427 5.73554C120.362 5.6049 120.268 5.5018 120.146 5.42623C120.026 5.35066 119.884 5.31288 119.72 5.31288C119.539 5.31288 119.383 5.35771 119.251 5.44736C119.12 5.53574 119.02 5.65101 118.949 5.79318C118.879 5.93535 118.844 6.08776 118.844 6.25042V6.5117C118.844 6.73456 118.882 6.92348 118.959 7.07845C119.037 7.23215 119.145 7.34934 119.284 7.43003C119.422 7.50944 119.583 7.54914 119.766 7.54914C119.885 7.54914 119.993 7.53249 120.089 7.49919C120.186 7.46461 120.27 7.41338 120.34 7.3455C120.411 7.27634 120.465 7.19052 120.504 7.08806L120.942 7.21102C120.896 7.35959 120.818 7.49023 120.709 7.60294C120.6 7.71437 120.466 7.80146 120.306 7.86422C120.146 7.9257 119.966 7.95644 119.766 7.95644ZM121.678 7.89496V4.94401H122.116V5.38973H122.146C122.2 5.24372 122.297 5.12524 122.438 5.03431C122.579 4.94337 122.738 4.8979 122.915 4.8979C122.948 4.8979 122.99 4.89854 123.04 4.89983C123.09 4.90111 123.127 4.90303 123.153 4.90559V5.36667C123.138 5.36283 123.102 5.35707 123.047 5.34938C122.994 5.34042 122.937 5.33594 122.876 5.33594C122.733 5.33594 122.605 5.36603 122.492 5.42623C122.381 5.48515 122.292 5.56712 122.227 5.67214C122.163 5.77589 122.131 5.89436 122.131 6.02756V7.89496H121.678ZM124.559 7.96412C124.372 7.96412 124.202 7.9289 124.05 7.85846C123.897 7.78673 123.776 7.68363 123.687 7.54914C123.597 7.41338 123.552 7.24944 123.552 7.05732C123.552 6.88826 123.585 6.75121 123.652 6.64619C123.719 6.53988 123.808 6.45663 123.919 6.39643C124.03 6.33623 124.153 6.29141 124.288 6.26195C124.424 6.23121 124.56 6.20687 124.697 6.18894C124.876 6.16589 125.022 6.1486 125.133 6.13707C125.246 6.12426 125.328 6.10313 125.379 6.07367C125.432 6.04421 125.458 5.99298 125.458 5.91998V5.90461C125.458 5.71505 125.406 5.56776 125.302 5.46273C125.2 5.35771 125.044 5.3052 124.835 5.3052C124.619 5.3052 124.449 5.35259 124.326 5.44736C124.203 5.54214 124.117 5.64333 124.067 5.75091L123.637 5.59722C123.713 5.41791 123.816 5.2783 123.944 5.1784C124.073 5.07721 124.214 5.00677 124.367 4.96707C124.52 4.92608 124.672 4.90559 124.82 4.90559C124.915 4.90559 125.024 4.91712 125.147 4.94017C125.271 4.96194 125.391 5.00741 125.506 5.07657C125.623 5.14574 125.719 5.25012 125.796 5.38973C125.873 5.52933 125.911 5.71633 125.911 5.95072V7.89496H125.458V7.49535H125.435C125.404 7.55939 125.353 7.62791 125.281 7.70092C125.209 7.77392 125.114 7.83604 124.995 7.88727C124.876 7.93851 124.73 7.96412 124.559 7.96412ZM124.628 7.55683C124.807 7.55683 124.958 7.52161 125.081 7.45116C125.206 7.38072 125.299 7.28978 125.362 7.17836C125.426 7.06693 125.458 6.94973 125.458 6.82678V6.4118C125.439 6.43485 125.396 6.45599 125.331 6.4752C125.267 6.49313 125.193 6.50914 125.108 6.52323C125.025 6.53604 124.944 6.54756 124.864 6.55781C124.786 6.56678 124.723 6.57446 124.674 6.58087C124.556 6.59623 124.446 6.62121 124.344 6.65579C124.242 6.68909 124.16 6.73968 124.098 6.80757C124.036 6.87417 124.006 6.9651 124.006 7.08037C124.006 7.23791 124.064 7.35703 124.18 7.43772C124.298 7.51712 124.447 7.55683 124.628 7.55683ZM128.022 4.94401V5.32825H126.493V4.94401H128.022ZM126.939 4.23702H127.392V7.04964C127.392 7.17771 127.411 7.27377 127.448 7.33781C127.486 7.40057 127.535 7.44284 127.594 7.46461C127.654 7.4851 127.717 7.49535 127.784 7.49535C127.834 7.49535 127.875 7.49279 127.907 7.48767C127.939 7.48126 127.965 7.47614 127.984 7.4723L128.076 7.87959C128.045 7.89112 128.002 7.90264 127.947 7.91417C127.892 7.92698 127.822 7.93338 127.738 7.93338C127.61 7.93338 127.484 7.90585 127.361 7.85077C127.24 7.7957 127.138 7.71181 127.058 7.5991C126.978 7.48639 126.939 7.34422 126.939 7.17259V4.23702ZM130.564 6.68845V4.94401H131.017V7.89496H130.564V7.39545H130.533C130.464 7.5453 130.356 7.67274 130.21 7.77777C130.064 7.88151 129.88 7.93338 129.657 7.93338C129.473 7.93338 129.309 7.89304 129.165 7.81235C129.022 7.73038 128.909 7.60742 128.827 7.44348C128.745 7.27826 128.704 7.07013 128.704 6.81909V4.94401H129.158V6.78835C129.158 7.00353 129.218 7.17515 129.338 7.30323C129.46 7.43131 129.615 7.49535 129.803 7.49535C129.916 7.49535 130.031 7.46653 130.147 7.4089C130.265 7.35126 130.364 7.26289 130.443 7.14377C130.524 7.02466 130.564 6.87289 130.564 6.68845ZM131.848 7.89496V4.94401H132.286V5.38973H132.317C132.37 5.24372 132.468 5.12524 132.609 5.03431C132.749 4.94337 132.908 4.8979 133.085 4.8979C133.118 4.8979 133.16 4.89854 133.21 4.89983C133.26 4.90111 133.298 4.90303 133.323 4.90559V5.36667C133.308 5.36283 133.273 5.35707 133.218 5.34938C133.164 5.34042 133.107 5.33594 133.047 5.33594C132.903 5.33594 132.775 5.36603 132.662 5.42623C132.551 5.48515 132.463 5.56712 132.397 5.67214C132.333 5.77589 132.301 5.89436 132.301 6.02756V7.89496H131.848ZM135.008 7.95644C134.724 7.95644 134.479 7.89368 134.272 7.76816C134.067 7.64136 133.909 7.46461 133.798 7.23791C133.688 7.00993 133.633 6.74481 133.633 6.44254C133.633 6.14027 133.688 5.87387 133.798 5.64333C133.909 5.4115 134.064 5.23091 134.263 5.10155C134.463 4.97091 134.696 4.90559 134.962 4.90559C135.116 4.90559 135.268 4.9312 135.417 4.98244C135.567 5.03367 135.704 5.11692 135.827 5.23219C135.95 5.34618 136.048 5.49731 136.121 5.68559C136.194 5.87387 136.23 6.10569 136.23 6.38106V6.57318H133.955V6.18126H135.769C135.769 6.01476 135.736 5.86618 135.669 5.73554C135.604 5.6049 135.51 5.5018 135.389 5.42623C135.268 5.35066 135.126 5.31288 134.962 5.31288C134.781 5.31288 134.625 5.35771 134.493 5.44736C134.363 5.53574 134.262 5.65101 134.192 5.79318C134.121 5.93535 134.086 6.08776 134.086 6.25042V6.5117C134.086 6.73456 134.124 6.92348 134.201 7.07845C134.279 7.23215 134.388 7.34934 134.526 7.43003C134.664 7.50944 134.825 7.54914 135.008 7.54914C135.127 7.54914 135.235 7.53249 135.331 7.49919C135.428 7.46461 135.512 7.41338 135.583 7.3455C135.653 7.27634 135.707 7.19052 135.746 7.08806L136.184 7.21102C136.138 7.35959 136.06 7.49023 135.951 7.60294C135.843 7.71437 135.708 7.80146 135.548 7.86422C135.388 7.9257 135.208 7.95644 135.008 7.95644ZM138.626 5.56648V5.1515H140.993V5.56648H138.626ZM138.626 6.70382V6.28884H140.993V6.70382H138.626ZM144.805 7.94875C144.515 7.94875 144.269 7.86998 144.065 7.71245C143.861 7.55363 143.706 7.32373 143.598 7.02274C143.491 6.72047 143.437 6.35545 143.437 5.92766C143.437 5.50244 143.491 5.13933 143.598 4.83835C143.707 4.53608 143.863 4.30554 144.067 4.14672C144.272 3.98662 144.518 3.90657 144.805 3.90657C145.092 3.90657 145.337 3.98662 145.541 4.14672C145.746 4.30554 145.902 4.53608 146.009 4.83835C146.118 5.13933 146.173 5.50244 146.173 5.92766C146.173 6.35545 146.119 6.72047 146.011 7.02274C145.904 7.32373 145.748 7.55363 145.544 7.71245C145.341 7.86998 145.094 7.94875 144.805 7.94875ZM144.805 7.52609C145.092 7.52609 145.315 7.38776 145.473 7.11111C145.632 6.83446 145.712 6.43998 145.712 5.92766C145.712 5.58697 145.675 5.29687 145.602 5.05736C145.53 4.81785 145.427 4.63534 145.291 4.50982C145.156 4.38431 144.994 4.32155 144.805 4.32155C144.52 4.32155 144.298 4.46179 144.138 4.74229C143.978 5.0215 143.898 5.41662 143.898 5.92766C143.898 6.26835 143.934 6.55781 144.006 6.79604C144.077 7.03427 144.18 7.2155 144.315 7.33973C144.451 7.46397 144.614 7.52609 144.805 7.52609ZM147.103 7.9257C147.009 7.9257 146.927 7.89176 146.86 7.82387C146.792 7.75599 146.758 7.67466 146.758 7.57988C146.758 7.4851 146.792 7.40377 146.86 7.33589C146.927 7.26801 147.009 7.23407 147.103 7.23407C147.198 7.23407 147.28 7.26801 147.347 7.33589C147.415 7.40377 147.449 7.4851 147.449 7.57988C147.449 7.64264 147.433 7.70028 147.401 7.75279C147.371 7.8053 147.329 7.84757 147.276 7.87959C147.225 7.91033 147.168 7.9257 147.103 7.9257ZM149.406 7.94875C149.18 7.94875 148.977 7.90392 148.797 7.81427C148.616 7.72461 148.471 7.60166 148.362 7.4454C148.253 7.28914 148.194 7.11111 148.184 6.91131H148.645C148.663 7.08934 148.743 7.23663 148.887 7.35318C149.032 7.46845 149.204 7.52609 149.406 7.52609C149.567 7.52609 149.71 7.48831 149.836 7.41274C149.963 7.33717 150.062 7.23343 150.134 7.10151C150.207 6.96831 150.243 6.81781 150.243 6.65003C150.243 6.4784 150.205 6.32535 150.13 6.19086C150.056 6.0551 149.953 5.94815 149.822 5.87003C149.692 5.7919 149.543 5.75219 149.375 5.75091C149.254 5.74963 149.131 5.7682 149.004 5.80663C148.877 5.84377 148.773 5.8918 148.691 5.95072L148.245 5.89692L148.483 3.96036H150.528V4.38303H148.883L148.745 5.54342H148.768C148.848 5.47938 148.95 5.42623 149.071 5.38396C149.193 5.3417 149.32 5.32057 149.452 5.32057C149.692 5.32057 149.907 5.3782 150.095 5.49347C150.285 5.60746 150.433 5.76372 150.541 5.96224C150.65 6.16077 150.704 6.38747 150.704 6.64234C150.704 6.89338 150.648 7.11752 150.535 7.31476C150.424 7.51072 150.27 7.6657 150.074 7.77969C149.878 7.8924 149.655 7.94875 149.406 7.94875Z" fill="#262626"/>
</g>
<defs>
<clipPath id="clip0_4200_6569">
<rect width="233" height="127" fill="white"/>
</clipPath>
</defs>
</svg>
